<svg width="227" height="71" viewBox="0 0 227 71" fill="none" xmlns="http://www.w3.org/2000/svg">
<g clip-path="url(#clip0_10_56)">
<path d="M67.7797 11.3823V8.46311H58.6752V3.98613H68.84V1.02112H58.6752H56.9668H55.4614V18.3334H58.6752V11.3823H67.7797Z" fill="white"/>
<path d="M79.1884 14.524H88.0114L89.7394 18.3269H93.1429L85.341 1.02112H82.0683L74.1616 18.3269H77.4343L79.1884 14.524ZM82.3432 7.62531C82.4741 7.27841 82.6181 6.93806 82.7687 6.5977C82.9192 6.25735 83.0632 5.91045 83.2138 5.54391C83.3643 5.17737 83.4886 4.84356 83.6196 4.48357C83.7374 4.82393 83.8683 5.1381 84.0057 5.49809C84.1432 5.85808 84.3003 6.21807 84.4443 6.57152C84.5883 6.92496 84.7257 7.22605 84.8435 7.55331L86.7417 11.7292H80.4647L82.3432 7.62531Z" fill="white"/>
<path d="M115.541 7.76276C115.475 8.954 115.443 10.2631 115.443 11.6899V18.3269H118.63V1.02112H115.639L109.094 9.88998L102.548 1.02112H99.5049V18.3269H102.692V11.6834C102.692 10.2303 102.692 8.90819 102.581 7.7104C102.581 7.15405 102.503 6.60425 102.444 6.0479L108.197 13.6339H109.833L115.659 6.03481C115.619 6.61079 115.567 7.19987 115.541 7.76276Z" fill="white"/>
<path d="M138.318 15.3946H134.358V3.9665H138.318V1.02112H127.211V3.9665H131.145V15.3946H127.211V18.3334H138.318V15.3946Z" fill="white"/>
<path d="M160.284 15.3684H150.093V1.02112H146.879V18.3334H160.284V15.3684Z" fill="white"/>
<path d="M178.363 15.3946H174.409V3.9665H178.363V1.02112H167.262V3.9665H171.189V15.3946H167.262V18.3334H178.363V15.3946Z" fill="white"/>
<path d="M190.092 10.9176H199.19V8.04421H190.092V3.94032H200.453V1.02112H186.924V18.3334H200.551V15.4142H190.092V10.9176Z" fill="white"/>
<path d="M222.936 1.02112V7.9853C222.936 8.57438 222.975 9.15036 222.994 9.72635C223.014 10.3023 223.047 10.8718 223.086 11.4216C223.125 11.9714 223.158 12.5212 223.217 13.0644C223.256 13.3983 223.296 13.719 223.335 14.0331L211.553 1.02112H208.51V18.3269H211.697V11.631C211.697 11.2056 211.697 10.7736 211.665 10.322L211.586 9.01291C211.576 8.57471 211.538 8.13755 211.475 7.70386C211.422 7.27841 211.383 6.78751 211.344 6.30971C211.344 6.08062 211.298 5.83845 211.278 5.60936L223.06 18.3399H226.156V1.02112H222.936Z" fill="white"/>
<path d="M75.6015 34.0225H65.5152V26.7769H62.2949V44.0891H65.5152V37.0399H75.6015V44.0891H78.8218V26.7769H75.6015V34.0225Z" fill="white"/>
<path d="M99.0335 40.2798L100.768 44.0891H104.178L96.3238 26.7769H93.0511L85.1968 44.0891H88.4694L90.2105 40.2798H99.0335ZM93.3653 33.381C93.4962 33.0341 93.6336 32.7265 93.7842 32.3534C93.9347 31.9804 94.0787 31.6989 94.2293 31.2996C94.3798 30.9004 94.5042 30.5993 94.6351 30.2393C94.7594 30.5797 94.8838 30.8938 95.0212 31.2538C95.1587 31.6138 95.3158 31.9738 95.4663 32.3273C95.6169 32.6807 95.7478 32.9818 95.859 33.3025L97.7572 37.4849H91.4868L93.3653 33.381Z" fill="white"/>
<path d="M113.61 34.8014C113.596 34.3634 113.559 33.9264 113.498 33.4923C113.453 33.0669 113.433 32.5433 113.361 32.0851C113.352 31.8528 113.33 31.6212 113.296 31.3913L125.077 44.1088H128.166V26.7769H124.953V33.741C124.953 34.3301 124.992 34.9061 125.018 35.4821C125.044 36.0581 125.07 36.621 125.103 37.1773C125.136 37.7337 125.182 38.2769 125.241 38.8202C125.273 39.154 125.313 39.4747 125.352 39.7889L113.57 26.7769H110.527V44.0891H113.721V37.3868C113.721 36.9548 113.721 36.5293 113.682 36.0777C113.642 35.6261 113.636 35.2399 113.61 34.8014Z" fill="white"/>
<path d="M147.469 43.6572C148.528 43.2717 149.455 42.5902 150.139 41.6936C150.775 40.8331 151.107 39.7853 151.082 38.7155C151.113 37.975 150.919 37.2424 150.525 36.6144C150.133 36.0314 149.602 35.5547 148.981 35.2268C148.262 34.8423 147.496 34.5519 146.703 34.3629C145.845 34.1469 144.936 33.9636 143.98 33.8196C143.325 33.7345 142.743 33.6298 142.2 33.5054C141.71 33.4009 141.234 33.2428 140.779 33.0342C140.42 32.8904 140.097 32.6665 139.837 32.3796C139.614 32.1014 139.496 31.7541 139.503 31.3979C139.5 31.1833 139.545 30.9708 139.633 30.7752C139.721 30.5796 139.851 30.4057 140.014 30.2655C140.411 29.917 140.887 29.6699 141.401 29.5455C142.706 29.2039 144.076 29.2039 145.381 29.5455C146.01 29.7151 146.61 29.9777 147.161 30.3244C147.717 30.682 148.213 31.1236 148.634 31.6335L150.597 29.3885C150.106 28.7797 149.517 28.2557 148.856 27.8372C148.124 27.3846 147.328 27.0469 146.493 26.8358C145.506 26.5964 144.492 26.4799 143.476 26.4889C142.509 26.4838 141.545 26.6048 140.609 26.8489C139.792 27.0625 139.014 27.4049 138.305 27.8634C137.664 28.2791 137.126 28.8367 136.734 29.4932C136.355 30.1468 136.158 30.8907 136.165 31.6466C136.147 32.3345 136.299 33.0163 136.607 33.6316C136.915 34.247 137.37 34.7769 137.932 35.1745C138.578 35.6275 139.292 35.9765 140.046 36.2086C140.961 36.5083 141.901 36.7273 142.854 36.8632L144.163 37.0726C144.615 37.1446 145.06 37.2362 145.472 37.341C145.87 37.4381 146.256 37.5763 146.624 37.7533C146.932 37.8959 147.206 38.1009 147.429 38.3555C147.627 38.607 147.731 38.9193 147.724 39.2391C147.732 39.4897 147.681 39.7387 147.575 39.966C147.469 40.1934 147.312 40.3927 147.115 40.5482C146.67 40.909 146.152 41.1701 145.597 41.314C144.957 41.4921 144.297 41.5802 143.633 41.5758C142.474 41.5683 141.328 41.3209 140.269 40.8492C139.079 40.2891 138.011 39.4995 137.127 38.5257L135.249 41.0718C135.907 41.7664 136.655 42.3696 137.474 42.8652C138.318 43.3642 139.231 43.7348 140.184 43.9648C141.256 44.2194 142.354 44.3446 143.456 44.3379C144.825 44.3649 146.186 44.134 147.469 43.6572V43.6572Z" fill="white"/>
<path d="M171.922 29.6961V26.7769H158.393V44.0891H172.02V41.1699H161.56V36.6668H170.658V33.7999H161.56V29.6961H171.922Z" fill="white"/>
<path d="M194.405 31.9673V33.741C194.405 34.3301 194.438 34.9061 194.464 35.4821C194.49 36.0581 194.516 36.621 194.549 37.1773C194.582 37.7337 194.627 38.2769 194.686 38.8202C194.726 39.154 194.765 39.4747 194.804 39.7889L183.023 26.7769H179.979V44.0891H183.167V37.3868C183.167 36.9548 183.167 36.5293 183.134 36.0777C183.101 35.6261 183.081 35.2203 183.055 34.7686C183.029 34.317 182.996 33.885 182.944 33.4596C182.892 33.0341 182.852 32.5367 182.813 32.0589C182.813 31.8364 182.767 31.5942 182.748 31.3651L194.529 44.0826H197.625V26.7769H194.398L194.405 31.9673Z" fill="white"/>
<path d="M218.446 35.2596C217.736 34.8751 216.979 34.5847 216.194 34.3956C215.337 34.1796 214.427 33.9963 213.471 33.8523C212.817 33.7672 212.234 33.6625 211.691 33.5382C211.199 33.4336 210.721 33.2756 210.264 33.0669C209.908 32.919 209.589 32.6956 209.328 32.4124C209.102 32.1307 208.984 31.7782 208.994 31.4175C208.991 31.2035 209.035 30.9915 209.122 30.796C209.209 30.6005 209.337 30.4262 209.498 30.2852C209.897 29.9381 210.372 29.6912 210.886 29.5652C212.19 29.2235 213.561 29.2235 214.865 29.5652C215.494 29.7348 216.094 29.9973 216.646 30.3441C217.203 30.6996 217.7 31.1415 218.118 31.6531L220.082 29.4081C219.586 28.8007 218.996 28.2769 218.334 27.8569C217.598 27.3946 216.794 27.0501 215.952 26.8358C214.964 26.5964 213.951 26.4799 212.934 26.4889C211.965 26.484 210.999 26.605 210.061 26.8489C209.232 27.0645 208.443 27.4115 207.724 27.8765C207.084 28.2938 206.547 28.8511 206.153 29.5063C205.774 30.1599 205.577 30.9037 205.584 31.6597C205.57 32.3589 205.728 33.051 206.042 33.6756C206.357 34.2733 206.805 34.7906 207.351 35.1876C207.998 35.6406 208.711 35.9896 209.465 36.2217C210.38 36.5214 211.32 36.7404 212.273 36.8763L213.582 37.0857C214.041 37.1577 214.479 37.2493 214.891 37.3541C215.286 37.4522 215.67 37.5904 216.037 37.7664C216.346 37.9065 216.62 38.112 216.842 38.3686C217.044 38.6182 217.15 38.9313 217.143 39.2522C217.151 39.5028 217.1 39.7518 216.994 39.9791C216.889 40.2064 216.731 40.4058 216.534 40.5613C216.089 40.9221 215.571 41.1832 215.016 41.327C214.377 41.5052 213.716 41.5933 213.052 41.5889C211.883 41.6018 210.723 41.37 209.649 40.9082C208.46 40.3457 207.393 39.5564 206.507 38.5846L204.628 41.1307C205.288 41.8238 206.036 42.4268 206.854 42.9241C207.729 43.408 208.67 43.7588 209.649 43.9648C210.721 44.2194 211.819 44.3446 212.921 44.3379C214.286 44.3702 215.644 44.1482 216.927 43.6834C217.983 43.2906 218.908 42.6105 219.597 41.7198C220.231 40.858 220.56 39.8106 220.533 38.7417C220.562 38.0073 220.373 37.2809 219.99 36.6537C219.6 36.0668 219.069 35.5874 218.446 35.2596V35.2596Z" fill="white"/>
<path d="M97.6457 52.526H96.1338V69.8448H99.3475V62.8937H108.452V59.9745H99.3475V55.4976H109.519V52.526H99.3475H97.6457Z" fill="white"/>
<path d="M132.84 54.7906C131.926 53.9613 130.859 53.3187 129.698 52.899C128.421 52.4468 127.073 52.2251 125.719 52.2445C124.37 52.222 123.028 52.4437 121.759 52.899C120.597 53.3251 119.527 53.9669 118.604 54.7906C117.768 55.5397 117.088 56.4463 116.602 57.4585C116.117 58.4707 115.836 59.5687 115.775 60.6897C115.714 61.8106 115.875 62.9326 116.248 63.9913C116.621 65.0501 117.199 66.0249 117.949 66.8601C118.154 67.0914 118.373 67.31 118.604 67.5146C119.531 68.3324 120.601 68.9735 121.759 69.4062C124.333 70.279 127.124 70.279 129.698 69.4062C130.86 68.9857 131.927 68.3407 132.84 67.5081C133.737 66.7098 134.454 65.7308 134.946 64.6355C135.437 63.5401 135.691 62.3532 135.691 61.1526C135.691 59.9521 135.437 58.7651 134.946 57.6697C134.454 56.5744 133.737 55.5954 132.84 54.7971V54.7906ZM131.897 63.4893C131.567 64.2008 131.092 64.8359 130.503 65.3547C129.887 65.8989 129.174 66.3229 128.402 66.6048C127.541 66.9123 126.633 67.063 125.719 67.0499C124.812 67.0565 123.91 66.9059 123.055 66.6048C122.278 66.3303 121.56 65.9105 120.941 65.3678C120.357 64.8449 119.891 64.2048 119.573 63.4893C119.252 62.7577 119.086 61.9677 119.086 61.169C119.086 60.3702 119.252 59.5802 119.573 58.8487C119.886 58.1227 120.353 57.473 120.941 56.944C121.56 56.4012 122.278 55.9814 123.055 55.7069C123.909 55.3996 124.811 55.2488 125.719 55.2619C126.633 55.2482 127.542 55.3989 128.402 55.7069C129.173 55.9849 129.886 56.4044 130.503 56.944C131.092 57.4627 131.567 58.0979 131.897 58.8094C132.221 59.5298 132.388 60.3105 132.388 61.1002C132.388 61.89 132.221 62.6707 131.897 63.3911V63.4893Z" fill="white"/>
<path d="M157.404 57.7229V59.4901C157.404 60.0792 157.444 60.6617 157.47 61.2377C157.496 61.8137 157.522 62.3766 157.555 62.9329C157.588 63.4893 157.633 64.0325 157.692 64.5758C157.709 64.9007 157.746 65.2243 157.804 65.5445L146.022 52.5325H142.979V69.8447H146.16V63.1424C146.16 62.7104 146.16 62.2849 146.12 61.8333C146.081 61.3817 146.074 60.9759 146.048 60.5243C146.022 60.0726 145.983 59.6406 145.937 59.2152C145.891 58.7898 145.839 58.2923 145.8 57.8145C145.79 57.5822 145.769 57.3506 145.734 57.1207L157.516 69.8382H160.605V52.5325H157.417L157.404 57.7229Z" fill="white"/>
<path d="M184.253 55.0525C183.411 54.2365 182.408 53.6055 181.308 53.2001C180.05 52.745 178.719 52.5232 177.381 52.5456H169.153V69.8579H177.361C178.699 69.8776 180.029 69.6559 181.288 69.2034C182.387 68.7973 183.389 68.169 184.234 67.3576C185.044 66.5794 185.676 65.6348 186.086 64.5889C186.917 62.4005 186.917 59.9834 186.086 57.7949C185.676 56.7614 185.051 55.8266 184.253 55.0525V55.0525ZM182.944 63.4239C182.708 64.0986 182.323 64.7115 181.818 65.2173C181.283 65.753 180.638 66.1661 179.927 66.4282C179.063 66.7419 178.149 66.8928 177.23 66.8732H172.341V55.4975H177.211C178.128 55.4768 179.042 55.6232 179.907 55.9295C180.618 56.1916 181.263 56.6047 181.799 57.1404C182.302 57.6426 182.694 58.2446 182.951 58.9076C183.448 60.3585 183.448 61.9337 182.951 63.3846L182.944 63.4239Z" fill="white"/>
<path d="M24.4175 39.0427C24.1295 39.1474 23.8807 39.2391 23.6582 39.3111V44.0891H26.8654V38.0282C25.8901 38.4667 25.072 38.8005 24.4175 39.0427Z" fill="white"/>
<path d="M34.8046 13.8299H31.6171C31.6153 15.2302 31.1501 16.5906 30.294 17.6988C29.438 18.807 28.2393 19.6008 26.8848 19.9563V13.6728C26.8848 8.56095 24.8034 5.39303 23.0624 3.6258C20.845 1.38117 17.8451 0.0817297 14.691 -0.000283539C12.8325 -0.0789229 10.9775 0.220466 9.23812 0.879752C7.49877 1.53904 5.91134 2.5445 4.57196 3.83525C1.78563 6.64702 0.215433 10.4409 0.199707 14.3993C0.199707 24.5969 7.60897 30.828 13.5914 34.1988V30.4615C8.70858 27.3394 3.4069 22.1751 3.4069 14.3993C3.41304 11.2995 4.64061 8.32698 6.82353 6.1261C7.85215 5.12634 9.07763 4.35164 10.422 3.85132C11.7663 3.35099 13.2001 3.13599 14.6321 3.22C19.1156 3.30509 23.6515 6.92463 23.6515 13.6925V30.8411C24.7485 30.3499 25.819 29.8015 26.8587 29.1982V23.2355C29.0793 22.8559 31.0945 21.7039 32.5483 19.983C34.0022 18.262 34.8013 16.0828 34.8046 13.8299V13.8299Z" fill="white"/>
<path d="M17.5709 6.36865C16.4659 8.57323 15.9069 11.0111 15.9411 13.4768V19.9567C14.5854 19.6024 13.3852 18.8092 12.5279 17.7008C11.6706 16.5925 11.2045 15.2315 11.2023 13.8303H7.99512C7.9984 16.0831 8.79752 18.2624 10.2514 19.9834C11.7053 21.7043 13.7204 22.8563 15.9411 23.2359V44.0891H19.181V13.4768C19.1612 11.8512 19.4499 10.2365 20.0319 8.71841C19.4283 7.73574 18.5804 6.9262 17.5709 6.36865V6.36865Z" fill="white"/>
<path d="M42.541 15.8724V15.8331C42.541 15.375 42.5934 14.9037 42.5934 14.4259C42.5892 10.9177 41.3547 7.52216 39.1047 4.83052C37.2459 2.61821 33.8292 9.84472e-05 28.1348 9.84472e-05C26.5413 -0.00624197 24.9614 0.293737 23.4811 0.883712C24.4116 1.63198 25.2469 2.49145 25.9683 3.44292C26.6799 3.28626 27.4063 3.20725 28.1348 3.20729C36.3884 3.20729 39.3862 9.90966 39.3862 14.3997C39.3965 14.8367 39.379 15.274 39.3338 15.7088V15.9771C39.2945 16.3895 39.2422 16.7953 39.1702 17.1946V17.2731C39.1004 17.6702 39.0153 18.0629 38.9149 18.4513V18.5625C37.4553 24.0606 33.2336 27.9354 29.2606 30.4684C28.0535 31.235 26.801 31.9279 25.5102 32.5433C24.2347 33.1604 22.9233 33.7002 21.583 34.1599V37.4915C21.583 37.4915 22.0085 37.3868 22.8921 37.1119C23.0426 37.066 23.3895 36.9351 23.6971 36.8239C27.341 35.4575 30.7587 33.5511 33.8358 31.1687L34.078 30.9724L34.4641 30.6648C34.6932 30.4749 34.9158 30.2786 35.1187 30.0822H35.1579L35.2692 29.984L35.3347 29.9186C35.9106 29.4081 36.4604 28.8648 36.9972 28.2954L37.0757 28.2103C37.3179 27.9485 37.56 27.6736 37.7957 27.3987L37.848 27.3332C40.5965 24.1477 42.2526 20.1657 42.5737 15.9706C42.5593 15.9391 42.5483 15.9062 42.541 15.8724V15.8724Z" fill="white"/>
</g>
<defs>
<clipPath id="clip0_10_56">
<rect width="225.93" height="70.0542" fill="white" transform="translate(0.199707)"/>
</clipPath>
</defs>
</svg>
