<svg width="227" height="71" viewBox="0 0 227 71" fill="none" xmlns="http://www.w3.org/2000/svg">
<g clip-path="url(#clip0_640_1042)">
<path d="M67.7799 11.3822V8.46299H58.6754V3.98601H68.8402V1.021H58.6754H56.9671H55.4617V18.3333H58.6754V11.3822H67.7799Z" fill="black"/>
<path d="M79.1883 14.5239H88.0113L89.7393 18.3267H93.1428L85.3408 1.021H82.0682L74.1615 18.3267H77.4341L79.1883 14.5239ZM82.3431 7.62519C82.474 7.27829 82.618 6.93793 82.7685 6.59758C82.9191 6.25722 83.0631 5.91032 83.2136 5.54379C83.3642 5.17725 83.4885 4.84344 83.6194 4.48345C83.7372 4.82381 83.8682 5.13798 84.0056 5.49797C84.1431 5.85796 84.3001 6.21795 84.4441 6.5714C84.5881 6.92484 84.7256 7.22593 84.8434 7.55319L86.7415 11.7291H80.4646L82.3431 7.62519Z" fill="black"/>
<path d="M115.541 7.76264C115.475 8.95388 115.443 10.2629 115.443 11.6898V18.3267H118.63V1.021H115.639L109.094 9.88986L102.548 1.021H99.5049V18.3267H102.692V11.6833C102.692 10.2302 102.692 8.90806 102.581 7.71028C102.581 7.15393 102.503 6.60412 102.444 6.04777L108.197 13.6338H109.833L115.659 6.03468C115.619 6.61067 115.567 7.19974 115.541 7.76264Z" fill="black"/>
<path d="M138.318 15.3944H134.359V3.96637H138.318V1.021H127.211V3.96637H131.145V15.3944H127.211V18.3333H138.318V15.3944Z" fill="black"/>
<path d="M160.284 15.3683H150.093V1.021H146.88V18.3333H160.284V15.3683Z" fill="black"/>
<path d="M178.363 15.3944H174.409V3.96637H178.363V1.021H167.262V3.96637H171.189V15.3944H167.262V18.3333H178.363V15.3944Z" fill="black"/>
<path d="M190.092 10.9175H199.19V8.04409H190.092V3.94019H200.453V1.021H186.924V18.3333H200.551V15.4141H190.092V10.9175Z" fill="black"/>
<path d="M222.936 1.021V7.98518C222.936 8.57426 222.975 9.15024 222.995 9.72623C223.014 10.3022 223.047 10.8717 223.086 11.4215C223.126 11.9713 223.158 12.5211 223.217 13.0643C223.257 13.3981 223.296 13.7189 223.335 14.033L211.554 1.021H208.51V18.3267H211.698V11.6309C211.698 11.2055 211.698 10.7735 211.665 10.3218L211.586 9.01279C211.576 8.57459 211.539 8.13742 211.475 7.70373C211.423 7.27829 211.383 6.78739 211.344 6.30959C211.344 6.0805 211.298 5.83833 211.279 5.60924L223.06 18.3398H226.156V1.021H222.936Z" fill="black"/>
<path d="M75.6015 34.0222H65.5152V26.7766H62.2949V44.0889H65.5152V37.0396H75.6015V44.0889H78.8218V26.7766H75.6015V34.0222Z" fill="black"/>
<path d="M99.0336 40.2795L100.768 44.0889H104.178L96.3239 26.7766H93.0512L85.1969 44.0889H88.4695L90.2106 40.2795H99.0336ZM93.3654 33.3808C93.4963 33.0339 93.6338 32.7263 93.7843 32.3532C93.9349 31.9801 94.0789 31.6987 94.2294 31.2994C94.3799 30.9001 94.5043 30.5991 94.6352 30.2391C94.7596 30.5794 94.8839 30.8936 95.0214 31.2536C95.1588 31.6136 95.3159 31.9736 95.4665 32.327C95.617 32.6805 95.7479 32.9815 95.8592 33.3023L97.7573 37.4847H91.4869L93.3654 33.3808Z" fill="black"/>
<path d="M113.61 34.8011C113.596 34.3631 113.559 33.9261 113.499 33.4921C113.453 33.0666 113.433 32.543 113.361 32.0848C113.352 31.8525 113.33 31.6209 113.296 31.391L125.077 44.1085H128.167V26.7766H124.953V33.7408C124.953 34.3299 124.992 34.9059 125.018 35.4818C125.045 36.0578 125.071 36.6207 125.103 37.1771C125.136 37.7334 125.182 38.2767 125.241 38.8199C125.274 39.1537 125.313 39.4745 125.352 39.7886L113.571 26.7766H110.527V44.0889H113.721V37.3865C113.721 36.9545 113.721 36.5291 113.682 36.0775C113.643 35.6258 113.636 35.2397 113.61 34.8011Z" fill="black"/>
<path d="M147.469 43.657C148.528 43.2716 149.455 42.5901 150.139 41.6935C150.775 40.833 151.107 39.7852 151.082 38.7154C151.113 37.9749 150.919 37.2423 150.525 36.6143C150.133 36.0313 149.602 35.5546 148.981 35.2267C148.262 34.8421 147.496 34.5518 146.703 34.3627C145.845 34.1467 144.936 33.9635 143.98 33.8195C143.326 33.7344 142.743 33.6297 142.2 33.5053C141.71 33.4007 141.234 33.2427 140.779 33.0341C140.42 32.8902 140.097 32.6664 139.837 32.3795C139.614 32.1013 139.496 31.7539 139.503 31.3977C139.501 31.1832 139.545 30.9707 139.633 30.7751C139.721 30.5795 139.851 30.4056 140.014 30.2654C140.411 29.9168 140.887 29.6698 141.401 29.5454C142.706 29.2038 144.076 29.2038 145.381 29.5454C146.01 29.715 146.61 29.9775 147.161 30.3243C147.717 30.6819 148.214 31.1235 148.634 31.6334L150.597 29.3883C150.106 28.7796 149.518 28.2556 148.856 27.8371C148.125 27.3845 147.328 27.0467 146.493 26.8357C145.506 26.5963 144.492 26.4798 143.476 26.4888C142.509 26.4837 141.545 26.6047 140.609 26.8488C139.792 27.0624 139.014 27.4048 138.305 27.8633C137.664 28.279 137.126 28.8366 136.734 29.4931C136.355 30.1467 136.158 30.8905 136.165 31.6465C136.147 32.3344 136.299 33.0162 136.607 33.6315C136.915 34.2468 137.371 34.7767 137.932 35.1744C138.579 35.6274 139.292 35.9764 140.046 36.2085C140.961 36.5082 141.901 36.7272 142.854 36.863L144.163 37.0725C144.615 37.1445 145.06 37.2361 145.472 37.3408C145.87 37.4379 146.256 37.5761 146.624 37.7532C146.932 37.8957 147.206 38.1008 147.429 38.3554C147.627 38.6069 147.731 38.9192 147.724 39.239C147.732 39.4896 147.681 39.7385 147.575 39.9659C147.47 40.1932 147.312 40.3926 147.115 40.548C146.67 40.9089 146.152 41.17 145.597 41.3138C144.958 41.492 144.297 41.5801 143.633 41.5756C142.474 41.5682 141.328 41.3208 140.269 40.8491C139.079 40.289 138.011 39.4994 137.127 38.5255L135.249 41.0717C135.907 41.7663 136.655 42.3695 137.474 42.8651C138.318 43.3641 139.231 43.7347 140.184 43.9647C141.256 44.2193 142.355 44.3445 143.456 44.3378C144.825 44.3648 146.186 44.1339 147.469 43.657Z" fill="black"/>
<path d="M171.922 29.6958V26.7766H158.393V44.0889H172.02V41.1697H161.561V36.6665H170.659V33.7997H161.561V29.6958H171.922Z" fill="black"/>
<path d="M194.405 31.967V33.7408C194.405 34.3299 194.438 34.9059 194.464 35.4818C194.49 36.0578 194.516 36.6207 194.549 37.1771C194.582 37.7334 194.627 38.2767 194.686 38.8199C194.726 39.1537 194.765 39.4745 194.804 39.7886L183.023 26.7766H179.979V44.0889H183.167V37.3865C183.167 36.9545 183.167 36.5291 183.134 36.0775C183.101 35.6258 183.082 35.22 183.055 34.7684C183.029 34.3168 182.997 33.8848 182.944 33.4593C182.892 33.0339 182.852 32.5365 182.813 32.0587C182.813 31.8361 182.767 31.5939 182.748 31.3649L194.529 44.0823H197.625V26.7766H194.398L194.405 31.967Z" fill="black"/>
<path d="M218.446 35.2594C217.736 34.875 216.979 34.5846 216.194 34.3955C215.337 34.1795 214.427 33.9962 213.471 33.8522C212.817 33.7671 212.234 33.6624 211.691 33.538C211.2 33.4335 210.721 33.2755 210.264 33.0668C209.909 32.9188 209.589 32.6955 209.328 32.4122C209.103 32.1306 208.984 31.778 208.994 31.4174C208.991 31.2034 209.035 30.9914 209.122 30.7959C209.209 30.6004 209.337 30.4261 209.498 30.285C209.897 29.938 210.373 29.6911 210.886 29.565C212.19 29.2234 213.561 29.2234 214.865 29.565C215.494 29.7346 216.094 29.9972 216.646 30.3439C217.203 30.6995 217.7 31.1414 218.119 31.653L220.082 29.408C219.586 28.8005 218.996 28.2768 218.334 27.8567C217.598 27.3945 216.794 27.05 215.952 26.8357C214.964 26.5963 213.951 26.4798 212.935 26.4888C211.965 26.4838 210.999 26.6048 210.061 26.8488C209.233 27.0644 208.444 27.4113 207.725 27.8764C207.084 28.2937 206.547 28.8509 206.154 29.5061C205.774 30.1598 205.577 30.9036 205.584 31.6595C205.571 32.3588 205.728 33.0509 206.042 33.6755C206.357 34.2732 206.805 34.7905 207.352 35.1874C207.998 35.6405 208.711 35.9895 209.466 36.2216C210.381 36.5213 211.32 36.7403 212.274 36.8761L213.583 37.0856C214.041 37.1576 214.479 37.2492 214.892 37.3539C215.287 37.4521 215.67 37.5903 216.037 37.7663C216.346 37.9064 216.621 38.1119 216.842 38.3685C217.044 38.618 217.151 38.9312 217.143 39.2521C217.151 39.5027 217.1 39.7516 216.995 39.979C216.889 40.2063 216.731 40.4057 216.535 40.5611C216.089 40.922 215.571 41.1831 215.016 41.3269C214.377 41.5051 213.716 41.5932 213.052 41.5887C211.883 41.6017 210.724 41.3698 209.649 40.908C208.46 40.3456 207.393 39.5562 206.507 38.5845L204.629 41.1306C205.288 41.8236 206.037 42.4266 206.854 42.924C207.729 43.4079 208.671 43.7587 209.649 43.9647C210.721 44.2193 211.82 44.3445 212.922 44.3378C214.286 44.37 215.644 44.1481 216.927 43.6832C217.983 43.2905 218.908 42.6103 219.598 41.7196C220.231 40.8579 220.56 39.8105 220.534 38.7415C220.563 38.0072 220.374 37.2807 219.99 36.6536C219.601 36.0667 219.069 35.5873 218.446 35.2594Z" fill="black"/>
<path d="M97.646 52.5259H96.134V69.8447H99.3478V62.8936H108.452V59.9744H99.3478V55.4974H109.519V52.5259H99.3478H97.646Z" fill="black"/>
<path d="M132.84 54.7906C131.926 53.9613 130.859 53.3187 129.698 52.899C128.421 52.4468 127.074 52.2251 125.719 52.2445C124.37 52.222 123.029 52.4437 121.759 52.899C120.597 53.3251 119.527 53.9669 118.604 54.7906C117.768 55.5397 117.088 56.4463 116.602 57.4585C116.117 58.4707 115.836 59.5687 115.775 60.6897C115.714 61.8106 115.875 62.9326 116.248 63.9913C116.621 65.0501 117.199 66.025 117.949 66.8601C118.154 67.0914 118.373 67.31 118.604 67.5146C119.531 68.3324 120.601 68.9735 121.759 69.4062C124.333 70.279 127.124 70.279 129.698 69.4062C130.86 68.9857 131.927 68.3407 132.84 67.5081C133.737 66.7098 134.454 65.7308 134.946 64.6355C135.437 63.5401 135.691 62.3532 135.691 61.1526C135.691 59.9521 135.437 58.7651 134.946 57.6697C134.454 56.5744 133.737 55.5954 132.84 54.7971V54.7906ZM131.898 63.4893C131.567 64.2008 131.092 64.8359 130.503 65.3547C129.887 65.8989 129.175 66.3229 128.402 66.6048C127.542 66.9123 126.633 67.063 125.719 67.0499C124.812 67.0565 123.91 66.9059 123.055 66.6048C122.278 66.3303 121.561 65.9105 120.941 65.3678C120.358 64.8449 119.891 64.2048 119.573 63.4893C119.252 62.7577 119.087 61.9677 119.087 61.169C119.087 60.3702 119.252 59.5802 119.573 58.8487C119.886 58.1227 120.353 57.473 120.941 56.944C121.561 56.4012 122.278 55.9814 123.055 55.7069C123.909 55.3996 124.811 55.2488 125.719 55.2619C126.633 55.2482 127.542 55.3989 128.402 55.7069C129.174 55.9849 129.886 56.4044 130.503 56.944C131.092 57.4627 131.567 58.0979 131.898 58.8094C132.221 59.5298 132.389 60.3105 132.389 61.1002C132.389 61.89 132.221 62.6707 131.898 63.3911V63.4893Z" fill="black"/>
<path d="M157.404 57.7229V59.4901C157.404 60.0792 157.444 60.6617 157.47 61.2377C157.496 61.8137 157.522 62.3766 157.555 62.9329C157.588 63.4893 157.634 64.0325 157.692 64.5758C157.709 64.9007 157.746 65.2243 157.804 65.5445L146.022 52.5325H142.979V69.8447H146.16V63.1424C146.16 62.7104 146.16 62.2849 146.12 61.8333C146.081 61.3817 146.075 60.9759 146.048 60.5243C146.022 60.0726 145.983 59.6406 145.937 59.2152C145.891 58.7898 145.839 58.2923 145.8 57.8145C145.791 57.5822 145.769 57.3506 145.734 57.1207L157.516 69.8382H160.605V52.5325H157.418L157.404 57.7229Z" fill="black"/>
<path d="M184.253 55.0523C183.411 54.2364 182.408 53.6054 181.308 53.2C180.05 52.7448 178.719 52.523 177.381 52.5455H169.153V69.8578H177.361C178.699 69.8775 180.029 69.6558 181.288 69.2032C182.387 68.7972 183.389 68.1689 184.234 67.3575C185.044 66.5792 185.676 65.6347 186.086 64.5888C186.917 62.4004 186.917 59.9833 186.086 57.7948C185.676 56.7612 185.051 55.8265 184.253 55.0523ZM182.944 63.4238C182.708 64.0984 182.323 64.7114 181.818 65.2172C181.283 65.7529 180.638 66.166 179.927 66.428C179.063 66.7418 178.149 66.8927 177.23 66.8731H172.341V55.4974H177.211C178.128 55.4767 179.042 55.623 179.907 55.9294C180.618 56.1915 181.263 56.6046 181.799 57.1403C182.302 57.6425 182.694 58.2445 182.951 58.9075C183.448 60.3584 183.448 61.9336 182.951 63.3845L182.944 63.4238Z" fill="black"/>
<path d="M24.4173 39.0426C24.1293 39.1473 23.8806 39.239 23.6581 39.311V44.089H26.8653V38.0281C25.89 38.4666 25.0719 38.8004 24.4173 39.0426Z" fill="black"/>
<path d="M34.8047 13.8298H31.6172C31.6154 15.2301 31.1502 16.5905 30.2942 17.6987C29.4381 18.8069 28.2394 19.6007 26.885 19.9562V13.6727C26.885 8.56083 24.8036 5.39291 23.0625 3.62568C20.8452 1.38105 17.8452 0.0816076 14.6911 -0.000405609C12.8326 -0.079045 10.9776 0.220344 9.23824 0.87963C7.49889 1.53892 5.91146 2.54438 4.57208 3.83513C1.78575 6.6469 0.215555 10.4408 0.199829 14.3992C0.199829 24.5968 7.60909 30.8279 13.5915 34.1987V30.4613C8.7087 27.3392 3.40702 22.175 3.40702 14.3992C3.41316 11.2994 4.64074 8.32686 6.82366 6.12598C7.85228 5.12622 9.07775 4.35152 10.4221 3.8512C11.7664 3.35087 13.2002 3.13587 14.6322 3.21987C19.1157 3.30496 23.6516 6.9245 23.6516 13.6923V30.841C24.7486 30.3497 25.8191 29.8014 26.8588 29.1981V23.2354C29.0794 22.8558 31.0946 21.7038 32.5485 19.9829C34.0023 18.2619 34.8015 16.0826 34.8047 13.8298Z" fill="black"/>
<path d="M17.571 6.36841C16.466 8.57298 15.9071 11.0108 15.9412 13.4766V19.9564C14.5855 19.6021 13.3854 18.8089 12.5281 17.7006C11.6708 16.5923 11.2046 15.2312 11.2024 13.83H7.99524C7.99852 16.0829 8.79764 18.2622 10.2515 19.9831C11.7054 21.7041 13.7206 22.856 15.9412 23.2356V44.0889H19.1811V13.4766C19.1613 11.8509 19.45 10.2362 20.032 8.71817C19.4284 7.7355 18.5805 6.92595 17.571 6.36841Z" fill="black"/>
<path d="M42.5413 15.8722V15.8329C42.5413 15.3747 42.5936 14.9035 42.5936 14.4257C42.5895 10.9175 41.3549 7.52191 39.105 4.83027C37.2461 2.61797 33.8295 -0.000145693 28.1351 -0.000145693C26.5416 -0.00648611 24.9617 0.293492 23.4814 0.883468C24.4119 1.63174 25.2472 2.49121 25.9686 3.44267C26.6801 3.28601 27.4065 3.20701 28.1351 3.20704C36.3887 3.20704 39.3864 9.90942 39.3864 14.3995C39.3968 14.8365 39.3793 15.2737 39.3341 15.7085V15.9769C39.2948 16.3892 39.2424 16.7951 39.1704 17.1943V17.2729C39.1006 17.6699 39.0155 18.0627 38.9152 18.451V18.5623C37.4556 24.0603 33.2339 27.9351 29.2609 30.4682C28.0537 31.2348 26.8013 31.9277 25.5104 32.543C24.235 33.1601 22.9235 33.7 21.5833 34.1597V37.4912C21.5833 37.4912 22.0087 37.3865 22.8923 37.1116C23.0429 37.0658 23.3898 36.9349 23.6974 36.8236C27.3412 35.4572 30.7589 33.5509 33.836 31.1685L34.0782 30.9721L34.4644 30.6645C34.6935 30.4747 34.916 30.2783 35.1189 30.082H35.1582L35.2694 29.9838L35.3349 29.9183C35.9109 29.4078 36.4607 28.8646 36.9974 28.2951L37.0759 28.21C37.3181 27.9482 37.5603 27.6733 37.7959 27.3984L37.8483 27.333C40.5968 24.1474 42.2529 20.1654 42.574 15.9703C42.5595 15.9389 42.5486 15.906 42.5413 15.8722Z" fill="black"/>
</g>
<defs>
<clipPath id="clip0_640_1042">
<rect width="225.93" height="70.0542" fill="white" transform="translate(0.199829)"/>
</clipPath>
</defs>
</svg>
