<svg width="273" height="75" viewBox="0 0 273 75" fill="none" xmlns="http://www.w3.org/2000/svg">
<g clip-path="url(#clip0_10_30)">
<path d="M89.3038 6.36612C89.3038 3.05498 89.3038 2.49344 89.3038 1.78668C89.3038 1.07992 89.0714 0.721694 88.3453 0.576469C88.1095 0.52901 87.8694 0.506297 87.6289 0.508697C87.5417 0.508697 87.4546 0.508697 87.4546 0.382835C87.4546 0.256973 87.5611 0.218246 87.7934 0.218246C88.2872 0.218246 88.8584 0.218246 89.3232 0.218246H90.1945C90.6205 0.218246 94.9289 0.218246 95.4129 0.218246C95.7379 0.226238 96.0628 0.197003 96.3811 0.131111C96.507 0.131111 96.5941 0.00524902 96.6716 0.00524902C96.749 0.00524902 96.8071 0.0923842 96.8071 0.198883C96.8071 0.305381 96.7006 0.595832 96.6328 1.16705C96.6328 1.38005 96.5747 2.30949 96.5263 2.5709C96.5263 2.66771 96.4682 2.80326 96.3617 2.80326C96.2552 2.80326 96.2068 2.69676 96.2068 2.54185C96.1956 2.26388 96.1298 1.99084 96.0132 1.73827C95.8518 1.51032 95.634 1.32808 95.3812 1.20931C95.1284 1.09054 94.8491 1.03929 94.5706 1.06055L91.3079 0.992782C91.182 0.992782 91.1143 1.06055 91.1143 1.22514V7.16002C91.1143 7.28588 91.1143 7.34397 91.2595 7.34397H93.98C94.3383 7.34397 94.6384 7.34397 94.9482 7.34397C95.4517 7.34397 95.7324 7.23747 95.9164 6.9567C95.9938 6.85021 96.0616 6.75339 96.1487 6.75339C96.2359 6.75339 96.2552 6.81148 96.2552 6.91798C96.2552 7.02448 96.1487 7.40206 96.081 8.10883C96.081 8.53482 95.9938 9.37713 95.9938 9.53203C95.9938 9.68694 95.9938 9.92898 95.8486 9.92898C95.7034 9.92898 95.7034 9.85153 95.7034 9.74503C95.6832 9.48628 95.6378 9.23011 95.5678 8.98018C95.4739 8.76217 95.3206 8.57491 95.1255 8.4397C94.9304 8.30448 94.7012 8.22675 94.4641 8.21532C93.9413 8.14755 91.6274 8.14755 91.2595 8.14755C91.153 8.14755 91.1143 8.19596 91.1143 8.34119V10.142C91.1143 12.1848 91.1143 13.8598 91.2208 14.7505C91.2885 15.3701 91.4144 15.8348 92.0534 15.922C92.3438 15.922 92.8086 15.9994 93.0216 15.9994C93.2346 15.9994 93.1958 16.0672 93.1958 16.135C93.1958 16.2027 93.0893 16.2995 92.857 16.2995C91.6855 16.2995 90.3494 16.2414 90.2429 16.2414C90.1364 16.2414 88.8003 16.2995 88.1613 16.2995C87.929 16.2995 87.8225 16.2995 87.8225 16.135C87.8225 15.9704 87.8225 15.9994 87.9968 15.9994C88.2084 15.9927 88.4191 15.9668 88.6261 15.922C89.0521 15.8348 89.1586 15.3701 89.2457 14.7505C89.3522 13.8598 89.3522 12.1848 89.3522 10.142L89.3038 6.36612Z" fill="white"/>
<path d="M103.527 2.94846C103.759 2.3482 103.846 2.2417 103.972 2.2417C104.098 2.2417 104.224 2.49342 104.417 2.90005C104.756 3.66491 107.748 11.1198 108.9 13.8597C109.578 15.4669 110.081 15.6993 110.488 15.7961C110.731 15.8616 110.981 15.8942 111.233 15.8929C111.34 15.8929 111.466 15.8929 111.466 16.0478C111.466 16.2027 111.253 16.193 111.04 16.193C110.827 16.193 109.384 16.193 108.135 16.193C107.777 16.193 107.477 16.193 107.477 16.0672C107.477 15.9413 107.525 15.98 107.603 15.9316C107.649 15.9157 107.692 15.8894 107.727 15.8548C107.762 15.8201 107.789 15.778 107.806 15.7315C107.823 15.685 107.829 15.6353 107.824 15.5862C107.819 15.537 107.803 15.4896 107.777 15.4475L106.102 11.3134C106.053 11.2263 106.034 11.2069 105.928 11.2069H101.619C101.532 11.2069 101.474 11.2069 101.426 11.3522L100.37 14.2567C100.208 14.641 100.113 15.0504 100.09 15.4669C100.09 15.8251 100.409 15.951 100.729 15.951H100.903C101.048 15.951 101.087 16.0187 101.087 16.1059C101.087 16.193 100.98 16.2511 100.816 16.2511C100.37 16.2511 99.3441 16.193 99.1408 16.193C98.9374 16.193 98.008 16.2511 97.2044 16.2511C96.9721 16.2511 96.8462 16.2511 96.8462 16.1059C96.851 16.0631 96.8714 16.0236 96.9036 15.995C96.9358 15.9664 96.9774 15.9507 97.0205 15.951H97.5723C98.4146 15.8445 98.7825 15.2055 99.1408 14.2954L103.527 2.94846ZM105.608 10.4615C105.686 10.4615 105.686 10.4615 105.666 10.3356L103.817 5.38825C103.72 5.10748 103.614 5.10748 103.507 5.38825L101.764 10.3356C101.764 10.413 101.764 10.4615 101.823 10.4615H105.608Z" fill="white"/>
<path d="M128.398 13.9469C128.466 14.5859 128.592 15.5637 129.367 15.8155C129.758 15.9373 130.167 15.9961 130.577 15.9897C130.664 15.9897 130.722 15.9897 130.722 16.1156C130.722 16.2415 130.557 16.2802 130.344 16.2802C129.918 16.2802 127.837 16.2802 127.159 16.2027C126.714 16.1543 126.627 16.0962 126.627 16.0091C126.628 15.9743 126.642 15.941 126.664 15.9146C126.687 15.8883 126.718 15.8704 126.753 15.8639C126.859 15.8639 126.878 15.5637 126.84 15.2249L125.949 6.05632L121.447 15.2636C121.06 16.0478 120.953 16.2318 120.789 16.2318C120.624 16.2318 120.508 16.0575 120.15 15.3991C119.666 14.5084 118.426 12.1945 117.962 11.2167C117.41 10.0742 115.899 7.03417 115.59 6.29836H115.502L114.776 14.4503C114.776 14.7214 114.776 15.0603 114.776 15.3604C114.777 15.485 114.823 15.6051 114.904 15.6992C114.986 15.7933 115.098 15.8551 115.222 15.8736C115.459 15.934 115.703 15.9697 115.948 15.9801C116.006 15.9801 116.093 16.0381 116.093 16.1059C116.093 16.1737 115.967 16.2705 115.754 16.2705C115.057 16.2705 114.157 16.2124 114.011 16.2124C113.866 16.2124 112.956 16.2705 112.443 16.2705C112.249 16.2705 112.124 16.2705 112.124 16.1059C112.124 15.9413 112.211 15.9801 112.317 15.9801C112.502 15.9688 112.687 15.9461 112.869 15.9123C113.479 15.8058 113.498 15.1474 113.585 14.4697L114.951 2.68709C114.951 2.49345 115.057 2.36759 115.164 2.36759C115.246 2.37252 115.325 2.4006 115.392 2.44857C115.458 2.49655 115.51 2.56246 115.541 2.63868L121.186 13.8501L126.559 2.65804C126.636 2.48377 126.724 2.35791 126.849 2.35791C126.975 2.35791 127.082 2.50314 127.13 2.84199L128.398 13.9469Z" fill="white"/>
<path d="M135.728 11.023C135.728 12.756 135.728 14.1793 135.805 14.8957C135.873 15.4282 135.941 15.767 136.493 15.8639C136.772 15.9042 137.053 15.93 137.335 15.9413C137.376 15.9413 137.415 15.9576 137.444 15.9867C137.473 16.0157 137.49 16.0551 137.49 16.0962C137.49 16.1834 137.403 16.2415 137.19 16.2415C136.144 16.2415 134.934 16.1834 134.856 16.1834C134.779 16.1834 133.578 16.2415 133.007 16.2415C132.814 16.2415 132.707 16.2415 132.707 16.0962C132.707 16.0551 132.723 16.0157 132.752 15.9867C132.781 15.9576 132.821 15.9413 132.862 15.9413C133.054 15.9339 133.246 15.908 133.433 15.8639C133.791 15.7767 133.859 15.4379 133.917 14.8957C134.004 14.1502 134.024 12.727 134.024 11.023V7.83774C134.024 5.03005 134.024 4.5266 134.024 3.96506C134.024 3.40353 133.83 3.07435 133.423 2.99689C133.235 2.96256 133.044 2.94314 132.852 2.9388C132.814 2.93651 132.779 2.92047 132.752 2.89372C132.725 2.86696 132.709 2.83134 132.707 2.79358C132.707 2.68708 132.794 2.63867 133.007 2.63867C133.617 2.63867 134.789 2.68708 134.895 2.68708C135.002 2.68708 136.183 2.63867 136.764 2.63867C136.977 2.63867 137.054 2.68708 137.054 2.79358C137.048 2.83005 137.031 2.86376 137.005 2.88986C136.979 2.91596 136.945 2.9331 136.909 2.9388C136.754 2.92287 136.599 2.92287 136.444 2.9388C135.931 3.0453 135.825 3.30671 135.786 3.90697C135.747 4.50724 135.786 4.99132 135.786 7.77965L135.728 11.023Z" fill="white"/>
<path d="M143.56 11.0618C143.56 13.7145 143.56 14.7989 143.938 15.1184C144.315 15.4379 144.954 15.5444 146.426 15.5444C147.394 15.5444 148.227 15.5444 148.672 14.9925C148.907 14.695 149.061 14.3413 149.117 13.9663C149.117 13.8404 149.205 13.7339 149.311 13.7339C149.418 13.7339 149.437 13.821 149.437 14.0147C149.394 14.6217 149.3 15.2241 149.156 15.8155C149.03 16.2415 148.972 16.3092 147.975 16.3092C146.639 16.3092 145.593 16.3092 144.722 16.2415C143.851 16.1737 143.241 16.2415 142.689 16.2415C142.602 16.2415 142.282 16.2415 141.924 16.2415C141.566 16.2415 141.14 16.2415 140.84 16.2415C140.539 16.2415 140.539 16.2415 140.539 16.0962C140.539 16.0552 140.556 16.0158 140.585 15.9867C140.614 15.9577 140.653 15.9413 140.694 15.9413C140.887 15.934 141.078 15.908 141.266 15.8639C141.624 15.7767 141.663 15.4379 141.75 14.8957C141.853 13.6076 141.889 12.3149 141.856 11.023V7.83776C141.856 5.03007 141.856 4.52662 141.856 3.96508C141.856 3.40354 141.701 3.055 141.091 2.99691C140.946 2.99691 140.627 2.99691 140.452 2.99691C140.416 2.9912 140.382 2.97406 140.356 2.94796C140.33 2.92186 140.313 2.88815 140.307 2.85168C140.307 2.74519 140.385 2.69678 140.598 2.69678C141.45 2.69678 142.621 2.74519 142.728 2.74519C142.834 2.74519 144.209 2.69678 144.78 2.69678C144.974 2.69678 145.08 2.74519 145.08 2.85168C145.08 2.95818 144.993 2.97755 144.935 2.97755L144.257 2.9485C143.705 3.055 143.599 3.33577 143.56 3.96508C143.521 4.59439 143.56 5.04943 143.56 7.83776V11.0618Z" fill="white"/>
<path d="M154.907 11.023C154.907 12.756 154.907 14.1792 154.994 14.8957C155.062 15.4282 155.12 15.767 155.672 15.8638C155.954 15.9042 156.239 15.93 156.524 15.9413C156.544 15.9412 156.564 15.9453 156.582 15.9532C156.6 15.9611 156.617 15.9727 156.63 15.9872C156.644 16.0017 156.654 16.0189 156.661 16.0376C156.668 16.0564 156.671 16.0763 156.669 16.0962C156.669 16.1833 156.592 16.2414 156.379 16.2414C155.333 16.2414 154.123 16.1833 154.045 16.1833C153.968 16.1833 152.767 16.2414 152.196 16.2414C152.003 16.2414 151.896 16.2414 151.896 16.0962C151.895 16.0763 151.898 16.0564 151.904 16.0376C151.911 16.0189 151.921 16.0017 151.935 15.9872C151.949 15.9727 151.965 15.9611 151.983 15.9532C152.002 15.9453 152.021 15.9412 152.041 15.9413C152.237 15.9345 152.432 15.9086 152.622 15.8638C152.98 15.7767 153.039 15.4378 153.106 14.8957C153.193 14.1502 153.213 12.727 153.213 11.023V7.8377C153.213 5.03001 153.213 4.52656 153.213 3.96503C153.213 3.40349 153.019 3.07431 152.613 2.99686C152.411 2.96368 152.207 2.94748 152.003 2.94845C151.965 2.94615 151.929 2.93012 151.902 2.90336C151.876 2.87661 151.86 2.84099 151.857 2.80322C151.857 2.69672 151.935 2.64832 152.148 2.64832C152.767 2.64832 153.939 2.69672 154.084 2.69672C154.229 2.69672 155.372 2.64832 155.943 2.64832C156.156 2.64832 156.243 2.69672 156.243 2.80322C156.236 2.83913 156.219 2.87212 156.193 2.89799C156.167 2.92386 156.134 2.94143 156.098 2.94845C155.943 2.93252 155.788 2.93252 155.633 2.94845C155.12 3.05495 155.014 3.31635 154.975 3.91662C154.936 4.51688 154.975 5.00097 154.975 7.78929L154.907 11.023Z" fill="white"/>
<path d="M161.045 7.83772C161.045 5.03003 161.045 4.52658 161.045 3.96504C161.045 3.4035 160.89 3.05496 160.28 2.99687C160.125 2.99687 159.806 2.99687 159.641 2.99687C159.604 2.99164 159.568 2.97487 159.541 2.94887C159.513 2.92286 159.494 2.88889 159.486 2.85165C159.486 2.74515 159.573 2.69674 159.786 2.69674C160.638 2.69674 161.849 2.74515 161.955 2.74515C162.062 2.74515 165.983 2.74515 166.409 2.74515C166.835 2.74515 167.116 2.65801 167.261 2.63865C167.406 2.61929 167.435 2.55151 167.512 2.55151C167.59 2.55151 167.6 2.63865 167.6 2.7161C167.6 2.79356 167.493 3.06464 167.454 3.56809C167.454 3.74236 167.387 4.53626 167.348 4.75894C167.309 4.98162 167.261 4.95257 167.174 4.95257C167.086 4.95257 167.028 4.86544 167.028 4.72021C167.029 4.50275 166.993 4.28673 166.922 4.08122C166.796 3.78109 166.602 3.65523 165.586 3.52936C165.266 3.52936 163.098 3.46159 162.885 3.46159C162.672 3.46159 162.778 3.52936 162.778 3.65523V8.46703C162.778 8.60257 162.778 8.66066 162.885 8.66066C162.991 8.66066 165.586 8.66066 166.012 8.66066C166.438 8.66066 166.728 8.59289 166.922 8.40894C167.116 8.22499 167.135 8.1669 167.193 8.1669C167.251 8.1669 167.299 8.2153 167.299 8.3218C167.233 8.64163 167.185 8.96484 167.154 9.28997C167.154 9.64819 167.067 10.3259 167.067 10.4518C167.067 10.5776 167.067 10.7906 166.903 10.7906C166.738 10.7906 166.777 10.7325 166.777 10.626C166.787 10.4254 166.757 10.2247 166.69 10.0355C166.622 9.77406 166.457 9.56106 165.721 9.47392C165.218 9.41583 163.214 9.39647 162.904 9.39647C162.797 9.39647 162.768 9.45456 162.768 9.52233V11.0327C162.768 11.6426 162.768 13.7436 162.768 14.1115C162.768 15.3217 163.156 15.554 165.005 15.554C165.634 15.5851 166.264 15.5198 166.873 15.3604C167.12 15.2568 167.331 15.0834 167.481 14.8616C167.631 14.6397 167.712 14.379 167.716 14.1115C167.764 13.8985 167.803 13.8307 167.909 13.8307C168.016 13.8307 168.035 13.9759 168.035 14.1115C167.986 14.6936 167.902 15.2724 167.784 15.8445C167.658 16.3189 167.464 16.3189 166.738 16.3189C165.344 16.3189 164.259 16.2705 163.495 16.2511C162.73 16.2317 162.217 16.2511 161.945 16.2511C161.897 16.2511 161.539 16.2511 161.142 16.2511C160.745 16.2511 160.348 16.2511 160.058 16.2511C159.767 16.2511 159.757 16.2511 159.757 16.1059C159.756 16.086 159.759 16.0661 159.766 16.0473C159.772 16.0286 159.783 16.0114 159.796 15.9969C159.81 15.9823 159.826 15.9708 159.845 15.9629C159.863 15.955 159.883 15.9509 159.903 15.951C160.077 15.951 160.309 15.8929 160.484 15.8735C160.842 15.8058 160.88 15.4475 160.968 14.9054C161.071 13.6172 161.107 12.3245 161.074 11.0327L161.045 7.83772Z" fill="white"/>
<path d="M173.525 13.8017C173.573 15.283 173.738 15.738 174.251 15.8639C174.57 15.9286 174.894 15.961 175.219 15.9607C175.26 15.9607 175.3 15.977 175.329 16.0061C175.358 16.0351 175.374 16.0745 175.374 16.1156C175.374 16.2221 175.238 16.2608 175.025 16.2608C173.97 16.2608 173.225 16.2027 173.089 16.2027C172.954 16.2027 172.121 16.2608 171.279 16.2608C171.085 16.2608 170.979 16.2608 170.979 16.1156C170.979 16.0745 170.995 16.0351 171.024 16.0061C171.053 15.977 171.092 15.9607 171.133 15.9607C171.391 15.9588 171.648 15.9263 171.898 15.8639C172.363 15.7283 172.431 15.2442 172.431 13.608V3.26799C172.431 2.55154 172.528 2.35791 172.682 2.35791C172.837 2.35791 173.215 2.71613 173.399 2.90977C173.583 3.1034 176.42 6.09504 179.305 9.06732C181.154 11.0037 183.177 13.124 183.72 13.7145L183.526 4.67183C183.526 3.50035 183.4 3.1034 182.829 2.9969C182.528 2.94287 182.224 2.91372 181.919 2.90977C181.897 2.90994 181.875 2.90539 181.855 2.89642C181.835 2.88746 181.816 2.87428 181.802 2.85778C181.787 2.84128 181.776 2.82183 181.77 2.80074C181.763 2.77965 181.761 2.7574 181.764 2.7355C181.764 2.629 181.919 2.60963 182.132 2.60963C182.974 2.60963 183.865 2.65804 184.068 2.65804C184.271 2.65804 184.901 2.60963 185.666 2.60963C185.859 2.60963 186.004 2.60963 186.004 2.7355C185.995 2.78504 185.969 2.82974 185.93 2.86165C185.891 2.89356 185.842 2.91061 185.791 2.90977C185.643 2.89539 185.494 2.89539 185.346 2.90977C184.727 3.04531 184.688 3.40353 184.688 4.48788V15.0603C184.688 16.2415 184.688 16.348 184.533 16.348C184.378 16.348 184.155 16.2027 183.11 15.2442C182.926 15.0797 180.205 12.4269 178.269 10.4034C176.11 8.1282 173.999 5.92077 173.428 5.29146L173.525 13.8017Z" fill="white"/>
<path d="M108.319 64.9113C108.319 61.6002 108.319 61.0386 108.319 60.3222C108.319 59.6058 108.106 59.2572 107.351 59.112C107.114 59.0689 106.875 59.0462 106.634 59.0442C106.547 59.0442 106.46 59.0442 106.46 58.9184C106.46 58.7925 106.566 58.7538 106.799 58.7538C107.293 58.7538 107.864 58.7538 108.329 58.7538H109.2C109.626 58.7538 113.934 58.7538 114.428 58.7538C114.753 58.762 115.078 58.7328 115.396 58.6666C115.522 58.6666 115.609 58.5408 115.696 58.5408C115.783 58.5408 115.822 58.6279 115.822 58.7344C115.822 58.8409 115.716 59.141 115.648 59.7026C115.648 59.9156 115.59 60.845 115.541 61.1064C115.541 61.2129 115.483 61.3388 115.377 61.3388C115.27 61.3388 115.232 61.2323 115.232 61.0871C115.216 60.8066 115.15 60.5313 115.038 60.2738C114.876 60.0465 114.658 59.8648 114.405 59.7461C114.153 59.6274 113.874 59.5758 113.595 59.5961L110.323 59.538C110.197 59.538 110.129 59.5961 110.129 59.7703V65.5794C110.129 65.7052 110.129 65.773 110.284 65.773H112.995C113.363 65.773 113.653 65.773 113.963 65.773C114.476 65.773 114.747 65.6665 114.931 65.3954C115.019 65.2889 115.077 65.1824 115.164 65.1824C115.251 65.1824 115.27 65.2405 115.27 65.347C115.27 65.4535 115.164 65.8408 115.096 66.5379C115.096 66.9638 115.019 67.8158 115.019 67.9611C115.019 68.1063 115.019 68.3677 114.864 68.3677C114.709 68.3677 114.718 68.2806 114.718 68.1741C114.707 67.9151 114.664 67.6583 114.593 67.4092C114.497 67.1925 114.343 67.0065 114.148 66.8715C113.954 66.7366 113.725 66.658 113.489 66.6444C112.956 66.5766 110.642 66.5766 110.284 66.5766C110.178 66.5766 110.129 66.5766 110.129 66.7702V68.5807C110.129 70.6138 110.129 72.2888 110.236 73.1795C110.304 73.7991 110.429 74.2638 111.068 74.351C111.359 74.351 111.833 74.4381 112.037 74.4381C112.24 74.4381 112.211 74.4962 112.211 74.564C112.211 74.6317 112.104 74.7286 111.872 74.7286C110.701 74.7286 109.364 74.6705 109.258 74.6705C109.151 74.6705 107.815 74.7286 107.176 74.7286C106.944 74.7286 106.838 74.7286 106.838 74.564C106.838 74.3994 106.838 74.4381 107.012 74.4381C107.227 74.4281 107.441 74.399 107.651 74.351C108.067 74.2638 108.174 73.7991 108.261 73.1795C108.367 72.2888 108.367 70.6138 108.367 68.5807L108.319 64.9113Z" fill="white"/>
<path d="M125.688 60.8547C129.89 60.8547 133.075 63.43 133.075 67.6318C133.093 68.615 132.91 69.5914 132.538 70.5016C132.166 71.4118 131.612 72.2367 130.911 72.9261C130.21 73.6155 129.376 74.1548 128.46 74.5113C127.543 74.8678 126.564 75.0339 125.581 74.9996C124.625 75.0535 123.668 74.9085 122.771 74.5738C121.874 74.2391 121.056 73.7219 120.369 73.0549C119.682 72.3879 119.141 71.5857 118.78 70.6989C118.419 69.8121 118.246 68.8601 118.272 67.9029C118.285 66.9499 118.489 66.0093 118.871 65.1361C119.253 64.263 119.806 63.475 120.497 62.8184C121.188 62.1619 122.003 61.6499 122.894 61.3127C123.785 60.9755 124.735 60.8197 125.688 60.8547M126.104 74.2541C127.789 74.2541 131.158 73.3634 131.158 68.1353C131.158 63.8076 128.524 61.5324 125.581 61.5324C122.454 61.5324 120.208 63.4687 120.208 67.4188C120.208 71.6207 122.735 74.2541 126.104 74.2541" fill="white"/>
<path d="M137.761 72.2984C137.761 73.7894 137.974 74.2347 138.477 74.3606C138.795 74.4321 139.12 74.4678 139.445 74.4671C139.465 74.4656 139.484 74.4684 139.502 74.4752C139.521 74.482 139.537 74.4926 139.551 74.5064C139.565 74.5202 139.576 74.5368 139.582 74.5551C139.589 74.5733 139.592 74.5929 139.59 74.6123C139.59 74.7188 139.465 74.7575 139.252 74.7575C138.196 74.7575 137.451 74.6994 137.315 74.6994C137.18 74.6994 136.347 74.7575 135.514 74.7575C135.321 74.7575 135.214 74.7575 135.214 74.6123C135.214 74.5924 135.218 74.5727 135.226 74.5544C135.234 74.5361 135.246 74.5196 135.26 74.506C135.275 74.4924 135.292 74.4819 135.311 74.4752C135.329 74.4685 135.349 74.4657 135.369 74.4671C135.628 74.4658 135.885 74.43 136.134 74.3606C136.599 74.2347 136.657 73.7409 136.657 72.1047V61.7744C136.657 61.0482 136.763 60.8546 136.918 60.8546C137.073 60.8546 137.441 61.2225 137.635 61.4065C137.828 61.5904 140.655 64.5917 143.541 67.564C145.39 69.5004 147.413 71.6207 147.955 72.2112L147.762 63.1685C147.762 62.0067 147.636 61.6001 147.065 61.4936C146.764 61.4396 146.46 61.4104 146.155 61.4065C146.133 61.4081 146.111 61.4049 146.091 61.3971C146.071 61.3892 146.053 61.377 146.038 61.3612C146.023 61.3454 146.012 61.3265 146.005 61.3059C145.999 61.2852 145.997 61.2634 146 61.2419C146 61.1354 146.155 61.116 146.358 61.116C147.21 61.116 148.101 61.116 148.294 61.116C148.488 61.116 149.127 61.116 149.892 61.116C150.076 61.116 150.231 61.116 150.231 61.2419C150.22 61.2896 150.192 61.3321 150.153 61.3621C150.115 61.3921 150.067 61.4077 150.018 61.4065C149.87 61.3885 149.72 61.3885 149.572 61.4065C148.953 61.5323 148.914 61.8906 148.914 62.9749V73.5473C148.914 74.7382 148.914 74.8447 148.769 74.8447C148.623 74.8447 148.391 74.6898 147.346 73.7409C147.152 73.5667 144.441 70.9139 142.505 68.9001C140.336 66.6346 138.235 64.4272 137.664 63.7882L137.761 72.2984Z" fill="white"/>
<path d="M154.229 66.3344C154.229 63.5364 154.229 63.0233 154.229 62.4618C154.229 61.9002 154.074 61.542 153.464 61.4936C153.252 61.4829 153.038 61.4829 152.825 61.4936C152.788 61.4894 152.754 61.4728 152.727 61.4464C152.701 61.42 152.684 61.3855 152.68 61.3484C152.68 61.2419 152.758 61.2031 152.971 61.2031C153.823 61.2031 155.033 61.2031 155.139 61.2031C155.246 61.2031 156.543 61.2031 157.647 61.2031C159.515 61.2031 162.933 61.0289 165.141 63.2557C165.734 63.861 166.201 64.5787 166.513 65.3667C166.826 66.1548 166.978 66.9972 166.961 67.8448C166.981 69.7346 166.258 71.5566 164.947 72.918C164.2 73.64 163.31 74.1981 162.335 74.5566C161.359 74.915 160.32 75.0659 159.283 74.9996C158.47 74.9996 157.473 74.9318 156.669 74.8931C155.865 74.8543 155.226 74.7866 155.139 74.7866C155.052 74.7866 154.762 74.7866 154.374 74.7866C153.987 74.7866 153.552 74.7866 153.251 74.7866C152.951 74.7866 152.951 74.7866 152.951 74.6413C152.954 74.602 152.971 74.565 153 74.538C153.029 74.511 153.067 74.496 153.106 74.4961C153.299 74.4853 153.49 74.4561 153.677 74.409C154.036 74.3218 154.074 73.983 154.161 73.4408C154.265 72.1527 154.301 70.86 154.268 69.5681L154.229 66.3344ZM155.933 68.2708C155.933 70.2071 155.933 71.853 155.933 72.1919C155.916 72.6343 155.988 73.0756 156.146 73.4892C156.379 73.8281 157.037 74.2153 159.244 74.2153C160.857 74.258 162.423 73.6791 163.62 72.5985C164.64 71.4091 165.163 69.8737 165.082 68.3095C165.105 67.4764 164.961 66.6472 164.659 65.8707C164.356 65.0942 163.901 64.3861 163.32 63.7882C161.558 62.0067 159.448 61.7744 157.269 61.7744C156.891 61.7713 156.514 61.8136 156.146 61.9002C155.972 61.9583 155.914 62.0455 155.914 62.2585L155.933 68.2708Z" fill="white"/>
<path d="M24.0882 40.494C24.0882 43.8439 24.0882 46.5935 24.2625 48.0651C24.369 49.0333 24.582 49.8369 25.6276 50.0015C26.1477 50.0734 26.6712 50.1186 27.196 50.137C27.3993 50.137 27.4768 50.2435 27.4768 50.35C27.4768 50.4565 27.3025 50.6308 26.9153 50.6308C24.9789 50.6308 22.8005 50.5243 22.6263 50.5243C22.452 50.5243 20.2543 50.6308 19.2086 50.6308C18.831 50.6308 18.6568 50.5533 18.6568 50.35C18.6568 50.1467 18.7245 50.137 18.9279 50.137C19.28 50.1259 19.6302 50.0805 19.9735 50.0015C20.6706 49.8562 20.8448 49.0914 20.9901 48.0651C21.1643 46.5935 21.1643 43.8439 21.1643 40.494V36.8344C21.1644 36.8068 21.1588 36.7796 21.148 36.7543C21.1372 36.7289 21.1213 36.7061 21.1014 36.6871C21.0815 36.6681 21.0579 36.6533 21.0321 36.6437C21.0063 36.634 20.9788 36.6297 20.9513 36.6311H6.16739C6.13956 36.6259 6.11087 36.6275 6.08382 36.6359C6.05677 36.6443 6.03217 36.6591 6.01215 36.6791C5.99213 36.6992 5.97729 36.7238 5.96891 36.7508C5.96053 36.7779 5.95887 36.8065 5.96407 36.8344V40.494C5.96407 43.8439 5.96407 46.5935 6.13835 48.0651C6.24484 49.0333 6.44816 49.8369 7.49378 50.0015C7.98755 50.0692 8.7524 50.137 9.06222 50.137C9.37203 50.137 9.34298 50.2435 9.34298 50.35C9.34298 50.4565 9.16871 50.6308 8.78145 50.6308C6.84511 50.6308 4.67641 50.5243 4.50214 50.5243C4.32787 50.5243 2.13012 50.6308 1.0845 50.6308C0.697234 50.6308 0.522964 50.5533 0.522964 50.35C0.522964 50.1467 0.590736 50.137 0.803733 50.137C1.15575 50.1247 1.50583 50.0793 1.84936 50.0015C2.54644 49.8562 2.72071 49.0914 2.81752 48.0651C2.9918 46.5935 2.9918 43.8439 2.9918 40.494V34.3559C2.9918 28.9244 2.9918 27.9466 2.92402 26.8332C2.85625 25.7198 2.57548 25.0905 1.42336 24.8388C1.03327 24.7717 0.638002 24.7393 0.242195 24.7419C0.0969694 24.7419 -0.0385742 24.6645 -0.0385742 24.5289C-0.0385742 24.3934 0.174423 24.2482 0.561691 24.2482C2.13012 24.2482 4.32787 24.3547 4.50214 24.3547C4.67641 24.3547 6.86447 24.2482 7.91978 24.2482C8.29736 24.2482 8.47163 24.3159 8.47163 24.5289C8.47163 24.7419 8.33609 24.7419 8.19086 24.7419C7.89821 24.7497 7.60673 24.7821 7.31951 24.8388C6.35134 25.013 6.09962 25.6133 6.03185 26.8332C5.96407 28.0531 5.96407 28.9244 5.96407 34.3559V35.0917C5.95936 35.1199 5.96128 35.1487 5.96967 35.1761C5.97807 35.2034 5.99271 35.2284 6.01244 35.249C6.03217 35.2697 6.05645 35.2855 6.08335 35.2951C6.11024 35.3048 6.13902 35.3081 6.16739 35.3047H20.9513C20.9804 35.3098 21.0103 35.3078 21.0385 35.2989C21.0667 35.29 21.0923 35.2745 21.1132 35.2536C21.1341 35.2327 21.1497 35.207 21.1586 35.1789C21.1675 35.1507 21.1694 35.1208 21.1643 35.0917V34.3559C21.1643 28.9244 21.1643 27.9466 21.0966 26.8332C21.0288 25.7198 20.748 25.0905 19.5959 24.8388C19.2026 24.7715 18.8041 24.7391 18.405 24.7419C18.3732 24.746 18.3409 24.7437 18.31 24.7351C18.2791 24.7266 18.2502 24.712 18.2249 24.6922C18.1997 24.6723 18.1787 24.6477 18.1631 24.6197C18.1474 24.5917 18.1376 24.5608 18.134 24.5289C18.134 24.3159 18.3082 24.2482 18.6858 24.2482C20.2543 24.2482 22.452 24.3547 22.6263 24.3547C22.8005 24.3547 24.9983 24.2482 26.0439 24.2482C26.4312 24.2482 26.6054 24.3159 26.6054 24.5289C26.6054 24.7419 26.4602 24.7419 26.3247 24.7419C26.032 24.7497 25.7405 24.7821 25.4533 24.8388C24.4852 25.013 24.2334 25.6133 24.1657 26.8332C24.0979 28.0531 24.0882 28.9244 24.0882 34.3559V40.494Z" fill="white"/>
<path d="M35.7059 36.7666C35.7059 32.1678 35.7059 31.3255 35.6381 30.3864C35.5703 29.4473 35.396 28.8857 34.3795 28.7502C34.0328 28.7037 33.6836 28.6779 33.3338 28.6728C33.2731 28.6632 33.2169 28.6347 33.1734 28.5912C33.1299 28.5477 33.1013 28.4915 33.0918 28.4307C33.0918 28.2564 33.2273 28.1887 33.5759 28.1887C34.9797 28.1887 36.9645 28.2564 37.1387 28.2564C37.313 28.2564 43.761 28.2564 44.4581 28.2564C44.9251 28.2383 45.3906 28.1931 45.8523 28.1209C45.9975 28.1209 46.133 27.9854 46.2686 27.9854C46.4041 27.9854 46.4138 28.1209 46.4138 28.2661C46.4138 28.4113 46.2395 28.818 46.1621 29.6603C46.1621 29.9314 46.0653 31.2578 45.9975 31.5966C45.9975 31.7418 45.8523 31.9161 45.7167 31.9161C45.5812 31.9161 45.465 31.7709 45.465 31.5289C45.467 31.1729 45.4081 30.8193 45.2907 30.4832C45.0874 29.9991 44.7679 29.7861 43.1027 29.5731C42.5799 29.5054 39.017 29.4763 38.6684 29.4763C38.5329 29.4763 38.4942 29.5731 38.4942 29.7861V37.8026C38.4942 38.0156 38.4942 38.1124 38.6684 38.1124C39.0557 38.1124 43.1027 38.1124 43.7997 38.0446C44.4968 37.9769 44.9809 37.9381 45.2907 37.6283C45.6005 37.3185 45.6393 37.241 45.7458 37.241C45.8523 37.241 45.92 37.3088 45.92 37.4928C45.8106 38.0335 45.7298 38.5797 45.678 39.129C45.6102 39.7196 45.5425 40.833 45.5425 41.0653C45.5425 41.2977 45.465 41.6172 45.2617 41.6172C45.0584 41.6172 45.0487 41.5204 45.0487 41.3461C45.063 41.0178 45.017 40.6897 44.9131 40.3779C44.8066 39.9616 44.5259 39.6131 43.3447 39.4678C42.5024 39.3613 39.23 39.3323 38.7072 39.3323C38.679 39.3276 38.6501 39.3295 38.6228 39.3379C38.5955 39.3463 38.5705 39.3609 38.5498 39.3807C38.5291 39.4004 38.5134 39.4247 38.5037 39.4516C38.494 39.4785 38.4908 39.5072 38.4942 39.5356V42.0141C38.4942 42.9823 38.4942 46.4774 38.4942 47.068C38.562 49.0527 39.1235 49.44 42.1539 49.44C43.1866 49.4906 44.2211 49.3862 45.223 49.1302C45.6328 48.9622 45.9838 48.6768 46.2318 48.3099C46.4799 47.9429 46.6139 47.5109 46.6171 47.068C46.6849 46.7194 46.7623 46.6129 46.9366 46.6129C47.1109 46.6129 47.1399 46.8647 47.1399 47.068C47.0602 48.0437 46.9212 49.0136 46.7236 49.9725C46.5203 50.747 46.2008 50.747 45.0196 50.747C42.7154 50.747 40.934 50.6792 39.685 50.6405C38.4361 50.6018 37.5938 50.5727 37.1387 50.5727C37.071 50.5727 36.4707 50.5727 35.8124 50.5727C35.154 50.5727 34.5247 50.6502 34.0309 50.6502C33.7211 50.6502 33.5468 50.5727 33.5468 50.3985C33.5468 50.3343 33.5723 50.2727 33.6177 50.2273C33.6631 50.1819 33.7247 50.1564 33.7889 50.1564C34.0696 50.1564 34.4569 50.0499 34.757 50.0209C35.3573 49.9144 35.4251 49.3238 35.5606 48.4524C35.732 46.3174 35.7902 44.1747 35.7349 42.0335L35.7059 36.7666Z" fill="white"/>
<path d="M54.9241 36.7667C54.9241 32.1679 54.9241 31.3256 54.8563 30.3864C54.7886 29.4473 54.6046 28.8858 53.5977 28.7502C53.251 28.7037 52.9019 28.6779 52.5521 28.6728C52.4913 28.6633 52.4351 28.6347 52.3916 28.5912C52.3481 28.5477 52.3196 28.4915 52.3101 28.4307C52.3101 28.2565 52.4456 28.1887 52.7941 28.1887C54.1883 28.1887 56.1731 28.2565 56.3473 28.2565C56.6959 28.2565 58.6516 28.1887 60.462 28.1887C63.5311 28.1887 69.1756 27.9079 72.7675 31.5676C73.7458 32.5588 74.5155 33.736 75.031 35.0298C75.5466 36.3236 75.7974 37.7076 75.7688 39.1C75.8095 42.2212 74.6201 45.2331 72.4577 47.4843C71.1313 48.8397 68.3817 50.9019 63.1536 50.9019C61.8272 50.9019 60.1813 50.7954 58.8646 50.7277C57.5479 50.6599 56.4926 50.5534 56.3473 50.5534C56.2021 50.5534 55.718 50.5534 55.0984 50.5534C54.4788 50.5534 53.7333 50.6308 53.2492 50.6308C52.9297 50.6308 52.7554 50.5534 52.7554 50.3791C52.7554 50.3465 52.762 50.3142 52.7747 50.2842C52.7875 50.2542 52.8062 50.2271 52.8297 50.2045C52.8532 50.1819 52.881 50.1642 52.9115 50.1527C52.942 50.1411 52.9746 50.1358 53.0071 50.1371C53.3338 50.1266 53.6583 50.0811 53.9753 50.0015C54.5659 49.8563 54.6337 49.3045 54.7789 48.4331C54.9503 46.298 55.0085 44.1554 54.9532 42.0141L54.9241 36.7667ZM57.7124 39.9713C57.7124 43.1082 57.7124 45.8675 57.7124 46.4193C57.7015 47.1469 57.8297 47.8698 58.09 48.5493C58.4773 49.1108 59.5616 49.7401 63.1826 49.7401C65.8346 49.8023 68.4082 48.8381 70.3664 47.0486C71.9736 45.548 72.7675 42.7306 72.7675 40.01C72.8044 38.6409 72.5663 37.2784 72.0674 36.0029C71.5686 34.7274 70.819 33.5649 69.863 32.5842C66.9585 29.6797 63.5892 29.273 59.9296 29.273C59.3109 29.2757 58.6943 29.3438 58.09 29.4763C57.9651 29.5105 57.8574 29.5899 57.7876 29.699C57.7178 29.8081 57.6911 29.9392 57.7124 30.0669V39.9713Z" fill="white"/>
<path d="M82.8172 36.7666C82.8172 32.1678 82.8172 31.3255 82.7494 30.3864C82.6816 29.4473 82.5074 28.8857 81.4908 28.7502C81.1441 28.7037 80.7949 28.6779 80.4452 28.6728C80.3844 28.6632 80.3282 28.6347 80.2847 28.5912C80.2412 28.5477 80.2126 28.4915 80.2031 28.4307C80.2031 28.2564 80.3387 28.1887 80.6872 28.1887C82.0814 28.1887 84.0758 28.2564 84.2501 28.2564C84.4243 28.2564 90.8724 28.2564 91.5694 28.2564C92.0299 28.2376 92.4889 28.1923 92.9442 28.1209C93.0798 28.1209 93.225 27.9854 93.3605 27.9854C93.4961 27.9854 93.5058 28.1209 93.5058 28.2661C93.5058 28.4113 93.3315 28.818 93.2541 29.6603C93.2541 29.9314 93.1476 31.2578 93.0798 31.5966C93.0798 31.7418 92.9442 31.9161 92.8087 31.9161C92.6731 31.9161 92.557 31.7709 92.557 31.5289C92.559 31.1729 92.5001 30.8193 92.3827 30.4832C92.1794 29.9991 91.8599 29.7861 90.185 29.5731C89.6621 29.5054 86.109 29.4763 85.7604 29.4763C85.6249 29.4763 85.5862 29.5731 85.5862 29.7861V37.8026C85.5862 38.0156 85.5862 38.1124 85.7604 38.1124C86.1477 38.1124 90.185 38.1124 90.882 38.0446C91.5791 37.9769 92.0729 37.9381 92.3827 37.6283C92.6925 37.3185 92.7312 37.241 92.8377 37.241C92.9442 37.241 93.012 37.3088 93.012 37.4928C92.9025 38.0335 92.8217 38.5797 92.77 39.129C92.7022 39.7196 92.6247 40.833 92.6247 41.0653C92.6247 41.2977 92.557 41.6172 92.3537 41.6172C92.1503 41.6172 92.1407 41.5204 92.1407 41.3461C92.155 41.0178 92.109 40.6897 92.0051 40.3779C91.8986 39.9616 91.6178 39.6131 90.4367 39.4678C89.5944 39.3613 86.322 39.3323 85.7991 39.3323C85.771 39.3276 85.7421 39.3295 85.7148 39.3379C85.6874 39.3463 85.6625 39.3609 85.6418 39.3807C85.6211 39.4004 85.6053 39.4247 85.5957 39.4516C85.586 39.4785 85.5828 39.5072 85.5862 39.5356V42.0141C85.5862 42.9823 85.5862 46.4774 85.5862 47.068C85.6539 49.0527 86.2155 49.44 89.2458 49.44C90.2786 49.4906 91.3131 49.3862 92.3149 49.1302C92.7247 48.9622 93.0757 48.6768 93.3238 48.3099C93.5719 47.9429 93.7059 47.5109 93.7091 47.068C93.7769 46.7194 93.8543 46.6129 94.0286 46.6129C94.2029 46.6129 94.2319 46.8647 94.2319 47.068C94.1522 48.0437 94.0132 49.0136 93.8156 49.9725C93.6026 50.747 93.2928 50.747 92.1019 50.747C89.8074 50.747 88.0259 50.6792 86.7673 50.6405C85.5087 50.6018 84.6761 50.5727 84.2307 50.5727C84.1533 50.5727 83.5627 50.5727 82.9043 50.5727C82.246 50.5727 81.6167 50.6502 81.1229 50.6502C80.8131 50.6502 80.6388 50.5727 80.6388 50.3985C80.6388 50.3343 80.6643 50.2727 80.7097 50.2273C80.7551 50.1819 80.8167 50.1564 80.8808 50.1564C81.1616 50.1564 81.5392 50.0499 81.849 50.0209C82.4396 49.9144 82.5171 49.3238 82.6526 48.4524C82.824 46.3174 82.8822 44.1747 82.8269 42.0335L82.8172 36.7666Z" fill="white"/>
<path d="M115.105 45.8673C115.173 48.7719 115.522 49.6335 116.471 49.9046C117.041 50.0423 117.626 50.1138 118.213 50.1176C118.388 50.1176 118.484 50.1854 118.484 50.3306C118.484 50.4758 118.281 50.6017 117.865 50.6017C115.87 50.6017 114.476 50.5049 114.166 50.5049C113.857 50.5049 112.385 50.6017 110.817 50.6017C110.468 50.6017 110.265 50.6017 110.265 50.3306C110.265 50.0595 110.361 50.1176 110.536 50.1176C111.021 50.1159 111.504 50.0442 111.969 49.9046C112.84 49.6626 113.014 48.6557 113.014 45.4801V25.5067C113.014 24.1416 113.111 23.764 113.392 23.764C113.673 23.764 114.263 24.5289 114.612 24.8774C115.135 25.468 120.334 31.0834 125.697 36.8343C129.154 40.5327 132.959 44.783 134.072 45.9351L133.685 28.2273C133.685 25.9618 133.404 25.1872 132.329 24.9065C131.793 24.8026 131.249 24.7443 130.703 24.7322C130.461 24.7322 130.422 24.6354 130.422 24.4902C130.422 24.3449 130.703 24.2481 131.119 24.2481C132.687 24.2481 134.362 24.3546 134.75 24.3546C135.137 24.3546 136.279 24.2481 137.712 24.2481C138.1 24.2481 138.342 24.2481 138.342 24.4902C138.342 24.7322 138.206 24.7322 137.954 24.7322C137.673 24.7284 137.393 24.7643 137.122 24.8387C135.97 25.0807 135.834 25.8553 135.834 27.9465L135.757 48.3749C135.757 50.6791 135.689 50.8534 135.447 50.8534C135.205 50.8534 134.75 50.4661 132.9 48.6169C132.523 48.2684 127.498 43.1468 123.8 39.1676C119.762 34.8108 115.822 30.4541 114.699 29.1664L115.105 45.8673Z" fill="white"/>
<path d="M149.175 41.9947C149.175 44.8992 149.175 47.1938 149.311 48.4137C149.417 49.285 149.524 49.8369 150.434 49.9821C150.896 50.0531 151.361 50.0984 151.828 50.1176C151.86 50.1163 151.892 50.1216 151.922 50.1333C151.952 50.1449 151.98 50.1627 152.002 50.1855C152.025 50.2082 152.043 50.2355 152.055 50.2655C152.066 50.2954 152.072 50.3275 152.07 50.3597C152.07 50.5049 151.935 50.6114 151.576 50.6114C149.873 50.6114 147.888 50.5049 147.704 50.5049C147.52 50.5049 145.613 50.6114 144.673 50.6114C144.364 50.6114 144.189 50.5339 144.189 50.3597C144.188 50.3275 144.193 50.2954 144.205 50.2655C144.217 50.2355 144.234 50.2082 144.257 50.1855C144.28 50.1627 144.307 50.1449 144.337 50.1333C144.367 50.1216 144.399 50.1163 144.431 50.1176C144.758 50.1079 145.083 50.0624 145.4 49.9821C145.99 49.8369 146.097 49.285 146.203 48.4137C146.339 47.1938 146.377 44.8508 146.377 41.9947V36.7666C146.377 32.1678 146.377 31.3255 146.31 30.3863C146.242 29.4472 145.99 28.9244 145.341 28.7792C145.022 28.7166 144.698 28.681 144.373 28.6727C144.309 28.6705 144.248 28.6445 144.201 28.5999C144.155 28.5552 144.126 28.4949 144.122 28.4306C144.122 28.2564 144.267 28.1886 144.615 28.1886C145.584 28.1886 147.52 28.2564 147.713 28.2564C147.907 28.2564 149.843 28.1886 150.783 28.1886C151.131 28.1886 151.276 28.2564 151.276 28.4306C151.265 28.4922 151.234 28.5486 151.189 28.592C151.144 28.6354 151.087 28.6636 151.025 28.6727C150.767 28.6666 150.511 28.6927 150.26 28.7501C149.427 28.9244 149.292 29.3407 149.185 30.3863C149.079 31.432 149.185 32.1678 149.185 36.7666L149.175 41.9947Z" fill="white"/>
<path d="M159.254 36.7666C159.254 32.1678 159.254 31.3255 159.186 30.3864C159.119 29.4473 158.944 28.8857 157.928 28.7502C157.581 28.7037 157.232 28.6779 156.882 28.6728C156.821 28.6632 156.765 28.6347 156.722 28.5912C156.678 28.5477 156.65 28.4915 156.64 28.4307C156.64 28.2564 156.776 28.1887 157.124 28.1887C158.518 28.1887 160.513 28.2564 160.687 28.2564C160.861 28.2564 167.309 28.2564 168.006 28.2564C168.483 28.2395 168.958 28.1942 169.43 28.1209C169.565 28.1209 169.71 27.9854 169.846 27.9854C169.982 27.9854 169.991 28.1209 169.991 28.2661C169.991 28.4113 169.817 28.818 169.739 29.6603C169.739 29.9314 169.643 31.2578 169.565 31.5966C169.565 31.7418 169.43 31.9161 169.294 31.9161C169.159 31.9161 169.042 31.7709 169.042 31.5289C169.044 31.1729 168.985 30.8193 168.868 30.4832C168.665 29.9991 168.345 29.7861 166.67 29.5731C166.157 29.5054 162.594 29.4763 162.246 29.4763C162.11 29.4763 162.072 29.5731 162.072 29.7861V37.8026C162.072 38.0156 162.072 38.1124 162.246 38.1124C162.633 38.1124 166.67 38.1124 167.367 38.0446C168.065 37.9769 168.558 37.9381 168.868 37.6283C169.178 37.3185 169.217 37.241 169.323 37.241C169.43 37.241 169.497 37.3088 169.497 37.4928C169.388 38.0335 169.307 38.5797 169.255 39.129C169.188 39.7196 169.12 40.833 169.12 41.0653C169.12 41.2977 169.042 41.6172 168.839 41.6172C168.636 41.6172 168.626 41.5204 168.626 41.3461C168.64 41.0178 168.594 40.6897 168.491 40.3779C168.384 39.9616 168.103 39.6131 166.922 39.4678C166.08 39.3613 162.807 39.3323 162.285 39.3323C162.256 39.3276 162.227 39.3295 162.2 39.3379C162.173 39.3463 162.148 39.3609 162.127 39.3807C162.107 39.4004 162.091 39.4247 162.081 39.4516C162.071 39.4785 162.068 39.5072 162.072 39.5356V42.0141C162.072 42.9823 162.072 46.4774 162.072 47.068C162.139 49.0527 162.701 49.44 165.731 49.44C166.764 49.4906 167.799 49.3862 168.8 49.1302C169.21 48.9622 169.561 48.6768 169.809 48.3099C170.057 47.9429 170.191 47.5109 170.195 47.068C170.262 46.7194 170.34 46.6129 170.514 46.6129C170.688 46.6129 170.717 46.8647 170.717 47.068C170.638 48.0437 170.499 49.0136 170.301 49.9725C170.088 50.747 169.778 50.747 168.587 50.747C166.293 50.747 164.511 50.6792 163.253 50.6405C161.994 50.6018 161.161 50.5727 160.716 50.5727C160.648 50.5727 160.048 50.5727 159.39 50.5727C158.731 50.5727 158.102 50.6502 157.608 50.6502C157.298 50.6502 157.124 50.5727 157.124 50.3985C157.124 50.3343 157.15 50.2727 157.195 50.2273C157.241 50.1819 157.302 50.1564 157.366 50.1564C157.647 50.1564 158.025 50.0499 158.334 50.0209C158.925 49.9144 159.002 49.3238 159.138 48.4524C159.309 46.3174 159.368 44.1747 159.312 42.0335L159.254 36.7666Z" fill="white"/>
<path d="M181.26 42.0625C181.26 46.4192 181.328 48.2007 181.88 48.7235C182.432 49.2463 183.555 49.4206 185.966 49.4206C187.563 49.4206 188.928 49.4206 189.664 48.5105C190.043 48.0255 190.292 47.4526 190.39 46.8452C190.39 46.6322 190.526 46.458 190.71 46.458C190.894 46.458 190.913 46.5935 190.913 46.913C190.844 47.9115 190.692 48.9025 190.458 49.8756C190.255 50.5727 190.148 50.6792 188.522 50.6792C186.324 50.6792 184.649 50.6792 183.187 50.5727C181.725 50.4662 180.747 50.5049 179.837 50.5049C179.702 50.5049 179.179 50.5049 178.579 50.5049C177.978 50.5049 177.291 50.5824 176.807 50.5824C176.487 50.5824 176.313 50.5049 176.313 50.3306C176.313 50.2664 176.339 50.2049 176.384 50.1595C176.429 50.1141 176.491 50.0886 176.555 50.0886C176.882 50.0781 177.206 50.0326 177.523 49.953C178.114 49.8078 178.182 49.256 178.317 48.3846C178.498 46.2501 178.56 44.1071 178.501 41.9656V36.7375C178.501 32.1387 178.501 31.2964 178.424 30.3573C178.346 29.4182 178.143 28.8857 177.175 28.7501C176.828 28.7044 176.479 28.6785 176.129 28.6727C176.067 28.6636 176.01 28.6354 175.964 28.592C175.919 28.5486 175.889 28.4922 175.877 28.4306C175.877 28.2564 176.023 28.1886 176.371 28.1886C177.765 28.1886 179.682 28.2564 179.857 28.2564C180.031 28.2564 182.296 28.1886 183.236 28.1886C183.555 28.1886 183.729 28.2564 183.729 28.4306C183.729 28.6049 183.584 28.6436 183.487 28.6436C183.39 28.6436 182.819 28.6436 182.471 28.7114C181.561 28.8857 181.386 29.3407 181.319 30.3863C181.251 31.432 181.319 32.1678 181.319 36.7666L181.26 42.0625Z" fill="white"/>
<path d="M194.544 50.1855C194.128 49.9822 194.089 49.8757 194.089 49.0721C194.089 47.6101 194.234 46.4193 194.263 45.9352C194.263 45.6254 194.331 45.4511 194.505 45.4511C194.679 45.4511 194.786 45.5479 194.786 45.7997C194.776 46.1609 194.812 46.522 194.892 46.8743C195.377 49.0334 197.681 49.7788 199.733 49.7788C202.764 49.7788 204.332 48.0652 204.332 45.8384C204.332 43.6116 203.18 42.7015 200.459 40.6781L199.065 39.6324C195.754 37.1539 194.67 35.3434 194.67 33.2812C194.67 29.7958 197.429 27.7046 201.447 27.7046C202.512 27.706 203.573 27.8229 204.613 28.0531C204.966 28.1526 205.331 28.2015 205.697 28.1984C205.939 28.1984 206.007 28.1984 206.007 28.4017C206.007 28.605 205.871 29.5151 205.871 31.5385C205.871 31.9936 205.871 32.2066 205.629 32.2066C205.387 32.2066 205.387 32.0614 205.349 31.8193C205.265 31.3134 205.112 30.8214 204.894 30.3574C204.69 30.0088 203.674 28.8954 200.924 28.8954C198.688 28.8954 196.838 30.0088 196.838 32.1001C196.838 33.9783 197.807 35.0627 200.818 37.1152L201.689 37.7155C205.416 40.2617 206.704 42.3143 206.704 44.8606C206.713 45.8794 206.454 46.8828 205.953 47.7698C205.451 48.6569 204.725 49.3965 203.848 49.9144C202.356 50.688 200.685 51.049 199.007 50.96C197.48 50.9963 195.962 50.7229 194.544 50.1564" fill="white"/>
<path d="M214.701 36.7666C214.701 32.1678 214.701 31.3254 214.633 30.3863C214.565 29.4472 214.381 28.8857 213.375 28.7501C213.028 28.7036 212.679 28.6778 212.329 28.6727C212.268 28.6631 212.212 28.6346 212.168 28.5911C212.125 28.5476 212.096 28.4914 212.087 28.4306C212.087 28.2563 212.222 28.1886 212.571 28.1886C213.965 28.1886 215.95 28.2563 216.124 28.2563C216.298 28.2563 222.756 28.2563 223.453 28.2563C223.921 28.2248 224.386 28.1666 224.847 28.0821C224.983 28.0821 225.118 27.9465 225.264 27.9465C225.409 27.9465 225.399 28.0821 225.399 28.2273C225.295 28.6876 225.214 29.1529 225.157 29.6215C225.157 29.8926 225.051 31.2189 224.983 31.5578C224.983 31.703 224.847 31.8773 224.702 31.8773C224.557 31.8773 224.46 31.7321 224.46 31.49C224.457 31.1345 224.398 30.7817 224.286 30.4444C224.073 29.9603 223.763 29.7473 222.088 29.5343C221.565 29.4666 218.012 29.4375 217.664 29.4375C217.518 29.4375 217.489 29.5343 217.489 29.7473V37.8025C217.489 38.0155 217.489 38.1123 217.664 38.1123C218.041 38.1123 222.088 38.1123 222.785 38.0445C223.482 37.9768 223.976 37.938 224.286 37.6282C224.596 37.3184 224.634 37.241 224.741 37.241C224.847 37.241 224.915 37.3087 224.915 37.4927C224.806 38.0334 224.725 38.5796 224.673 39.1289C224.596 39.7195 224.528 40.8329 224.528 41.0652C224.528 41.2976 224.46 41.6171 224.247 41.6171C224.034 41.6171 224.044 41.5203 224.044 41.346C224.059 41.0169 224.01 40.6879 223.899 40.3778C223.802 39.9615 223.521 39.613 222.33 39.4677C221.498 39.3613 218.215 39.3322 217.693 39.3322C217.665 39.327 217.636 39.3287 217.609 39.337C217.582 39.3454 217.557 39.3603 217.537 39.3803C217.517 39.4003 217.503 39.4249 217.494 39.452C217.486 39.479 217.484 39.5077 217.489 39.5355V42.014C217.489 42.9822 217.489 46.4773 217.489 47.0679C217.557 49.0526 218.119 49.4399 221.149 49.4399C222.182 49.4905 223.216 49.3861 224.218 49.1301C224.625 48.9564 224.972 48.6661 225.215 48.2957C225.458 47.9253 225.586 47.4914 225.583 47.0485C225.651 46.7 225.719 46.5935 225.893 46.5935C226.067 46.5935 226.106 46.8452 226.106 47.0485C226.026 48.0242 225.887 48.9942 225.69 49.953C225.477 50.7276 225.167 50.7276 223.976 50.7276C221.672 50.7276 219.9 50.6598 218.641 50.6211C217.383 50.5823 216.55 50.5533 216.095 50.5533C216.027 50.5533 215.437 50.5533 214.769 50.5533C214.101 50.5533 213.481 50.6307 212.997 50.6307C212.677 50.6307 212.503 50.5533 212.503 50.379C212.503 50.3464 212.51 50.3141 212.523 50.2841C212.535 50.2541 212.554 50.227 212.578 50.2044C212.601 50.1817 212.629 50.1641 212.659 50.1525C212.69 50.141 212.722 50.1357 212.755 50.137C213.036 50.137 213.413 50.0305 213.723 50.0014C214.314 49.8949 214.381 49.3043 214.527 48.433C214.698 46.2979 214.756 44.1553 214.701 42.014V36.7666Z" fill="white"/>
<path d="M235.207 46.5645C235.275 49.0043 235.556 49.7304 236.388 49.9434C236.89 50.0579 237.403 50.1163 237.918 50.1177C237.953 50.116 237.988 50.1221 238.021 50.1354C238.054 50.1487 238.083 50.1689 238.107 50.1948C238.131 50.2206 238.149 50.2513 238.16 50.2848C238.171 50.3183 238.174 50.3538 238.17 50.3888C238.17 50.563 237.957 50.6405 237.608 50.6405C235.866 50.6405 234.646 50.534 234.365 50.534C234.084 50.534 232.796 50.6405 231.402 50.6405C231.092 50.6405 230.918 50.6405 230.918 50.3888C230.917 50.3566 230.922 50.3245 230.934 50.2945C230.946 50.2646 230.963 50.2373 230.986 50.2146C231.009 50.1918 231.036 50.174 231.066 50.1624C231.096 50.1507 231.128 50.1454 231.16 50.1467C231.583 50.1473 232.003 50.0886 232.409 49.9725C233.184 49.7595 233.29 49.0043 233.29 46.2741V29.273C233.29 28.0822 233.455 27.7723 233.707 27.7723C233.958 27.7723 234.578 28.3629 234.888 28.6727C235.381 29.1665 239.835 33.9105 244.569 38.7901C247.6 41.927 250.882 45.4511 251.821 46.4193L251.511 31.5676C251.511 29.6312 251.298 28.9922 250.359 28.818C249.863 28.7312 249.362 28.6826 248.858 28.6727C248.824 28.673 248.79 28.6659 248.759 28.652C248.727 28.638 248.699 28.6176 248.676 28.5919C248.653 28.5663 248.636 28.536 248.626 28.5032C248.615 28.4704 248.612 28.4358 248.616 28.4017C248.616 28.2274 248.858 28.1887 249.207 28.1887C250.601 28.1887 252.063 28.2564 252.412 28.2564C252.76 28.2564 253.777 28.1887 255.035 28.1887C255.345 28.1887 255.587 28.1887 255.587 28.4017C255.569 28.4801 255.525 28.55 255.461 28.5994C255.398 28.6488 255.319 28.6747 255.239 28.6727C254.994 28.6699 254.751 28.6959 254.512 28.7502C253.496 28.9535 253.428 29.5441 253.428 31.3255L253.36 48.6848C253.36 50.6211 253.36 50.8148 253.118 50.8148C252.876 50.8148 252.489 50.5727 250.775 49.0043C250.466 48.7235 246.031 44.3668 242.798 40.9879C239.235 37.2507 235.788 33.6298 234.849 32.5841L235.207 46.5645Z" fill="white"/>
<path d="M260.379 50.1855C259.963 49.9822 259.924 49.8757 259.924 49.0721C259.924 47.6101 260.07 46.4193 260.099 45.9352C260.099 45.6254 260.166 45.4511 260.341 45.4511C260.515 45.4511 260.621 45.5479 260.621 45.7997C260.612 46.1609 260.648 46.522 260.728 46.8743C261.212 49.0334 263.516 49.7788 265.569 49.7788C268.599 49.7788 270.168 48.0652 270.168 45.8384C270.168 43.6116 269.015 42.7015 266.295 40.6781L264.901 39.6324C261.59 37.1539 260.505 35.3434 260.505 33.2812C260.505 29.7958 263.265 27.7046 267.282 27.7046C268.347 27.706 269.409 27.8229 270.448 28.0531C270.801 28.1526 271.166 28.2015 271.533 28.1984C271.775 28.1984 271.842 28.1984 271.842 28.4017C271.842 28.605 271.707 29.5151 271.707 31.5385C271.707 31.9936 271.707 32.2066 271.465 32.2066C271.223 32.2066 271.223 32.0614 271.184 31.8193C271.101 31.3134 270.947 30.8214 270.729 30.3574C270.526 30.0088 269.509 28.8954 266.76 28.8954C264.523 28.8954 262.674 30.0088 262.674 32.1001C262.674 33.9783 263.642 35.0627 266.653 37.1152L267.524 37.7155C271.252 40.2617 272.54 42.3143 272.54 44.8606C272.544 45.8842 272.277 46.8907 271.767 47.7782C271.257 48.6656 270.522 49.4026 269.635 49.9144C268.143 50.688 266.472 51.049 264.794 50.96C263.267 50.9963 261.749 50.7229 260.331 50.1564" fill="white"/>
</g>
<defs>
<clipPath id="clip0_10_30">
<rect width="272.578" height="74.9557" fill="white" transform="translate(0 0.0439453)"/>
</clipPath>
</defs>
</svg>
