<svg width="273" height="75" viewBox="0 0 273 75" fill="none" xmlns="http://www.w3.org/2000/svg">
<g clip-path="url(#clip0_640_1016)">
<path d="M89.3039 6.366C89.3039 3.05486 89.3039 2.49332 89.3039 1.78656C89.3039 1.07979 89.0716 0.721572 88.3454 0.576347C88.1096 0.528888 87.8695 0.506175 87.629 0.508575C87.5418 0.508575 87.4547 0.508575 87.4547 0.382713C87.4547 0.256851 87.5612 0.218124 87.7936 0.218124C88.2873 0.218124 88.8586 0.218124 89.3233 0.218124H90.1946C90.6206 0.218124 94.929 0.218124 95.4131 0.218124C95.7381 0.226116 96.0629 0.196881 96.3812 0.130989C96.5071 0.130989 96.5942 0.00512695 96.6717 0.00512695C96.7491 0.00512695 96.8072 0.0922622 96.8072 0.198761C96.8072 0.305259 96.7007 0.59571 96.633 1.16693C96.633 1.37993 96.5749 2.30937 96.5265 2.57078C96.5265 2.66759 96.4684 2.80314 96.3619 2.80314C96.2554 2.80314 96.207 2.69664 96.207 2.54173C96.1958 2.26376 96.13 1.99071 96.0133 1.73815C95.8519 1.5102 95.6342 1.32796 95.3814 1.20919C95.1285 1.09042 94.8493 1.03917 94.5708 1.06043L91.308 0.99266C91.1822 0.99266 91.1144 1.06043 91.1144 1.22502V7.1599C91.1144 7.28576 91.1144 7.34385 91.2596 7.34385H93.9802C94.3384 7.34385 94.6385 7.34385 94.9483 7.34385C95.4518 7.34385 95.7326 7.23735 95.9165 6.95658C95.994 6.85008 96.0617 6.75327 96.1489 6.75327C96.236 6.75327 96.2554 6.81136 96.2554 6.91786C96.2554 7.02435 96.1489 7.40194 96.0811 8.1087C96.0811 8.5347 95.994 9.37701 95.994 9.53191C95.994 9.68682 95.994 9.92886 95.8487 9.92886C95.7035 9.92886 95.7035 9.85141 95.7035 9.74491C95.6833 9.48616 95.6379 9.22999 95.568 8.98006C95.474 8.76205 95.3208 8.57479 95.1256 8.43958C94.9305 8.30436 94.7014 8.22662 94.4643 8.2152C93.9414 8.14743 91.6275 8.14743 91.2596 8.14743C91.1531 8.14743 91.1144 8.19584 91.1144 8.34106V10.1419C91.1144 12.1847 91.1144 13.8596 91.2209 14.7503C91.2887 15.37 91.4145 15.8347 92.0535 15.9218C92.344 15.9218 92.8087 15.9993 93.0217 15.9993C93.2347 15.9993 93.196 16.0671 93.196 16.1348C93.196 16.2026 93.0895 16.2994 92.8571 16.2994C91.6856 16.2994 90.3495 16.2413 90.243 16.2413C90.1365 16.2413 88.8005 16.2994 88.1615 16.2994C87.9291 16.2994 87.8226 16.2994 87.8226 16.1348C87.8226 15.9702 87.8226 15.9993 87.9969 15.9993C88.2086 15.9926 88.4192 15.9667 88.6262 15.9218C89.0522 15.8347 89.1587 15.37 89.2458 14.7503C89.3523 13.8596 89.3523 12.1847 89.3523 10.1419L89.3039 6.366Z" fill="black"/>
<path d="M103.526 2.94846C103.759 2.3482 103.846 2.2417 103.972 2.2417C104.098 2.2417 104.223 2.49342 104.417 2.90005C104.756 3.66491 107.748 11.1198 108.9 13.8597C109.577 15.4669 110.081 15.6993 110.487 15.7961C110.73 15.8616 110.981 15.8942 111.233 15.8929C111.339 15.8929 111.465 15.8929 111.465 16.0478C111.465 16.2027 111.252 16.193 111.039 16.193C110.826 16.193 109.384 16.193 108.135 16.193C107.777 16.193 107.476 16.193 107.476 16.0672C107.476 15.9413 107.525 15.98 107.602 15.9316C107.649 15.9157 107.692 15.8894 107.727 15.8548C107.762 15.8201 107.789 15.778 107.806 15.7315C107.823 15.685 107.829 15.6353 107.824 15.5862C107.819 15.537 107.802 15.4896 107.777 15.4475L106.102 11.3134C106.053 11.2263 106.034 11.2069 105.927 11.2069H101.619C101.532 11.2069 101.474 11.2069 101.425 11.3522L100.37 14.2567C100.208 14.641 100.113 15.0504 100.089 15.4669C100.089 15.8251 100.409 15.951 100.728 15.951H100.903C101.048 15.951 101.087 16.0187 101.087 16.1059C101.087 16.193 100.98 16.2511 100.815 16.2511C100.37 16.2511 99.3438 16.193 99.1405 16.193C98.9372 16.193 98.0078 16.2511 97.2042 16.2511C96.9718 16.2511 96.8459 16.2511 96.8459 16.1059C96.8507 16.0631 96.8712 16.0236 96.9034 15.995C96.9355 15.9664 96.9772 15.9507 97.0202 15.951H97.5721C98.4144 15.8445 98.7823 15.2055 99.1405 14.2954L103.526 2.94846ZM105.608 10.4615C105.685 10.4615 105.685 10.4615 105.666 10.3356L103.817 5.38825C103.72 5.10748 103.613 5.10748 103.507 5.38825L101.764 10.3356C101.764 10.413 101.764 10.4615 101.822 10.4615H105.608Z" fill="black"/>
<path d="M128.399 13.9469C128.466 14.5859 128.592 15.5637 129.367 15.8155C129.758 15.9373 130.167 15.9961 130.577 15.9897C130.664 15.9897 130.722 15.9897 130.722 16.1156C130.722 16.2415 130.558 16.2802 130.345 16.2802C129.919 16.2802 127.837 16.2802 127.159 16.2027C126.714 16.1543 126.627 16.0962 126.627 16.0091C126.628 15.9743 126.642 15.941 126.665 15.9146C126.687 15.8883 126.718 15.8704 126.753 15.8639C126.859 15.8639 126.879 15.5637 126.84 15.2249L125.949 6.05632L121.447 15.2636C121.06 16.0478 120.953 16.2318 120.789 16.2318C120.624 16.2318 120.508 16.0575 120.15 15.3991C119.666 14.5084 118.426 12.1945 117.962 11.2167C117.41 10.0742 115.9 7.03417 115.59 6.29836H115.503L114.776 14.4503C114.776 14.7214 114.776 15.0603 114.776 15.3604C114.777 15.485 114.823 15.6051 114.904 15.6992C114.986 15.7933 115.099 15.8551 115.222 15.8736C115.46 15.934 115.703 15.9697 115.948 15.9801C116.006 15.9801 116.093 16.0381 116.093 16.1059C116.093 16.1737 115.967 16.2705 115.754 16.2705C115.057 16.2705 114.157 16.2124 114.012 16.2124C113.866 16.2124 112.956 16.2705 112.443 16.2705C112.25 16.2705 112.124 16.2705 112.124 16.1059C112.124 15.9413 112.211 15.9801 112.317 15.9801C112.502 15.9688 112.687 15.9461 112.869 15.9123C113.479 15.8058 113.498 15.1474 113.586 14.4697L114.951 2.68709C114.951 2.49345 115.057 2.36759 115.164 2.36759C115.246 2.37252 115.325 2.4006 115.392 2.44857C115.458 2.49655 115.51 2.56246 115.541 2.63868L121.186 13.8501L126.559 2.65804C126.637 2.48377 126.724 2.35791 126.85 2.35791C126.975 2.35791 127.082 2.50314 127.13 2.84199L128.399 13.9469Z" fill="black"/>
<path d="M135.728 11.023C135.728 12.756 135.728 14.1792 135.805 14.8957C135.873 15.4282 135.941 15.767 136.492 15.8639C136.772 15.9042 137.053 15.93 137.335 15.9413C137.376 15.9413 137.415 15.9576 137.444 15.9867C137.473 16.0157 137.49 16.0551 137.49 16.0962C137.49 16.1834 137.403 16.2415 137.19 16.2415C136.144 16.2415 134.934 16.1834 134.856 16.1834C134.779 16.1834 133.578 16.2415 133.007 16.2415C132.813 16.2415 132.707 16.2415 132.707 16.0962C132.707 16.0551 132.723 16.0157 132.752 15.9867C132.781 15.9576 132.821 15.9413 132.862 15.9413C133.054 15.9339 133.246 15.908 133.433 15.8639C133.791 15.7767 133.859 15.4379 133.917 14.8957C134.004 14.1502 134.024 12.727 134.024 11.023V7.83774C134.024 5.03005 134.024 4.5266 134.024 3.96506C134.024 3.40353 133.83 3.07435 133.423 2.99689C133.235 2.96256 133.044 2.94314 132.852 2.9388C132.814 2.93651 132.779 2.92047 132.752 2.89372C132.725 2.86696 132.709 2.83134 132.707 2.79358C132.707 2.68708 132.794 2.63867 133.007 2.63867C133.617 2.63867 134.788 2.68708 134.895 2.68708C135.001 2.68708 136.183 2.63867 136.764 2.63867C136.977 2.63867 137.054 2.68708 137.054 2.79358C137.048 2.83005 137.031 2.86376 137.005 2.88986C136.979 2.91596 136.945 2.9331 136.909 2.9388C136.754 2.92287 136.599 2.92287 136.444 2.9388C135.931 3.0453 135.824 3.30671 135.786 3.90697C135.747 4.50724 135.786 4.99132 135.786 7.77965L135.728 11.023Z" fill="black"/>
<path d="M143.56 11.0618C143.56 13.7145 143.56 14.7989 143.938 15.1184C144.315 15.4379 144.954 15.5444 146.426 15.5444C147.394 15.5444 148.227 15.5444 148.672 14.9925C148.907 14.695 149.061 14.3413 149.117 13.9663C149.117 13.8404 149.205 13.7339 149.311 13.7339C149.418 13.7339 149.437 13.821 149.437 14.0147C149.394 14.6217 149.3 15.2241 149.156 15.8155C149.03 16.2415 148.972 16.3092 147.975 16.3092C146.639 16.3092 145.593 16.3092 144.722 16.2415C143.851 16.1737 143.241 16.2415 142.689 16.2415C142.602 16.2415 142.282 16.2415 141.924 16.2415C141.566 16.2415 141.14 16.2415 140.84 16.2415C140.539 16.2415 140.539 16.2415 140.539 16.0962C140.539 16.0552 140.556 16.0158 140.585 15.9867C140.614 15.9577 140.653 15.9413 140.694 15.9413C140.887 15.934 141.078 15.908 141.266 15.8639C141.624 15.7767 141.663 15.4379 141.75 14.8957C141.853 13.6076 141.889 12.3149 141.856 11.023V7.83776C141.856 5.03007 141.856 4.52662 141.856 3.96508C141.856 3.40354 141.701 3.055 141.091 2.99691C140.946 2.99691 140.627 2.99691 140.452 2.99691C140.416 2.9912 140.382 2.97406 140.356 2.94796C140.33 2.92186 140.313 2.88815 140.307 2.85168C140.307 2.74519 140.385 2.69678 140.598 2.69678C141.45 2.69678 142.621 2.74519 142.728 2.74519C142.834 2.74519 144.209 2.69678 144.78 2.69678C144.974 2.69678 145.08 2.74519 145.08 2.85168C145.08 2.95818 144.993 2.97755 144.935 2.97755L144.257 2.9485C143.705 3.055 143.599 3.33577 143.56 3.96508C143.521 4.59439 143.56 5.04943 143.56 7.83776V11.0618Z" fill="black"/>
<path d="M154.907 11.0231C154.907 12.7561 154.907 14.1793 154.994 14.8958C155.062 15.4283 155.12 15.7671 155.672 15.8639C155.954 15.9043 156.239 15.9301 156.524 15.9414C156.544 15.9414 156.563 15.9454 156.582 15.9533C156.6 15.9612 156.617 15.9728 156.63 15.9873C156.644 16.0018 156.654 16.019 156.661 16.0378C156.668 16.0565 156.67 16.0764 156.669 16.0963C156.669 16.1834 156.592 16.2415 156.379 16.2415C155.333 16.2415 154.123 16.1834 154.045 16.1834C153.968 16.1834 152.767 16.2415 152.196 16.2415C152.003 16.2415 151.896 16.2415 151.896 16.0963C151.895 16.0764 151.897 16.0565 151.904 16.0378C151.911 16.019 151.921 16.0018 151.935 15.9873C151.949 15.9728 151.965 15.9612 151.983 15.9533C152.002 15.9454 152.021 15.9414 152.041 15.9414C152.237 15.9347 152.432 15.9087 152.622 15.8639C152.98 15.7768 153.038 15.438 153.106 14.8958C153.193 14.1503 153.213 12.7271 153.213 11.0231V7.83783C153.213 5.03013 153.213 4.52669 153.213 3.96515C153.213 3.40361 153.019 3.07443 152.612 2.99698C152.411 2.9638 152.207 2.94761 152.003 2.94857C151.965 2.94627 151.929 2.93024 151.902 2.90348C151.876 2.87673 151.86 2.84111 151.857 2.80334C151.857 2.69685 151.935 2.64844 152.148 2.64844C152.767 2.64844 153.939 2.69685 154.084 2.69685C154.229 2.69685 155.372 2.64844 155.943 2.64844C156.156 2.64844 156.243 2.69685 156.243 2.80334C156.236 2.83925 156.219 2.87224 156.193 2.89811C156.167 2.92398 156.134 2.94155 156.098 2.94857C155.943 2.93264 155.788 2.93264 155.633 2.94857C155.12 3.05507 155.014 3.31647 154.975 3.91674C154.936 4.517 154.975 5.00109 154.975 7.78942L154.907 11.0231Z" fill="black"/>
<path d="M161.045 7.83772C161.045 5.03003 161.045 4.52658 161.045 3.96504C161.045 3.4035 160.89 3.05496 160.28 2.99687C160.126 2.99687 159.806 2.99687 159.641 2.99687C159.604 2.99164 159.569 2.97487 159.541 2.94887C159.513 2.92286 159.494 2.88889 159.487 2.85165C159.487 2.74515 159.574 2.69674 159.787 2.69674C160.639 2.69674 161.849 2.74515 161.955 2.74515C162.062 2.74515 165.983 2.74515 166.409 2.74515C166.835 2.74515 167.116 2.65801 167.261 2.63865C167.406 2.61929 167.435 2.55151 167.513 2.55151C167.59 2.55151 167.6 2.63865 167.6 2.7161C167.6 2.79356 167.493 3.06464 167.455 3.56809C167.455 3.74236 167.387 4.53626 167.348 4.75894C167.309 4.98162 167.261 4.95257 167.174 4.95257C167.087 4.95257 167.029 4.86544 167.029 4.72021C167.029 4.50275 166.993 4.28673 166.922 4.08122C166.796 3.78109 166.603 3.65523 165.586 3.52936C165.267 3.52936 163.098 3.46159 162.885 3.46159C162.672 3.46159 162.778 3.52936 162.778 3.65523V8.46703C162.778 8.60257 162.778 8.66066 162.885 8.66066C162.991 8.66066 165.586 8.66066 166.012 8.66066C166.438 8.66066 166.728 8.59289 166.922 8.40894C167.116 8.22499 167.135 8.1669 167.193 8.1669C167.251 8.1669 167.3 8.2153 167.3 8.3218C167.234 8.64163 167.185 8.96484 167.154 9.28997C167.154 9.64819 167.067 10.3259 167.067 10.4518C167.067 10.5776 167.067 10.7906 166.903 10.7906C166.738 10.7906 166.777 10.7325 166.777 10.626C166.787 10.4254 166.757 10.2247 166.69 10.0355C166.622 9.77406 166.457 9.56106 165.722 9.47392C165.218 9.41583 163.214 9.39647 162.904 9.39647C162.798 9.39647 162.769 9.45456 162.769 9.52233V11.0327C162.769 11.6426 162.769 13.7436 162.769 14.1115C162.769 15.3217 163.156 15.554 165.005 15.554C165.634 15.5851 166.264 15.5198 166.874 15.3604C167.12 15.2568 167.332 15.0834 167.481 14.8616C167.631 14.6397 167.712 14.379 167.716 14.1115C167.764 13.8985 167.803 13.8307 167.91 13.8307C168.016 13.8307 168.036 13.9759 168.036 14.1115C167.986 14.6936 167.902 15.2724 167.784 15.8445C167.658 16.3189 167.464 16.3189 166.738 16.3189C165.344 16.3189 164.26 16.2705 163.495 16.2511C162.73 16.2317 162.217 16.2511 161.946 16.2511C161.897 16.2511 161.539 16.2511 161.142 16.2511C160.745 16.2511 160.348 16.2511 160.058 16.2511C159.767 16.2511 159.758 16.2511 159.758 16.1059C159.756 16.086 159.759 16.0661 159.766 16.0473C159.773 16.0286 159.783 16.0114 159.797 15.9969C159.81 15.9823 159.827 15.9708 159.845 15.9629C159.863 15.955 159.883 15.9509 159.903 15.951C160.077 15.951 160.31 15.8929 160.484 15.8735C160.842 15.8058 160.881 15.4475 160.968 14.9054C161.071 13.6172 161.107 12.3245 161.074 11.0327L161.045 7.83772Z" fill="black"/>
<path d="M173.525 13.8017C173.573 15.283 173.738 15.738 174.251 15.8639C174.57 15.9286 174.894 15.961 175.219 15.9607C175.26 15.9607 175.3 15.977 175.329 16.0061C175.358 16.0351 175.374 16.0745 175.374 16.1156C175.374 16.2221 175.239 16.2608 175.026 16.2608C173.97 16.2608 173.225 16.2027 173.089 16.2027C172.954 16.2027 172.121 16.2608 171.279 16.2608C171.085 16.2608 170.979 16.2608 170.979 16.1156C170.979 16.0745 170.995 16.0351 171.024 16.0061C171.053 15.977 171.092 15.9607 171.134 15.9607C171.391 15.9588 171.648 15.9263 171.898 15.8639C172.363 15.7283 172.431 15.2442 172.431 13.608V3.26799C172.431 2.55154 172.528 2.35791 172.683 2.35791C172.838 2.35791 173.215 2.71613 173.399 2.90977C173.583 3.1034 176.42 6.09504 179.305 9.06732C181.154 11.0037 183.178 13.124 183.72 13.7145L183.526 4.67183C183.526 3.50035 183.4 3.1034 182.829 2.9969C182.529 2.94287 182.224 2.91372 181.919 2.90977C181.897 2.90994 181.875 2.90539 181.855 2.89642C181.835 2.88746 181.817 2.87428 181.802 2.85778C181.787 2.84128 181.776 2.82183 181.77 2.80074C181.763 2.77965 181.761 2.7574 181.764 2.7355C181.764 2.629 181.919 2.60963 182.132 2.60963C182.974 2.60963 183.865 2.65804 184.068 2.65804C184.272 2.65804 184.901 2.60963 185.666 2.60963C185.859 2.60963 186.005 2.60963 186.005 2.7355C185.995 2.78504 185.969 2.82974 185.93 2.86165C185.891 2.89356 185.842 2.91061 185.792 2.90977C185.644 2.89539 185.494 2.89539 185.346 2.90977C184.727 3.04531 184.688 3.40353 184.688 4.48788V15.0603C184.688 16.2415 184.688 16.348 184.533 16.348C184.378 16.348 184.155 16.2027 183.11 15.2442C182.926 15.0797 180.205 12.4269 178.269 10.4034C176.11 8.1282 173.999 5.92077 173.428 5.29146L173.525 13.8017Z" fill="black"/>
<path d="M108.319 64.9113C108.319 61.6002 108.319 61.0386 108.319 60.3222C108.319 59.6058 108.106 59.2572 107.351 59.112C107.114 59.0689 106.874 59.0462 106.634 59.0442C106.547 59.0442 106.46 59.0442 106.46 58.9184C106.46 58.7925 106.566 58.7538 106.799 58.7538C107.292 58.7538 107.864 58.7538 108.328 58.7538H109.2C109.626 58.7538 113.934 58.7538 114.428 58.7538C114.753 58.762 115.078 58.7328 115.396 58.6666C115.522 58.6666 115.609 58.5408 115.696 58.5408C115.783 58.5408 115.822 58.6279 115.822 58.7344C115.822 58.8409 115.716 59.141 115.648 59.7026C115.648 59.9156 115.59 60.845 115.541 61.1064C115.541 61.2129 115.483 61.3388 115.377 61.3388C115.27 61.3388 115.231 61.2323 115.231 61.0871C115.216 60.8066 115.15 60.5313 115.038 60.2738C114.876 60.0465 114.658 59.8648 114.405 59.7461C114.153 59.6274 113.874 59.5758 113.595 59.5961L110.323 59.538C110.197 59.538 110.129 59.5961 110.129 59.7703V65.5794C110.129 65.7052 110.129 65.773 110.284 65.773H112.995C113.363 65.773 113.653 65.773 113.963 65.773C114.476 65.773 114.747 65.6665 114.931 65.3954C115.018 65.2889 115.077 65.1824 115.164 65.1824C115.251 65.1824 115.27 65.2405 115.27 65.347C115.27 65.4535 115.164 65.8408 115.096 66.5379C115.096 66.9638 115.018 67.8158 115.018 67.9611C115.018 68.1063 115.018 68.3677 114.864 68.3677C114.709 68.3677 114.718 68.2806 114.718 68.1741C114.706 67.9151 114.664 67.6583 114.592 67.4092C114.497 67.1925 114.343 67.0065 114.148 66.8715C113.953 66.7366 113.725 66.658 113.489 66.6444C112.956 66.5766 110.642 66.5766 110.284 66.5766C110.178 66.5766 110.129 66.5766 110.129 66.7702V68.5807C110.129 70.6138 110.129 72.2888 110.236 73.1795C110.303 73.7991 110.429 74.2638 111.068 74.351C111.359 74.351 111.833 74.4381 112.036 74.4381C112.24 74.4381 112.211 74.4962 112.211 74.564C112.211 74.6317 112.104 74.7286 111.872 74.7286C110.7 74.7286 109.364 74.6705 109.258 74.6705C109.151 74.6705 107.815 74.7286 107.176 74.7286C106.944 74.7286 106.837 74.7286 106.837 74.564C106.837 74.3994 106.837 74.4381 107.012 74.4381C107.227 74.4281 107.441 74.399 107.651 74.351C108.067 74.2638 108.173 73.7991 108.261 73.1795C108.367 72.2888 108.367 70.6138 108.367 68.5807L108.319 64.9113Z" fill="black"/>
<path d="M125.688 60.8547C129.89 60.8547 133.075 63.43 133.075 67.6318C133.093 68.615 132.91 69.5914 132.538 70.5016C132.166 71.4118 131.612 72.2367 130.911 72.9261C130.21 73.6155 129.376 74.1548 128.46 74.5113C127.543 74.8678 126.564 75.0339 125.581 74.9996C124.625 75.0535 123.668 74.9085 122.771 74.5738C121.874 74.2391 121.056 73.7219 120.369 73.0549C119.682 72.3879 119.141 71.5857 118.78 70.6989C118.419 69.8121 118.246 68.8601 118.272 67.9029C118.285 66.9499 118.489 66.0093 118.871 65.1361C119.253 64.263 119.806 63.475 120.497 62.8184C121.188 62.1619 122.003 61.6499 122.894 61.3127C123.785 60.9755 124.735 60.8197 125.688 60.8547ZM126.104 74.2541C127.789 74.2541 131.158 73.3634 131.158 68.1353C131.158 63.8076 128.524 61.5324 125.581 61.5324C122.454 61.5324 120.208 63.4687 120.208 67.4188C120.208 71.6207 122.735 74.2541 126.104 74.2541Z" fill="black"/>
<path d="M137.761 72.2985C137.761 73.7895 137.974 74.2348 138.477 74.3607C138.795 74.4322 139.12 74.4679 139.445 74.4672C139.465 74.4658 139.484 74.4685 139.503 74.4753C139.521 74.4821 139.537 74.4927 139.551 74.5065C139.565 74.5203 139.576 74.5369 139.582 74.5552C139.589 74.5735 139.592 74.593 139.591 74.6124C139.591 74.7189 139.465 74.7576 139.252 74.7576C138.196 74.7576 137.451 74.6996 137.315 74.6996C137.18 74.6996 136.347 74.7576 135.515 74.7576C135.321 74.7576 135.214 74.7576 135.214 74.6124C135.214 74.5925 135.218 74.5728 135.226 74.5545C135.234 74.5362 135.246 74.5198 135.26 74.5061C135.275 74.4925 135.292 74.482 135.311 74.4753C135.33 74.4686 135.35 74.4659 135.369 74.4672C135.628 74.4659 135.885 74.4301 136.134 74.3607C136.599 74.2348 136.657 73.7411 136.657 72.1049V61.7745C136.657 61.0484 136.764 60.8547 136.918 60.8547C137.073 60.8547 137.441 61.2226 137.635 61.4066C137.829 61.5905 140.656 64.5919 143.541 67.5641C145.39 69.5005 147.413 71.6208 147.956 72.2114L147.762 63.1687C147.762 62.0069 147.636 61.6002 147.065 61.4937C146.764 61.4397 146.46 61.4105 146.155 61.4066C146.133 61.4082 146.111 61.405 146.091 61.3972C146.071 61.3894 146.053 61.3771 146.038 61.3613C146.023 61.3455 146.012 61.3266 146.005 61.306C145.999 61.2853 145.997 61.2635 146 61.242C146 61.1355 146.155 61.1161 146.358 61.1161C147.21 61.1161 148.101 61.1161 148.294 61.1161C148.488 61.1161 149.127 61.1161 149.892 61.1161C150.076 61.1161 150.231 61.1161 150.231 61.242C150.22 61.2898 150.192 61.3322 150.154 61.3622C150.115 61.3922 150.067 61.4079 150.018 61.4066C149.87 61.3887 149.72 61.3887 149.572 61.4066C148.953 61.5325 148.914 61.8907 148.914 62.975V73.5474C148.914 74.7383 148.914 74.8448 148.769 74.8448C148.624 74.8448 148.391 74.6899 147.346 73.7411C147.152 73.5668 144.441 70.914 142.505 68.9002C140.336 66.6347 138.235 64.4273 137.664 63.7883L137.761 72.2985Z" fill="black"/>
<path d="M154.229 66.3344C154.229 63.5364 154.229 63.0233 154.229 62.4618C154.229 61.9002 154.074 61.542 153.465 61.4936C153.252 61.4829 153.038 61.4829 152.826 61.4936C152.788 61.4894 152.754 61.4728 152.727 61.4464C152.701 61.42 152.684 61.3855 152.68 61.3484C152.68 61.2419 152.758 61.2031 152.971 61.2031C153.823 61.2031 155.033 61.2031 155.139 61.2031C155.246 61.2031 156.543 61.2031 157.647 61.2031C159.516 61.2031 162.933 61.0289 165.141 63.2557C165.734 63.861 166.201 64.5787 166.513 65.3667C166.826 66.1548 166.978 66.9972 166.961 67.8448C166.981 69.7346 166.258 71.5566 164.947 72.918C164.2 73.64 163.31 74.1981 162.335 74.5566C161.36 74.915 160.32 75.0659 159.283 74.9996C158.47 74.9996 157.473 74.9318 156.669 74.8931C155.866 74.8543 155.227 74.7866 155.139 74.7866C155.052 74.7866 154.762 74.7866 154.375 74.7866C153.987 74.7866 153.552 74.7866 153.252 74.7866C152.951 74.7866 152.951 74.7866 152.951 74.6413C152.954 74.602 152.971 74.565 153 74.538C153.029 74.511 153.067 74.496 153.106 74.4961C153.299 74.4853 153.49 74.4561 153.678 74.409C154.036 74.3218 154.074 73.983 154.162 73.4408C154.266 72.1527 154.301 70.86 154.268 69.5681L154.229 66.3344ZM155.933 68.2708C155.933 70.2071 155.933 71.853 155.933 72.1919C155.916 72.6343 155.989 73.0756 156.146 73.4892C156.379 73.8281 157.037 74.2153 159.244 74.2153C160.857 74.258 162.423 73.6791 163.621 72.5985C164.64 71.4091 165.163 69.8737 165.083 68.3095C165.105 67.4764 164.961 66.6472 164.659 65.8707C164.356 65.0942 163.901 64.3861 163.32 63.7882C161.558 62.0067 159.448 61.7744 157.269 61.7744C156.891 61.7713 156.514 61.8136 156.146 61.9002C155.972 61.9583 155.914 62.0455 155.914 62.2585L155.933 68.2708Z" fill="black"/>
<path d="M24.0881 40.4942C24.0881 43.844 24.0881 46.5936 24.2624 48.0653C24.3688 49.0334 24.5818 49.837 25.6275 50.0016C26.1476 50.0735 26.6711 50.1187 27.1959 50.1371C27.3992 50.1371 27.4767 50.2436 27.4767 50.3501C27.4767 50.4566 27.3024 50.6309 26.9151 50.6309C24.9788 50.6309 22.8004 50.5244 22.6261 50.5244C22.4519 50.5244 20.2541 50.6309 19.2085 50.6309C18.8309 50.6309 18.6567 50.5535 18.6567 50.3501C18.6567 50.1468 18.7244 50.1371 18.9277 50.1371C19.2799 50.126 19.6301 50.0806 19.9734 50.0016C20.6704 49.8564 20.8447 49.0915 20.9899 48.0653C21.1642 46.5936 21.1642 43.844 21.1642 40.4942V36.8345C21.1642 36.807 21.1587 36.7797 21.1479 36.7544C21.137 36.7291 21.1212 36.7062 21.1013 36.6872C21.0814 36.6682 21.0578 36.6534 21.032 36.6438C21.0062 36.6342 20.9787 36.6299 20.9512 36.6312H6.16727C6.13943 36.626 6.11075 36.6276 6.0837 36.636C6.05665 36.6444 6.03205 36.6592 6.01203 36.6793C5.99201 36.6993 5.97717 36.7239 5.96879 36.7509C5.96041 36.778 5.95875 36.8067 5.96395 36.8345V40.4942C5.96395 43.844 5.96395 46.5936 6.13822 48.0653C6.24472 49.0334 6.44804 49.837 7.49366 50.0016C7.98743 50.0694 8.75228 50.1371 9.06209 50.1371C9.37191 50.1371 9.34286 50.2436 9.34286 50.3501C9.34286 50.4566 9.16859 50.6309 8.78132 50.6309C6.84499 50.6309 4.67629 50.5244 4.50202 50.5244C4.32775 50.5244 2.13 50.6309 1.08438 50.6309C0.697112 50.6309 0.522842 50.5535 0.522842 50.3501C0.522842 50.1468 0.590614 50.1371 0.803611 50.1371C1.15563 50.1248 1.50571 50.0794 1.84923 50.0016C2.54632 49.8564 2.72059 49.0915 2.8174 48.0653C2.99167 46.5936 2.99167 43.844 2.99167 40.4942V34.356C2.99167 28.9245 2.99167 27.9467 2.9239 26.8333C2.85613 25.7199 2.57536 25.0906 1.42324 24.8389C1.03314 24.7718 0.63788 24.7394 0.242073 24.7421C0.0968474 24.7421 -0.0386963 24.6646 -0.0386963 24.5291C-0.0386963 24.3935 0.174301 24.2483 0.561569 24.2483C2.13 24.2483 4.32775 24.3548 4.50202 24.3548C4.67629 24.3548 6.86435 24.2483 7.91965 24.2483C8.29724 24.2483 8.47151 24.3161 8.47151 24.5291C8.47151 24.7421 8.33597 24.7421 8.19074 24.7421C7.89809 24.7498 7.6066 24.7822 7.31939 24.8389C6.35122 25.0131 6.0995 25.6134 6.03172 26.8333C5.96395 28.0532 5.96395 28.9245 5.96395 34.356V35.0918C5.95924 35.12 5.96115 35.1489 5.96955 35.1762C5.97795 35.2035 5.99259 35.2285 6.01232 35.2492C6.03205 35.2698 6.05633 35.2856 6.08322 35.2953C6.11012 35.3049 6.13889 35.3082 6.16727 35.3048H20.9512C20.9803 35.3099 21.0102 35.3079 21.0384 35.299C21.0666 35.2901 21.0922 35.2746 21.1131 35.2537C21.134 35.2328 21.1496 35.2072 21.1584 35.179C21.1673 35.1508 21.1693 35.1209 21.1642 35.0918V34.356C21.1642 28.9245 21.1642 27.9467 21.0964 26.8333C21.0287 25.7199 20.7479 25.0906 19.5958 24.8389C19.2024 24.7716 18.804 24.7392 18.4049 24.7421C18.3731 24.7461 18.3408 24.7438 18.3099 24.7352C18.279 24.7267 18.25 24.7121 18.2248 24.6923C18.1996 24.6725 18.1786 24.6478 18.1629 24.6198C18.1473 24.5918 18.1374 24.5609 18.1338 24.5291C18.1338 24.3161 18.3081 24.2483 18.6857 24.2483C20.2541 24.2483 22.4519 24.3548 22.6261 24.3548C22.8004 24.3548 24.9982 24.2483 26.0438 24.2483C26.431 24.2483 26.6053 24.3161 26.6053 24.5291C26.6053 24.7421 26.4601 24.7421 26.3246 24.7421C26.0319 24.7498 25.7404 24.7822 25.4532 24.8389C24.485 25.0131 24.2333 25.6134 24.1655 26.8333C24.0978 28.0532 24.0881 28.9245 24.0881 34.356V40.4942Z" fill="black"/>
<path d="M35.7061 36.7666C35.7061 32.1678 35.7061 31.3255 35.6383 30.3864C35.5706 29.4473 35.3963 28.8857 34.3797 28.7502C34.033 28.7037 33.6838 28.6779 33.3341 28.6728C33.2733 28.6632 33.2171 28.6347 33.1736 28.5912C33.1301 28.5477 33.1016 28.4915 33.092 28.4307C33.092 28.2564 33.2276 28.1887 33.5761 28.1887C34.98 28.1887 36.9647 28.2564 37.139 28.2564C37.3133 28.2564 43.7613 28.2564 44.4583 28.2564C44.9253 28.2383 45.3908 28.1931 45.8525 28.1209C45.9977 28.1209 46.1333 27.9854 46.2688 27.9854C46.4044 27.9854 46.414 28.1209 46.414 28.2661C46.414 28.4113 46.2398 28.818 46.1623 29.6603C46.1623 29.9314 46.0655 31.2578 45.9977 31.5966C45.9977 31.7418 45.8525 31.9161 45.717 31.9161C45.5814 31.9161 45.4652 31.7709 45.4652 31.5289C45.4673 31.1729 45.4083 30.8193 45.291 30.4832C45.0877 29.9991 44.7682 29.7861 43.1029 29.5731C42.5801 29.5054 39.0172 29.4763 38.6687 29.4763C38.5332 29.4763 38.4944 29.5731 38.4944 29.7861V37.8026C38.4944 38.0156 38.4944 38.1124 38.6687 38.1124C39.056 38.1124 43.1029 38.1124 43.8 38.0446C44.4971 37.9769 44.9812 37.9381 45.291 37.6283C45.6008 37.3185 45.6395 37.241 45.746 37.241C45.8525 37.241 45.9203 37.3088 45.9203 37.4928C45.8108 38.0335 45.73 38.5797 45.6782 39.129C45.6105 39.7196 45.5427 40.833 45.5427 41.0653C45.5427 41.2977 45.4652 41.6172 45.2619 41.6172C45.0586 41.6172 45.0489 41.5204 45.0489 41.3461C45.0632 41.0178 45.0173 40.6897 44.9134 40.3779C44.8069 39.9616 44.5261 39.6131 43.345 39.4678C42.5026 39.3613 39.2302 39.3323 38.7074 39.3323C38.6792 39.3276 38.6503 39.3295 38.623 39.3379C38.5957 39.3463 38.5707 39.3609 38.5501 39.3807C38.5294 39.4004 38.5136 39.4247 38.5039 39.4516C38.4943 39.4785 38.491 39.5072 38.4944 39.5356V42.0141C38.4944 42.9823 38.4944 46.4774 38.4944 47.068C38.5622 49.0527 39.1237 49.44 42.1541 49.44C43.1869 49.4906 44.2214 49.3862 45.2232 49.1302C45.633 48.9622 45.984 48.6768 46.2321 48.3099C46.4801 47.9429 46.6142 47.5109 46.6174 47.068C46.6851 46.7194 46.7626 46.6129 46.9369 46.6129C47.1111 46.6129 47.1402 46.8647 47.1402 47.068C47.0605 48.0437 46.9214 49.0136 46.7239 49.9725C46.5205 50.747 46.2011 50.747 45.0199 50.747C42.7156 50.747 40.9342 50.6792 39.6853 50.6405C38.4363 50.6018 37.594 50.5727 37.139 50.5727C37.0712 50.5727 36.471 50.5727 35.8126 50.5727C35.1542 50.5727 34.5249 50.6502 34.0312 50.6502C33.7214 50.6502 33.5471 50.5727 33.5471 50.3985C33.5471 50.3343 33.5726 50.2727 33.618 50.2273C33.6634 50.1819 33.7249 50.1564 33.7891 50.1564C34.0699 50.1564 34.4572 50.0499 34.7573 50.0209C35.3576 49.9144 35.4253 49.3238 35.5609 48.4524C35.7323 46.3174 35.7905 44.1747 35.7351 42.0335L35.7061 36.7666Z" fill="black"/>
<path d="M54.9242 36.7665C54.9242 32.1677 54.9242 31.3254 54.8565 30.3863C54.7887 29.4472 54.6047 28.8856 53.5978 28.7501C53.2511 28.7036 52.902 28.6778 52.5522 28.6726C52.4914 28.6631 52.4353 28.6346 52.3918 28.5911C52.3483 28.5476 52.3197 28.4914 52.3102 28.4306C52.3102 28.2563 52.4457 28.1886 52.7943 28.1886C54.1884 28.1886 56.1732 28.2563 56.3474 28.2563C56.696 28.2563 58.6517 28.1886 60.4622 28.1886C63.5313 28.1886 69.1757 27.9078 72.7676 31.5675C73.746 32.5586 74.5157 33.7359 75.0312 35.0297C75.5467 36.3234 75.7975 37.7074 75.7689 39.0998C75.8096 42.2211 74.6202 45.233 72.4578 47.4842C71.1314 48.8396 68.3818 50.9018 63.1537 50.9018C61.8273 50.9018 60.1814 50.7953 58.8647 50.7275C57.548 50.6598 56.4927 50.5533 56.3474 50.5533C56.2022 50.5533 55.7181 50.5533 55.0985 50.5533C54.4789 50.5533 53.7334 50.6307 53.2493 50.6307C52.9298 50.6307 52.7555 50.5533 52.7555 50.379C52.7555 50.3464 52.7621 50.3141 52.7748 50.2841C52.7876 50.2541 52.8063 50.2269 52.8298 50.2043C52.8533 50.1817 52.8812 50.1641 52.9117 50.1525C52.9422 50.141 52.9747 50.1357 53.0073 50.137C53.3339 50.1265 53.6585 50.081 53.9754 50.0014C54.566 49.8562 54.6338 49.3043 54.779 48.433C54.9504 46.2979 55.0086 44.1552 54.9533 42.014L54.9242 36.7665ZM57.7126 39.9712C57.7126 43.1081 57.7126 45.8673 57.7126 46.4192C57.7016 47.1468 57.8298 47.8697 58.0902 48.5492C58.4774 49.1107 59.5618 49.74 63.1827 49.74C65.8347 49.8022 68.4083 48.838 70.3665 47.0485C71.9737 45.5478 72.7676 42.7305 72.7676 40.0099C72.8045 38.6408 72.5665 37.2782 72.0676 36.0028C71.5687 34.7273 70.8191 33.5648 69.8631 32.5841C66.9586 29.6795 63.5894 29.2729 59.9297 29.2729C59.311 29.2756 58.6944 29.3437 58.0902 29.4762C57.9652 29.5104 57.8575 29.5898 57.7877 29.6989C57.718 29.808 57.6912 29.9391 57.7126 30.0668V39.9712Z" fill="black"/>
<path d="M82.8172 36.7666C82.8172 32.1678 82.8172 31.3255 82.7494 30.3864C82.6816 29.4473 82.5074 28.8857 81.4908 28.7502C81.1441 28.7037 80.7949 28.6779 80.4452 28.6728C80.3844 28.6632 80.3282 28.6347 80.2847 28.5912C80.2412 28.5477 80.2126 28.4915 80.2031 28.4307C80.2031 28.2564 80.3387 28.1887 80.6872 28.1887C82.0814 28.1887 84.0758 28.2564 84.2501 28.2564C84.4243 28.2564 90.8724 28.2564 91.5694 28.2564C92.0299 28.2376 92.4889 28.1923 92.9442 28.1209C93.0798 28.1209 93.225 27.9854 93.3605 27.9854C93.4961 27.9854 93.5058 28.1209 93.5058 28.2661C93.5058 28.4113 93.3315 28.818 93.2541 29.6603C93.2541 29.9314 93.1476 31.2578 93.0798 31.5966C93.0798 31.7418 92.9442 31.9161 92.8087 31.9161C92.6731 31.9161 92.557 31.7709 92.557 31.5289C92.559 31.1729 92.5001 30.8193 92.3827 30.4832C92.1794 29.9991 91.8599 29.7861 90.185 29.5731C89.6621 29.5054 86.109 29.4763 85.7604 29.4763C85.6249 29.4763 85.5862 29.5731 85.5862 29.7861V37.8026C85.5862 38.0156 85.5862 38.1124 85.7604 38.1124C86.1477 38.1124 90.185 38.1124 90.882 38.0446C91.5791 37.9769 92.0729 37.9381 92.3827 37.6283C92.6925 37.3185 92.7312 37.241 92.8377 37.241C92.9442 37.241 93.012 37.3088 93.012 37.4928C92.9025 38.0335 92.8217 38.5797 92.77 39.129C92.7022 39.7196 92.6247 40.833 92.6247 41.0653C92.6247 41.2977 92.557 41.6172 92.3537 41.6172C92.1503 41.6172 92.1407 41.5204 92.1407 41.3461C92.155 41.0178 92.109 40.6897 92.0051 40.3779C91.8986 39.9616 91.6178 39.6131 90.4367 39.4678C89.5944 39.3613 86.322 39.3323 85.7991 39.3323C85.771 39.3276 85.7421 39.3295 85.7148 39.3379C85.6874 39.3463 85.6625 39.3609 85.6418 39.3807C85.6211 39.4004 85.6053 39.4247 85.5957 39.4516C85.586 39.4785 85.5828 39.5072 85.5862 39.5356V42.0141C85.5862 42.9823 85.5862 46.4774 85.5862 47.068C85.6539 49.0527 86.2155 49.44 89.2458 49.44C90.2786 49.4906 91.3131 49.3862 92.3149 49.1302C92.7247 48.9622 93.0757 48.6768 93.3238 48.3099C93.5719 47.9429 93.7059 47.5109 93.7091 47.068C93.7769 46.7194 93.8543 46.6129 94.0286 46.6129C94.2029 46.6129 94.2319 46.8647 94.2319 47.068C94.1522 48.0437 94.0132 49.0136 93.8156 49.9725C93.6026 50.747 93.2928 50.747 92.1019 50.747C89.8074 50.747 88.0259 50.6792 86.7673 50.6405C85.5087 50.6018 84.6761 50.5727 84.2307 50.5727C84.1533 50.5727 83.5627 50.5727 82.9043 50.5727C82.246 50.5727 81.6167 50.6502 81.1229 50.6502C80.8131 50.6502 80.6388 50.5727 80.6388 50.3985C80.6388 50.3343 80.6643 50.2727 80.7097 50.2273C80.7551 50.1819 80.8167 50.1564 80.8808 50.1564C81.1616 50.1564 81.5392 50.0499 81.849 50.0209C82.4396 49.9144 82.5171 49.3238 82.6526 48.4524C82.824 46.3174 82.8822 44.1747 82.8269 42.0335L82.8172 36.7666Z" fill="black"/>
<path d="M115.106 45.8675C115.173 48.772 115.522 49.6336 116.471 49.9047C117.042 50.0425 117.626 50.1139 118.213 50.1177C118.388 50.1177 118.485 50.1855 118.485 50.3307C118.485 50.4759 118.281 50.6018 117.865 50.6018C115.87 50.6018 114.476 50.505 114.166 50.505C113.857 50.505 112.385 50.6018 110.817 50.6018C110.468 50.6018 110.265 50.6018 110.265 50.3307C110.265 50.0596 110.362 50.1177 110.536 50.1177C111.021 50.116 111.504 50.0443 111.969 49.9047C112.84 49.6627 113.014 48.6558 113.014 45.4802V25.5069C113.014 24.1417 113.111 23.7642 113.392 23.7642C113.673 23.7642 114.263 24.529 114.612 24.8776C115.135 25.4681 120.334 31.0835 125.697 36.8344C129.154 40.5329 132.959 44.7831 134.072 45.9352L133.685 28.2274C133.685 25.9619 133.404 25.1874 132.329 24.9066C131.793 24.8027 131.249 24.7444 130.703 24.7323C130.461 24.7323 130.422 24.6355 130.422 24.4903C130.422 24.3451 130.703 24.2482 131.119 24.2482C132.688 24.2482 134.362 24.3547 134.75 24.3547C135.137 24.3547 136.279 24.2482 137.712 24.2482C138.1 24.2482 138.342 24.2482 138.342 24.4903C138.342 24.7323 138.206 24.7323 137.954 24.7323C137.673 24.7285 137.393 24.7644 137.122 24.8388C135.97 25.0809 135.834 25.8554 135.834 27.9467L135.757 48.375C135.757 50.6793 135.689 50.8535 135.447 50.8535C135.205 50.8535 134.75 50.4663 132.901 48.6171C132.523 48.2685 127.498 43.1469 123.8 39.1677C119.763 34.811 115.822 30.4542 114.699 29.1665L115.106 45.8675Z" fill="black"/>
<path d="M149.176 41.9948C149.176 44.8993 149.176 47.1939 149.311 48.4138C149.418 49.2851 149.524 49.837 150.434 49.9822C150.896 50.0532 151.361 50.0985 151.828 50.1178C151.86 50.1164 151.893 50.1217 151.923 50.1334C151.953 50.1451 151.98 50.1628 152.003 50.1856C152.025 50.2084 152.043 50.2356 152.055 50.2656C152.066 50.2956 152.072 50.3276 152.07 50.3598C152.07 50.505 151.935 50.6115 151.577 50.6115C149.873 50.6115 147.888 50.505 147.704 50.505C147.52 50.505 145.613 50.6115 144.674 50.6115C144.364 50.6115 144.189 50.5341 144.189 50.3598C144.188 50.3276 144.193 50.2956 144.205 50.2656C144.217 50.2356 144.235 50.2084 144.257 50.1856C144.28 50.1628 144.307 50.1451 144.337 50.1334C144.367 50.1217 144.399 50.1164 144.432 50.1178C144.758 50.108 145.083 50.0626 145.4 49.9822C145.99 49.837 146.097 49.2851 146.203 48.4138C146.339 47.1939 146.378 44.8509 146.378 41.9948V36.7667C146.378 32.1679 146.378 31.3256 146.31 30.3865C146.242 29.4473 145.99 28.9245 145.342 28.7793C145.022 28.7168 144.699 28.6811 144.373 28.6728C144.309 28.6706 144.248 28.6447 144.201 28.6C144.155 28.5553 144.126 28.495 144.122 28.4308C144.122 28.2565 144.267 28.1887 144.615 28.1887C145.584 28.1887 147.52 28.2565 147.714 28.2565C147.907 28.2565 149.844 28.1887 150.783 28.1887C151.131 28.1887 151.276 28.2565 151.276 28.4308C151.265 28.4923 151.235 28.5488 151.189 28.5922C151.144 28.6356 151.087 28.6638 151.025 28.6728C150.768 28.6668 150.511 28.6928 150.26 28.7503C149.427 28.9245 149.292 29.3408 149.185 30.3865C149.079 31.4321 149.185 32.1679 149.185 36.7667L149.176 41.9948Z" fill="black"/>
<path d="M159.254 36.7666C159.254 32.1678 159.254 31.3255 159.186 30.3864C159.119 29.4473 158.944 28.8857 157.928 28.7502C157.581 28.7037 157.232 28.6779 156.882 28.6728C156.821 28.6632 156.765 28.6347 156.722 28.5912C156.678 28.5477 156.65 28.4915 156.64 28.4307C156.64 28.2564 156.776 28.1887 157.124 28.1887C158.518 28.1887 160.513 28.2564 160.687 28.2564C160.861 28.2564 167.309 28.2564 168.006 28.2564C168.483 28.2395 168.958 28.1942 169.43 28.1209C169.565 28.1209 169.71 27.9854 169.846 27.9854C169.982 27.9854 169.991 28.1209 169.991 28.2661C169.991 28.4113 169.817 28.818 169.739 29.6603C169.739 29.9314 169.643 31.2578 169.565 31.5966C169.565 31.7418 169.43 31.9161 169.294 31.9161C169.159 31.9161 169.042 31.7709 169.042 31.5289C169.044 31.1729 168.985 30.8193 168.868 30.4832C168.665 29.9991 168.345 29.7861 166.67 29.5731C166.157 29.5054 162.594 29.4763 162.246 29.4763C162.11 29.4763 162.072 29.5731 162.072 29.7861V37.8026C162.072 38.0156 162.072 38.1124 162.246 38.1124C162.633 38.1124 166.67 38.1124 167.367 38.0446C168.065 37.9769 168.558 37.9381 168.868 37.6283C169.178 37.3185 169.217 37.241 169.323 37.241C169.43 37.241 169.497 37.3088 169.497 37.4928C169.388 38.0335 169.307 38.5797 169.255 39.129C169.188 39.7196 169.12 40.833 169.12 41.0653C169.12 41.2977 169.042 41.6172 168.839 41.6172C168.636 41.6172 168.626 41.5204 168.626 41.3461C168.64 41.0178 168.594 40.6897 168.491 40.3779C168.384 39.9616 168.103 39.6131 166.922 39.4678C166.08 39.3613 162.807 39.3323 162.285 39.3323C162.256 39.3276 162.227 39.3295 162.2 39.3379C162.173 39.3463 162.148 39.3609 162.127 39.3807C162.107 39.4004 162.091 39.4247 162.081 39.4516C162.071 39.4785 162.068 39.5072 162.072 39.5356V42.0141C162.072 42.9823 162.072 46.4774 162.072 47.068C162.139 49.0527 162.701 49.44 165.731 49.44C166.764 49.4906 167.799 49.3862 168.8 49.1302C169.21 48.9622 169.561 48.6768 169.809 48.3099C170.057 47.9429 170.191 47.5109 170.195 47.068C170.262 46.7194 170.34 46.6129 170.514 46.6129C170.688 46.6129 170.717 46.8647 170.717 47.068C170.638 48.0437 170.499 49.0136 170.301 49.9725C170.088 50.747 169.778 50.747 168.587 50.747C166.293 50.747 164.511 50.6792 163.253 50.6405C161.994 50.6018 161.161 50.5727 160.716 50.5727C160.648 50.5727 160.048 50.5727 159.39 50.5727C158.731 50.5727 158.102 50.6502 157.608 50.6502C157.298 50.6502 157.124 50.5727 157.124 50.3985C157.124 50.3343 157.15 50.2727 157.195 50.2273C157.241 50.1819 157.302 50.1564 157.366 50.1564C157.647 50.1564 158.025 50.0499 158.334 50.0209C158.925 49.9144 159.002 49.3238 159.138 48.4524C159.309 46.3174 159.368 44.1747 159.312 42.0335L159.254 36.7666Z" fill="black"/>
<path d="M181.261 42.0626C181.261 46.4194 181.328 48.2008 181.88 48.7236C182.432 49.2464 183.555 49.4207 185.966 49.4207C187.563 49.4207 188.929 49.4207 189.664 48.5106C190.043 48.0256 190.293 47.4528 190.391 46.8453C190.391 46.6323 190.526 46.4581 190.71 46.4581C190.894 46.4581 190.913 46.5936 190.913 46.9131C190.845 47.9116 190.692 48.9026 190.458 49.8757C190.255 50.5728 190.148 50.6793 188.522 50.6793C186.324 50.6793 184.649 50.6793 183.187 50.5728C181.725 50.4663 180.748 50.505 179.837 50.505C179.702 50.505 179.179 50.505 178.579 50.505C177.979 50.505 177.291 50.5825 176.807 50.5825C176.488 50.5825 176.313 50.505 176.313 50.3308C176.313 50.2666 176.339 50.205 176.384 50.1596C176.43 50.1142 176.491 50.0887 176.555 50.0887C176.882 50.0782 177.207 50.0328 177.524 49.9532C178.114 49.8079 178.182 49.2561 178.317 48.3847C178.498 46.2502 178.56 44.1072 178.501 41.9658V36.7377C178.501 32.1389 178.501 31.2965 178.424 30.3574C178.347 29.4183 178.143 28.8858 177.175 28.7503C176.828 28.7045 176.479 28.6786 176.129 28.6728C176.067 28.6638 176.01 28.6356 175.965 28.5922C175.92 28.5488 175.889 28.4923 175.878 28.4308C175.878 28.2565 176.023 28.1887 176.371 28.1887C177.766 28.1887 179.683 28.2565 179.857 28.2565C180.031 28.2565 182.297 28.1887 183.236 28.1887C183.555 28.1887 183.73 28.2565 183.73 28.4308C183.73 28.605 183.584 28.6438 183.487 28.6438C183.391 28.6438 182.819 28.6438 182.471 28.7115C181.561 28.8858 181.387 29.3408 181.319 30.3865C181.251 31.4321 181.319 32.1679 181.319 36.7667L181.261 42.0626Z" fill="black"/>
<path d="M194.544 50.1855C194.128 49.9822 194.089 49.8757 194.089 49.0721C194.089 47.6101 194.234 46.4193 194.263 45.9352C194.263 45.6254 194.331 45.4511 194.505 45.4511C194.679 45.4511 194.786 45.5479 194.786 45.7997C194.776 46.1609 194.812 46.522 194.892 46.8743C195.377 49.0334 197.681 49.7788 199.733 49.7788C202.764 49.7788 204.332 48.0652 204.332 45.8384C204.332 43.6116 203.18 42.7015 200.459 40.6781L199.065 39.6324C195.754 37.1539 194.67 35.3434 194.67 33.2812C194.67 29.7958 197.429 27.7046 201.447 27.7046C202.512 27.706 203.573 27.8229 204.613 28.0531C204.966 28.1526 205.331 28.2015 205.697 28.1984C205.939 28.1984 206.007 28.1984 206.007 28.4017C206.007 28.605 205.871 29.5151 205.871 31.5385C205.871 31.9936 205.871 32.2066 205.629 32.2066C205.387 32.2066 205.387 32.0614 205.349 31.8193C205.265 31.3134 205.112 30.8214 204.894 30.3574C204.69 30.0088 203.674 28.8954 200.924 28.8954C198.688 28.8954 196.838 30.0088 196.838 32.1001C196.838 33.9783 197.807 35.0627 200.818 37.1152L201.689 37.7155C205.416 40.2617 206.704 42.3143 206.704 44.8605C206.713 45.8794 206.454 46.8827 205.953 47.7698C205.451 48.6569 204.725 49.3965 203.848 49.9144C202.356 50.688 200.685 51.049 199.007 50.96C197.48 50.9963 195.962 50.7229 194.544 50.1564" fill="black"/>
<path d="M214.701 36.7666C214.701 32.1678 214.701 31.3254 214.633 30.3863C214.566 29.4472 214.382 28.8857 213.375 28.7501C213.028 28.7036 212.679 28.6778 212.329 28.6727C212.268 28.6631 212.212 28.6346 212.169 28.5911C212.125 28.5476 212.097 28.4914 212.087 28.4306C212.087 28.2563 212.223 28.1886 212.571 28.1886C213.965 28.1886 215.95 28.2563 216.124 28.2563C216.299 28.2563 222.756 28.2563 223.453 28.2563C223.921 28.2248 224.387 28.1666 224.848 28.0821C224.983 28.0821 225.119 27.9465 225.264 27.9465C225.409 27.9465 225.399 28.0821 225.399 28.2273C225.295 28.6876 225.214 29.1529 225.157 29.6215C225.157 29.8926 225.051 31.2189 224.983 31.5578C224.983 31.703 224.848 31.8773 224.702 31.8773C224.557 31.8773 224.46 31.7321 224.46 31.49C224.457 31.1345 224.399 30.7817 224.286 30.4444C224.073 29.9603 223.763 29.7473 222.088 29.5343C221.566 29.4666 218.012 29.4375 217.664 29.4375C217.519 29.4375 217.49 29.5343 217.49 29.7473V37.8025C217.49 38.0155 217.49 38.1123 217.664 38.1123C218.041 38.1123 222.088 38.1123 222.785 38.0445C223.483 37.9768 223.976 37.938 224.286 37.6282C224.596 37.3184 224.635 37.241 224.741 37.241C224.848 37.241 224.915 37.3087 224.915 37.4927C224.806 38.0334 224.725 38.5796 224.673 39.1289C224.596 39.7195 224.528 40.8329 224.528 41.0652C224.528 41.2976 224.46 41.6171 224.247 41.6171C224.034 41.6171 224.044 41.5203 224.044 41.346C224.059 41.0169 224.01 40.6879 223.899 40.3778C223.802 39.9615 223.521 39.613 222.33 39.4677C221.498 39.3613 218.216 39.3322 217.693 39.3322C217.665 39.327 217.636 39.3287 217.609 39.337C217.582 39.3454 217.558 39.3603 217.538 39.3803C217.518 39.4003 217.503 39.4249 217.494 39.452C217.486 39.479 217.484 39.5077 217.49 39.5355V42.014C217.49 42.9822 217.49 46.4773 217.49 47.0679C217.557 49.0526 218.119 49.4399 221.149 49.4399C222.182 49.4905 223.217 49.3861 224.218 49.1301C224.626 48.9564 224.973 48.6661 225.216 48.2957C225.458 47.9253 225.586 47.4914 225.583 47.0485C225.651 46.7 225.719 46.5935 225.893 46.5935C226.068 46.5935 226.106 46.8452 226.106 47.0485C226.027 48.0242 225.888 48.9942 225.69 49.953C225.477 50.7276 225.167 50.7276 223.976 50.7276C221.672 50.7276 219.9 50.6598 218.642 50.6211C217.383 50.5823 216.55 50.5533 216.095 50.5533C216.028 50.5533 215.437 50.5533 214.769 50.5533C214.101 50.5533 213.481 50.6307 212.997 50.6307C212.678 50.6307 212.503 50.5533 212.503 50.379C212.503 50.3464 212.51 50.3141 212.523 50.2841C212.536 50.2541 212.554 50.227 212.578 50.2044C212.601 50.1817 212.629 50.1641 212.66 50.1525C212.69 50.141 212.723 50.1357 212.755 50.137C213.036 50.137 213.414 50.0305 213.723 50.0014C214.314 49.8949 214.382 49.3043 214.527 48.433C214.698 46.2979 214.757 44.1553 214.701 42.014V36.7666Z" fill="black"/>
<path d="M235.207 46.5644C235.275 49.0042 235.556 49.7303 236.388 49.9433C236.89 50.0578 237.403 50.1162 237.918 50.1176C237.953 50.1159 237.988 50.1219 238.021 50.1352C238.053 50.1486 238.083 50.1688 238.107 50.1946C238.131 50.2204 238.149 50.2512 238.16 50.2847C238.17 50.3182 238.174 50.3537 238.17 50.3887C238.17 50.5629 237.957 50.6404 237.608 50.6404C235.865 50.6404 234.646 50.5339 234.365 50.5339C234.084 50.5339 232.796 50.6404 231.402 50.6404C231.092 50.6404 230.918 50.6404 230.918 50.3887C230.917 50.3565 230.922 50.3244 230.934 50.2944C230.945 50.2644 230.963 50.2372 230.986 50.2145C231.009 50.1917 231.036 50.1739 231.066 50.1622C231.096 50.1506 231.128 50.1452 231.16 50.1466C231.583 50.1471 232.003 50.0885 232.409 49.9723C233.184 49.7593 233.29 49.0042 233.29 46.2739V29.2729C233.29 28.082 233.455 27.7722 233.706 27.7722C233.958 27.7722 234.578 28.3628 234.888 28.6726C235.381 29.1664 239.835 33.9104 244.569 38.79C247.6 41.9269 250.882 45.451 251.821 46.4192L251.511 31.5674C251.511 29.6311 251.298 28.9921 250.359 28.8178C249.863 28.731 249.361 28.6825 248.858 28.6726C248.824 28.6729 248.79 28.6658 248.758 28.6518C248.727 28.6379 248.699 28.6174 248.676 28.5918C248.653 28.5661 248.636 28.5359 248.626 28.5031C248.615 28.4703 248.612 28.4357 248.616 28.4015C248.616 28.2273 248.858 28.1885 249.207 28.1885C250.601 28.1885 252.063 28.2563 252.411 28.2563C252.76 28.2563 253.777 28.1885 255.035 28.1885C255.345 28.1885 255.587 28.1885 255.587 28.4015C255.569 28.48 255.525 28.5499 255.461 28.5993C255.398 28.6487 255.319 28.6746 255.238 28.6726C254.994 28.6698 254.751 28.6958 254.512 28.7501C253.496 28.9534 253.428 29.544 253.428 31.3254L253.36 48.6847C253.36 50.621 253.36 50.8146 253.118 50.8146C252.876 50.8146 252.489 50.5726 250.775 49.0042C250.465 48.7234 246.031 44.3666 242.797 40.9877C239.235 37.2506 235.788 33.6296 234.849 32.584L235.207 46.5644Z" fill="black"/>
<path d="M260.379 50.1855C259.963 49.9822 259.924 49.8757 259.924 49.0721C259.924 47.6101 260.07 46.4193 260.099 45.9352C260.099 45.6254 260.166 45.4511 260.341 45.4511C260.515 45.4511 260.621 45.5479 260.621 45.7997C260.612 46.1609 260.648 46.522 260.728 46.8743C261.212 49.0334 263.516 49.7788 265.569 49.7788C268.599 49.7788 270.168 48.0652 270.168 45.8384C270.168 43.6116 269.015 42.7015 266.295 40.6781L264.901 39.6324C261.59 37.1539 260.505 35.3434 260.505 33.2812C260.505 29.7958 263.265 27.7046 267.282 27.7046C268.347 27.706 269.409 27.8229 270.448 28.0531C270.801 28.1526 271.166 28.2015 271.533 28.1984C271.775 28.1984 271.842 28.1984 271.842 28.4017C271.842 28.605 271.707 29.5151 271.707 31.5385C271.707 31.9936 271.707 32.2066 271.465 32.2066C271.223 32.2066 271.223 32.0614 271.184 31.8193C271.101 31.3134 270.947 30.8214 270.729 30.3574C270.526 30.0088 269.509 28.8954 266.76 28.8954C264.523 28.8954 262.674 30.0088 262.674 32.1001C262.674 33.9783 263.642 35.0627 266.653 37.1152L267.524 37.7155C271.252 40.2617 272.54 42.3143 272.54 44.8605C272.544 45.8842 272.277 46.8907 271.767 47.7782C271.257 48.6656 270.522 49.4026 269.635 49.9144C268.143 50.688 266.472 51.049 264.794 50.96C263.267 50.9963 261.749 50.7229 260.331 50.1564" fill="black"/>
</g>
<defs>
<clipPath id="clip0_640_1016">
<rect width="272.578" height="74.9557" fill="white" transform="translate(0 0.0439453)"/>
</clipPath>
</defs>
</svg>
