<svg width="337" height="23" viewBox="0 0 337 23" fill="none" xmlns="http://www.w3.org/2000/svg">
<g clip-path="url(#clip0_10_15)">
<path d="M14.6409 0H20.3052V22.7729H14.6409V13.3329H5.66426V22.7729H0V0H5.66426V9.11566H14.6409V0Z" fill="white"/>
<path d="M59.0207 4.67132V8.04509C60.3457 5.66615 62.1123 4.47668 64.3206 4.47668V10.1213H62.936C61.8727 10.0418 60.819 10.3671 59.9946 11.0296C59.3321 11.633 59.0207 12.697 59.0207 14.2087V22.7729H53.3564V4.67132H59.0207Z" fill="white"/>
<path d="M67.3615 10.1213C67.359 9.33681 67.547 8.563 67.9098 7.86361C68.2726 7.16423 68.8 6.55931 69.4484 6.09871C70.8396 5.01737 72.721 4.47671 75.0927 4.47671C77.1281 4.38664 79.1385 4.9443 80.8232 6.06627C81.5282 6.56444 82.1048 7.21673 82.5073 7.97132C82.9098 8.72591 83.1271 9.56201 83.1419 10.4132H77.3452C77.3473 10.1611 77.2883 9.91201 77.1732 9.68646C77.058 9.46091 76.8899 9.26529 76.6827 9.11563C76.1605 8.85687 75.5776 8.73822 74.9934 8.77177C73.5094 8.77177 72.7674 9.21296 72.7674 10.0694C72.7674 10.9258 73.675 11.4189 75.4902 11.7238C77.2076 11.9951 78.8864 12.4633 80.492 13.1187C81.3189 13.4433 82.0231 14.0102 82.5082 14.742C82.9932 15.4737 83.2354 16.3344 83.2016 17.2062C83.2242 18.0307 83.0354 18.8475 82.6523 19.582C82.2692 20.3165 81.7041 20.9452 81.0087 21.4104C79.3689 22.5236 77.4046 23.0859 75.4107 23.013C73.4196 23.0879 71.4533 22.56 69.7796 21.5012C69.0372 21.0035 68.4269 20.3395 67.9994 19.5642C67.5719 18.7889 67.3396 17.9249 67.3218 17.044H73.1185C73.2775 18.1469 74.0747 18.6984 75.5101 18.6984C76.0911 18.7225 76.6647 18.5633 77.1464 18.2443C77.3482 18.1199 77.5147 17.9476 77.6305 17.7435C77.7463 17.5394 77.8077 17.3099 77.8089 17.0764C77.8089 16.6028 77.4446 16.22 76.7291 15.941C75.8854 15.6253 75.0139 15.3864 74.1255 15.2273C73.1119 15.0327 72.0917 14.7862 71.0648 14.5007C70.059 14.2317 69.1444 13.7055 68.4149 12.976C68.053 12.5935 67.7733 12.1437 67.5924 11.6533C67.4114 11.1629 67.3329 10.6419 67.3615 10.1213V10.1213Z" fill="white"/>
<path d="M95.2523 23.0001C94.0285 23.0426 92.8089 22.8382 91.6692 22.3995C90.5295 21.9609 89.4941 21.2974 88.6274 20.4503C86.9049 18.7591 86.0437 16.5056 86.0437 13.6898C86.0437 10.874 86.8983 8.6356 88.6075 6.97467C89.4817 6.14095 90.5196 5.4897 91.6584 5.06034C92.7971 4.63098 94.013 4.43245 95.2324 4.47678C97.7395 4.38828 100.181 5.27457 102.023 6.94223C103.789 8.58585 104.673 10.8675 104.673 13.7871C104.675 14.3735 104.631 14.9592 104.54 15.5388H91.8206C91.9237 16.2781 92.2912 16.9576 92.8576 17.4565C93.4241 17.9555 94.1529 18.2415 94.9144 18.2638C95.4593 18.2869 96.004 18.2167 96.5242 18.0562C96.8021 17.9531 97.0632 17.8111 97.2993 17.6345C97.5393 17.419 97.7609 17.1847 97.9618 16.9338H104.09C103.584 18.7173 102.459 20.2726 100.91 21.3326C99.2527 22.4628 97.2711 23.0468 95.2523 23.0001V23.0001ZM97.6703 10.024C97.008 9.49293 96.1743 9.21004 95.3185 9.22601C94.481 9.19932 93.6643 9.48448 93.0329 10.024C92.4097 10.5533 91.9987 11.2822 91.8736 12.0807H98.7966C98.7636 11.6786 98.6466 11.2874 98.4528 10.9314C98.2591 10.5754 97.9928 10.2621 97.6703 10.0111V10.024Z" fill="white"/>
<path d="M113.736 4.67142V7.3315C114.906 5.42835 116.772 4.47678 119.334 4.47678C120.293 4.44154 121.25 4.60869 122.138 4.96688C123.026 5.32508 123.825 5.86597 124.481 6.55294C125.806 7.93705 126.469 9.81857 126.469 12.1975V22.773H120.837V12.9761C120.876 12.4813 120.813 11.984 120.654 11.513C120.495 11.0419 120.242 10.6064 119.91 10.2316C119.188 9.61985 118.265 9.28316 117.31 9.28316C116.355 9.28316 115.432 9.61985 114.709 10.2316C114.369 10.6029 114.108 11.0367 113.941 11.5079C113.773 11.9791 113.704 12.4782 113.736 12.9761V22.773H108.071V4.67142H113.736Z" fill="white"/>
<path d="M129.847 10.1213C129.845 9.3368 130.033 8.56298 130.395 7.8636C130.758 7.16422 131.286 6.5593 131.934 6.09869C133.325 5.01736 135.209 4.47669 137.585 4.47669C139.625 4.38237 141.641 4.94028 143.329 6.06626C144.035 6.56371 144.612 7.21584 145.014 7.97059C145.417 8.72534 145.634 9.5618 145.648 10.4132H139.851C139.855 10.1608 139.796 9.91117 139.681 9.68536C139.566 9.45955 139.397 9.26416 139.188 9.11562C138.666 8.85686 138.083 8.73821 137.499 8.77176C136.022 8.77176 135.28 9.21294 135.28 10.0694C135.28 10.9258 136.187 11.4189 137.996 11.7238C139.713 11.9942 141.392 12.4624 142.998 13.1187C143.826 13.4414 144.532 14.0077 145.019 14.7397C145.505 15.4718 145.748 16.3334 145.714 17.2062C145.735 18.0311 145.545 18.8482 145.161 19.5826C144.777 20.3171 144.21 20.9455 143.514 21.4104C141.875 22.5245 139.91 23.0869 137.916 23.0129C135.925 23.0871 133.959 22.5593 132.285 21.5012C131.542 21.0044 130.932 20.3403 130.506 19.5647C130.079 18.7892 129.849 17.9247 129.834 17.044H135.631C135.785 18.1469 136.58 18.6984 138.016 18.6984C138.599 18.7225 139.174 18.5634 139.659 18.2443C139.861 18.1203 140.028 17.9482 140.144 17.7439C140.259 17.5397 140.321 17.31 140.321 17.0764C140.321 16.6028 139.963 16.22 139.248 15.941C138.404 15.627 137.532 15.3882 136.644 15.2273C135.631 15.0327 134.611 14.7861 133.584 14.5007C132.578 14.2317 131.663 13.7054 130.934 12.976C130.566 12.5961 130.28 12.1475 130.093 11.657C129.907 11.1665 129.823 10.6442 129.847 10.1213V10.1213Z" fill="white"/>
<path d="M165.774 22.7729H160.11V0H165.774V9.99154L173.459 0H180.859L171.306 11.3865L180.859 22.7729H173.571L165.754 12.7165L165.774 22.7729Z" fill="white"/>
<path d="M183.509 20.4372C182.577 19.5737 181.844 18.5247 181.361 17.3608C180.878 16.1969 180.654 14.9451 180.706 13.6897C180.654 12.4409 180.877 11.1958 181.361 10.0392C181.845 8.88265 182.577 7.84178 183.509 6.98755C185.419 5.36819 187.862 4.47693 190.389 4.47693C192.916 4.47693 195.358 5.36819 197.269 6.98755C198.198 7.84309 198.93 8.8842 199.413 10.0405C199.897 11.1967 200.121 12.4412 200.071 13.6897C200.123 14.9411 199.905 16.1892 199.43 17.3521C198.955 18.515 198.234 19.5664 197.315 20.4372C196.405 21.2913 195.331 21.9604 194.155 22.4058C192.979 22.8512 191.725 23.0642 190.465 23.0324C187.887 23.1029 185.385 22.1696 183.509 20.4372V20.4372ZM193.128 17.0959C193.941 16.1591 194.347 14.9484 194.261 13.7221C194.304 13.1187 194.225 12.5129 194.028 11.9395C193.831 11.3661 193.521 10.8364 193.115 10.3808C192.762 10.0118 192.335 9.71853 191.861 9.51972C191.386 9.32091 190.875 9.22086 190.359 9.22592C189.847 9.22129 189.339 9.32165 188.869 9.52054C188.399 9.71944 187.977 10.0125 187.629 10.3808C187.224 10.8391 186.914 11.3712 186.719 11.9468C186.523 12.5224 186.445 13.1301 186.49 13.7351C186.447 14.3455 186.529 14.9581 186.73 15.5373C186.931 16.1166 187.248 16.6508 187.663 17.1089C188.016 17.4806 188.445 17.7763 188.922 17.9774C189.399 18.1784 189.913 18.2803 190.432 18.2767C190.943 18.2798 191.449 18.1761 191.917 17.9725C192.384 17.7689 192.801 17.47 193.141 17.0959H193.128Z" fill="white"/>
<path d="M209.081 4.67132V7.3314C210.247 5.42825 212.112 4.47668 214.679 4.47668C215.958 4.45549 217.221 4.76904 218.335 5.385C219.411 5.99248 220.281 6.89455 220.84 7.9802C221.503 6.93757 222.412 6.06553 223.49 5.4369C224.601 4.78932 225.874 4.45688 227.166 4.47668C228.157 4.42911 229.147 4.58652 230.072 4.93865C230.996 5.29079 231.835 5.82974 232.533 6.5204C233.858 7.88288 234.52 9.77522 234.52 12.1974V22.7729H228.889V12.976C228.951 11.9849 228.611 11.0098 227.942 10.264C227.219 9.65219 226.296 9.3155 225.341 9.3155C224.386 9.3155 223.463 9.65219 222.741 10.264C222.074 11.0108 221.736 11.9858 221.8 12.976V22.7729H216.169V12.976C216.232 11.9849 215.891 11.0098 215.222 10.264C214.499 9.65219 213.576 9.3155 212.622 9.3155C211.667 9.3155 210.744 9.65219 210.021 10.264C209.354 11.0108 209.016 11.9858 209.081 12.976V22.7729H203.416V4.67132H209.081Z" fill="white"/>
<path d="M244.782 4.67132V7.3314C245.952 5.42825 247.818 4.47668 250.38 4.47668C251.662 4.45559 252.926 4.7691 254.043 5.385C255.115 5.99466 255.983 6.89631 256.541 7.98021C257.207 6.93961 258.115 6.06811 259.191 5.4369C260.296 4.79249 261.562 4.46015 262.848 4.47668C263.839 4.42911 264.829 4.58652 265.753 4.93865C266.678 5.29079 267.516 5.82974 268.214 6.5204C269.539 7.88288 270.202 9.77522 270.202 12.1974V22.7729H264.57V12.976C264.612 12.483 264.554 11.9867 264.399 11.5157C264.245 11.0448 263.997 10.6084 263.669 10.2315C262.947 9.61975 262.024 9.28306 261.069 9.28306C260.114 9.28306 259.191 9.61975 258.469 10.2315C258.13 10.6033 257.87 11.0374 257.704 11.5085C257.538 11.9797 257.469 12.4786 257.502 12.976V22.7729H251.871V12.976C251.935 11.9858 251.597 11.0108 250.93 10.264C250.208 9.65219 249.284 9.3155 248.33 9.3155C247.375 9.3155 246.452 9.65219 245.729 10.264C245.06 11.0098 244.719 11.9849 244.782 12.976V22.7729H239.118V4.67132H244.782Z" fill="white"/>
<path d="M286.697 4.67139H292.362V22.7729H286.697V20.1129C285.527 22.0117 283.661 22.9633 281.099 22.9676C280.14 23.0028 279.183 22.8357 278.295 22.4775C277.407 22.1193 276.608 21.5784 275.952 20.8914C274.627 19.5073 273.964 17.6258 273.964 15.2468V4.67139H279.595V14.5007C279.564 14.9905 279.631 15.4817 279.794 15.9459C279.956 16.4102 280.211 16.8385 280.543 17.2062C281.261 17.8257 282.186 18.1674 283.143 18.1674C284.1 18.1674 285.025 17.8257 285.743 17.2062C286.074 16.8381 286.328 16.4097 286.489 15.9454C286.651 15.4811 286.717 14.9901 286.684 14.5007L286.697 4.67139Z" fill="white"/>
<path d="M302.63 4.67135V7.33143C303.796 5.42828 305.662 4.47671 308.228 4.47671C309.185 4.44429 310.137 4.6128 311.021 4.97091C311.906 5.32902 312.702 5.86843 313.356 6.55287C314.681 7.93482 315.343 9.79688 315.343 12.1974V22.7729H309.712V12.976C309.775 11.9849 309.434 11.0099 308.765 10.264C308.042 9.65222 307.119 9.31553 306.164 9.31553C305.209 9.31553 304.286 9.65222 303.564 10.264C302.9 11.0119 302.564 11.9867 302.63 12.976V22.7729H296.966V4.67135H302.63Z" fill="white"/>
<path d="M327.56 23C326.336 23.0421 325.116 22.8375 323.977 22.3989C322.837 21.9603 321.802 21.297 320.935 20.4502C319.212 18.759 318.351 16.5055 318.351 13.6897C318.351 10.8739 319.208 8.63553 320.922 6.9746C321.795 6.13996 322.833 5.48809 323.972 5.05867C325.111 4.62925 326.327 4.43125 327.546 4.47671C330.042 4.39684 332.47 5.28254 334.304 6.94216C336.07 8.58579 336.965 10.8674 336.987 13.787C336.992 14.3735 336.948 14.9595 336.854 15.5388H324.135C324.238 16.2791 324.606 16.9594 325.174 17.4585C325.742 17.9576 326.472 18.2429 327.235 18.2637C327.778 18.287 328.32 18.2168 328.838 18.0561C329.119 17.9544 329.382 17.8123 329.62 17.6344C329.86 17.4188 330.081 17.1844 330.282 16.9337H336.41C335.904 18.7172 334.78 20.2726 333.231 21.3326C331.57 22.4654 329.583 23.0495 327.56 23V23ZM329.978 10.024C329.316 9.49186 328.482 9.20883 327.626 9.22594C326.789 9.2031 325.974 9.48777 325.34 10.024C324.719 10.555 324.309 11.2831 324.181 12.0807H331.104C331.072 11.6783 330.956 11.2867 330.762 10.9305C330.568 10.5743 330.301 10.2613 329.978 10.011V10.024Z" fill="white"/>
<path d="M32.071 22.7729C30.7956 21.8021 29.8617 20.4652 29.4 18.9491C28.9382 17.4331 28.9717 15.8136 29.4957 14.3171C30.0197 12.8206 31.0081 11.5218 32.3226 10.6023C33.6372 9.68275 35.2122 9.18845 36.8277 9.18845C38.4431 9.18845 40.0182 9.68275 41.3327 10.6023C42.6473 11.5218 43.6356 12.8206 44.1596 14.3171C44.6837 15.8136 44.7171 17.4331 44.2554 18.9491C43.7937 20.4652 42.8598 21.8021 41.5843 22.7729H47.8316C48.8984 20.8966 49.4462 18.7798 49.4207 16.6323C49.3951 14.4848 48.7972 12.3811 47.686 10.5295C46.5748 8.67799 44.989 7.1429 43.0856 6.0763C41.1822 5.0097 39.0273 4.44861 36.8343 4.44861C34.6413 4.44861 32.4864 5.0097 30.583 6.0763C28.6797 7.1429 27.0938 8.67799 25.9826 10.5295C24.8714 12.3811 24.2735 14.4848 24.2479 16.6323C24.2224 18.7798 24.7702 20.8966 25.837 22.7729H32.071Z" fill="white"/>
</g>
<defs>
<clipPath id="clip0_10_15">
<rect width="337" height="23" fill="white"/>
</clipPath>
</defs>
</svg>
