<svg width="337" height="23" viewBox="0 0 337 23" fill="none" xmlns="http://www.w3.org/2000/svg">
<g clip-path="url(#clip0_640_1001)">
<path d="M14.6409 0H20.3052V22.7729H14.6409V13.3329H5.66426V22.7729H0V0H5.66426V9.11566H14.6409V0Z" fill="#1D1D1B"/>
<path d="M59.0209 4.67145V8.04521C60.3459 5.66628 62.1125 4.47681 64.3208 4.47681V10.1214H62.9362C61.8729 10.0419 60.8193 10.3673 59.9948 11.0297C59.3323 11.6331 59.0209 12.6971 59.0209 14.2088V22.773H53.3567V4.67145H59.0209Z" fill="#1D1D1B"/>
<path d="M67.3615 10.1213C67.359 9.33681 67.547 8.563 67.9098 7.86361C68.2726 7.16423 68.8 6.55931 69.4484 6.09871C70.8396 5.01737 72.721 4.47671 75.0927 4.47671C77.1281 4.38664 79.1385 4.9443 80.8232 6.06627C81.5282 6.56444 82.1048 7.21673 82.5073 7.97132C82.9098 8.72591 83.1271 9.56201 83.1419 10.4132H77.3452C77.3473 10.1611 77.2883 9.91201 77.1732 9.68646C77.058 9.46091 76.8899 9.26529 76.6827 9.11563C76.1605 8.85687 75.5776 8.73822 74.9934 8.77177C73.5094 8.77177 72.7674 9.21295 72.7674 10.0694C72.7674 10.9258 73.675 11.4189 75.4902 11.7238C77.2076 11.9951 78.8864 12.4633 80.492 13.1187C81.3189 13.4433 82.0231 14.0102 82.5082 14.742C82.9932 15.4737 83.2354 16.3344 83.2016 17.2062C83.2242 18.0307 83.0354 18.8475 82.6523 19.582C82.2692 20.3165 81.7041 20.9452 81.0087 21.4104C79.3689 22.5236 77.4046 23.0859 75.4107 23.013C73.4196 23.0879 71.4533 22.56 69.7796 21.5012C69.0372 21.0035 68.4269 20.3395 67.9994 19.5642C67.5719 18.7889 67.3396 17.9249 67.3218 17.044H73.1185C73.2775 18.1469 74.0747 18.6984 75.5101 18.6984C76.0911 18.7225 76.6647 18.5633 77.1464 18.2443C77.3482 18.1199 77.5147 17.9476 77.6305 17.7435C77.7463 17.5394 77.8077 17.3099 77.8089 17.0764C77.8089 16.6028 77.4446 16.22 76.7291 15.941C75.8854 15.6253 75.0139 15.3864 74.1255 15.2273C73.1119 15.0327 72.0917 14.7862 71.0648 14.5007C70.059 14.2317 69.1444 13.7055 68.4149 12.976C68.053 12.5935 67.7733 12.1437 67.5924 11.6533C67.4114 11.1629 67.3329 10.6419 67.3615 10.1213Z" fill="#1D1D1B"/>
<path d="M95.2523 23.0001C94.0285 23.0426 92.8089 22.8382 91.6692 22.3995C90.5295 21.9609 89.4941 21.2974 88.6274 20.4503C86.9049 18.7591 86.0437 16.5056 86.0437 13.6898C86.0437 10.874 86.8983 8.6356 88.6075 6.97467C89.4817 6.14095 90.5196 5.4897 91.6584 5.06034C92.7971 4.63098 94.013 4.43245 95.2324 4.47678C97.7395 4.38828 100.181 5.27457 102.023 6.94223C103.789 8.58585 104.673 10.8675 104.673 13.7871C104.675 14.3735 104.631 14.9592 104.54 15.5388H91.8206C91.9237 16.2781 92.2912 16.9576 92.8576 17.4565C93.4241 17.9555 94.1529 18.2415 94.9144 18.2638C95.4593 18.2869 96.004 18.2167 96.5242 18.0562C96.8021 17.9531 97.0632 17.8111 97.2993 17.6345C97.5393 17.419 97.7609 17.1847 97.9618 16.9338H104.09C103.584 18.7173 102.459 20.2726 100.91 21.3326C99.2527 22.4628 97.2711 23.0468 95.2523 23.0001ZM97.6703 10.024C97.008 9.49293 96.1743 9.21004 95.3185 9.22601C94.481 9.19932 93.6643 9.48448 93.0329 10.024C92.4097 10.5533 91.9987 11.2822 91.8736 12.0807H98.7966C98.7636 11.6786 98.6466 11.2874 98.4528 10.9314C98.2591 10.5754 97.9928 10.2621 97.6703 10.0111V10.024Z" fill="#1D1D1B"/>
<path d="M113.736 4.67142V7.3315C114.906 5.42835 116.772 4.47678 119.334 4.47678C120.293 4.44154 121.25 4.60869 122.138 4.96688C123.026 5.32508 123.825 5.86597 124.481 6.55294C125.806 7.93705 126.469 9.81857 126.469 12.1975V22.773H120.837V12.9761C120.876 12.4813 120.813 11.984 120.654 11.513C120.495 11.0419 120.242 10.6064 119.91 10.2316C119.188 9.61985 118.265 9.28316 117.31 9.28316C116.355 9.28316 115.432 9.61985 114.709 10.2316C114.369 10.6029 114.108 11.0367 113.941 11.5079C113.773 11.9791 113.704 12.4782 113.736 12.9761V22.773H108.071V4.67142H113.736Z" fill="#1D1D1B"/>
<path d="M129.847 10.1214C129.845 9.33692 130.033 8.5631 130.395 7.86372C130.758 7.16434 131.286 6.55942 131.934 6.09882C133.325 5.01748 135.209 4.47681 137.585 4.47681C139.625 4.3825 141.641 4.9404 143.329 6.06638C144.035 6.56384 144.612 7.21596 145.014 7.97071C145.417 8.72546 145.634 9.56193 145.648 10.4133H139.851C139.855 10.1609 139.796 9.91129 139.681 9.68548C139.566 9.45968 139.397 9.26428 139.188 9.11574C138.666 8.85698 138.083 8.73833 137.499 8.77188C136.022 8.77188 135.28 9.21306 135.28 10.0695C135.28 10.9259 136.187 11.419 137.996 11.7239C139.713 11.9943 141.392 12.4625 142.998 13.1188C143.826 13.4415 144.532 14.0079 145.019 14.7399C145.505 15.4719 145.748 16.3336 145.714 17.2063C145.735 18.0313 145.545 18.8483 145.161 19.5827C144.777 20.3172 144.21 20.9456 143.514 21.4105C141.875 22.5246 139.91 23.087 137.916 23.0131C135.925 23.0872 133.959 22.5594 132.285 21.5014C131.542 21.0045 130.932 20.3404 130.506 19.5648C130.079 18.7893 129.849 17.9249 129.834 17.0441H135.631C135.785 18.1471 136.58 18.6985 138.016 18.6985C138.599 18.7226 139.174 18.5635 139.659 18.2444C139.861 18.1204 140.028 17.9483 140.144 17.7441C140.259 17.5398 140.321 17.3102 140.321 17.0765C140.321 16.6029 139.963 16.2201 139.248 15.9411C138.404 15.6272 137.532 15.3883 136.644 15.2274C135.631 15.0328 134.611 14.7863 133.584 14.5008C132.578 14.2318 131.663 13.7056 130.934 12.9761C130.566 12.5963 130.28 12.1477 130.093 11.6572C129.907 11.1667 129.823 10.6443 129.847 10.1214Z" fill="#1D1D1B"/>
<path d="M165.774 22.7729H160.11V0H165.774V9.99154L173.459 0H180.859L171.306 11.3865L180.859 22.7729H173.571L165.754 12.7165L165.774 22.7729Z" fill="#1D1D1B"/>
<path d="M183.509 20.4373C182.577 19.5738 181.844 18.5248 181.361 17.3609C180.878 16.197 180.654 14.9452 180.706 13.6898C180.654 12.441 180.877 11.1959 181.361 10.0394C181.845 8.88278 182.577 7.8419 183.509 6.98768C185.419 5.36831 187.862 4.47705 190.389 4.47705C192.916 4.47705 195.358 5.36831 197.269 6.98768C198.198 7.84321 198.93 8.88432 199.413 10.0406C199.897 11.1968 200.121 12.4413 200.071 13.6898C200.123 14.9412 199.905 16.1893 199.43 17.3522C198.955 18.5151 198.234 19.5665 197.315 20.4373C196.405 21.2914 195.331 21.9605 194.155 22.4059C192.979 22.8514 191.725 23.0643 190.465 23.0325C187.887 23.103 185.385 22.1697 183.509 20.4373ZM193.128 17.096C193.941 16.1592 194.347 14.9485 194.261 13.7222C194.304 13.1188 194.225 12.513 194.028 11.9396C193.831 11.3662 193.521 10.8365 193.115 10.3809C192.762 10.0119 192.335 9.71865 191.861 9.51984C191.386 9.32104 190.875 9.22098 190.359 9.22604C189.847 9.22141 189.339 9.32177 188.869 9.52067C188.399 9.71956 187.977 10.0126 187.629 10.3809C187.224 10.8392 186.914 11.3713 186.719 11.9469C186.523 12.5225 186.445 13.1302 186.49 13.7352C186.447 14.3456 186.529 14.9583 186.73 15.5375C186.931 16.1167 187.248 16.6509 187.663 17.109C188.016 17.4807 188.445 17.7765 188.922 17.9775C189.399 18.1785 189.913 18.2804 190.432 18.2768C190.943 18.2799 191.449 18.1762 191.917 17.9726C192.384 17.769 192.801 17.4701 193.141 17.096H193.128Z" fill="#1D1D1B"/>
<path d="M209.081 4.67144V7.33153C210.247 5.42838 212.112 4.4768 214.679 4.4768C215.958 4.45561 217.221 4.76917 218.335 5.38512C219.411 5.99261 220.281 6.89467 220.84 7.98033C221.503 6.93769 222.412 6.06566 223.49 5.43703C224.601 4.78944 225.874 4.457 227.166 4.4768C228.157 4.42923 229.147 4.58664 230.072 4.93878C230.996 5.29091 231.835 5.82986 232.533 6.52052C233.858 7.88301 234.52 9.77534 234.52 12.1975V22.773H228.889V12.9761C228.951 11.985 228.611 11.01 227.942 10.2641C227.219 9.65231 226.296 9.31563 225.341 9.31563C224.386 9.31563 223.463 9.65231 222.741 10.2641C222.074 11.011 221.736 11.9859 221.8 12.9761V22.773H216.169V12.9761C216.232 11.985 215.891 11.01 215.222 10.2641C214.499 9.65231 213.576 9.31563 212.622 9.31563C211.667 9.31563 210.744 9.65231 210.021 10.2641C209.354 11.011 209.016 11.9859 209.081 12.9761V22.773H203.416V4.67144H209.081Z" fill="#1D1D1B"/>
<path d="M244.782 4.67144V7.33153C245.952 5.42838 247.818 4.4768 250.38 4.4768C251.662 4.45571 252.926 4.76922 254.043 5.38512C255.115 5.99479 255.983 6.89644 256.541 7.98033C257.207 6.93973 258.115 6.06823 259.191 5.43703C260.296 4.79261 261.562 4.46027 262.848 4.4768C263.839 4.42923 264.829 4.58664 265.753 4.93878C266.678 5.29091 267.516 5.82986 268.214 6.52052C269.539 7.88301 270.202 9.77534 270.202 12.1975V22.773H264.57V12.9761C264.612 12.4831 264.554 11.9868 264.399 11.5159C264.245 11.0449 263.997 10.6085 263.669 10.2317C262.947 9.61988 262.024 9.28319 261.069 9.28319C260.114 9.28319 259.191 9.61988 258.469 10.2317C258.13 10.6034 257.87 11.0375 257.704 11.5087C257.538 11.9798 257.469 12.4787 257.502 12.9761V22.773H251.871V12.9761C251.935 11.9859 251.597 11.011 250.93 10.2641C250.208 9.65231 249.284 9.31563 248.33 9.31563C247.375 9.31563 246.452 9.65231 245.729 10.2641C245.06 11.01 244.719 11.985 244.782 12.9761V22.773H239.118V4.67144H244.782Z" fill="#1D1D1B"/>
<path d="M286.697 4.67139H292.362V22.7729H286.697V20.1129C285.527 22.0117 283.661 22.9633 281.099 22.9676C280.14 23.0028 279.183 22.8357 278.295 22.4775C277.407 22.1193 276.608 21.5784 275.952 20.8914C274.627 19.5073 273.964 17.6258 273.964 15.2468V4.67139H279.595V14.5007C279.564 14.9905 279.631 15.4817 279.794 15.9459C279.956 16.4102 280.211 16.8385 280.543 17.2062C281.261 17.8257 282.186 18.1674 283.143 18.1674C284.1 18.1674 285.025 17.8257 285.743 17.2062C286.074 16.8381 286.328 16.4097 286.489 15.9454C286.651 15.4811 286.717 14.9901 286.684 14.5007L286.697 4.67139Z" fill="#1D1D1B"/>
<path d="M302.63 4.67147V7.33155C303.796 5.4284 305.662 4.47683 308.228 4.47683C309.185 4.44441 310.137 4.61292 311.021 4.97103C311.906 5.32914 312.702 5.86855 313.356 6.55299C314.681 7.93494 315.343 9.797 315.343 12.1976V22.773H309.712V12.9761C309.775 11.985 309.434 11.01 308.765 10.2641C308.042 9.65234 307.119 9.31565 306.164 9.31565C305.209 9.31565 304.286 9.65234 303.564 10.2641C302.9 11.012 302.564 11.9868 302.63 12.9761V22.773H296.966V4.67147H302.63Z" fill="#1D1D1B"/>
<path d="M327.56 23.0001C326.336 23.0422 325.116 22.8376 323.977 22.399C322.837 21.9604 321.802 21.2971 320.935 20.4503C319.212 18.7591 318.351 16.5056 318.351 13.6898C318.351 10.874 319.208 8.63565 320.922 6.97472C321.795 6.14008 322.833 5.48821 323.972 5.05879C325.111 4.62937 326.327 4.43137 327.546 4.47684C330.042 4.39697 332.47 5.28266 334.304 6.94228C336.07 8.58591 336.965 10.8675 336.987 13.7871C336.992 14.3736 336.948 14.9596 336.854 15.5389H324.135C324.238 16.2792 324.606 16.9596 325.174 17.4586C325.742 17.9577 326.472 18.2431 327.235 18.2639C327.778 18.2871 328.32 18.2169 328.838 18.0562C329.119 17.9545 329.382 17.8124 329.62 17.6345C329.86 17.4189 330.081 17.1846 330.282 16.9338H336.41C335.904 18.7174 334.78 20.2727 333.231 21.3327C331.57 22.4655 329.583 23.0497 327.56 23.0001ZM329.978 10.0241C329.316 9.49198 328.482 9.20896 327.626 9.22606C326.789 9.20322 325.974 9.4879 325.34 10.0241C324.719 10.5551 324.309 11.2832 324.181 12.0808H331.104C331.072 11.6784 330.956 11.2868 330.762 10.9306C330.568 10.5744 330.301 10.2614 329.978 10.0111V10.0241Z" fill="#1D1D1B"/>
<path d="M32.071 22.7728C30.7956 21.8019 29.8617 20.4651 29.4 18.949C28.9382 17.4329 28.9717 15.8135 29.4957 14.317C30.0197 12.8204 31.0081 11.5217 32.3226 10.6021C33.6372 9.68263 35.2122 9.18833 36.8277 9.18833C38.4431 9.18833 40.0182 9.68263 41.3327 10.6021C42.6473 11.5217 43.6356 12.8204 44.1596 14.317C44.6837 15.8135 44.7171 17.4329 44.2554 18.949C43.7937 20.4651 42.8598 21.8019 41.5843 22.7728H47.8316C48.8984 20.8964 49.4462 18.7797 49.4207 16.6322C49.3951 14.4846 48.7972 12.3809 47.686 10.5294C46.5748 8.67787 44.989 7.14278 43.0856 6.07618C41.1822 5.00958 39.0273 4.44849 36.8343 4.44849C34.6413 4.44849 32.4864 5.00958 30.583 6.07618C28.6797 7.14278 27.0938 8.67787 25.9826 10.5294C24.8714 12.3809 24.2735 14.4846 24.2479 16.6322C24.2224 18.7797 24.7702 20.8964 25.837 22.7728H32.071Z" fill="#1D1D1B"/>
</g>
<defs>
<clipPath id="clip0_640_1001">
<rect width="337" height="23" fill="white"/>
</clipPath>
</defs>
</svg>
