<svg width="238" height="46" viewBox="0 0 238 46" fill="none" xmlns="http://www.w3.org/2000/svg">
<path d="M3.02232 35.7775C3.02232 35.958 3.1139 36.1385 3.29707 36.1385H10.5323C10.8987 36.1385 11.1734 36.4092 11.1734 36.7701V38.4846C11.1734 38.8456 10.8987 39.1163 10.5323 39.1163H0.641098C0.274756 39.1163 0 38.8456 0 38.4846V17.5496C0 17.1887 0.274756 16.9179 0.641098 16.9179H2.38122C2.74756 16.9179 3.02232 17.1887 3.02232 17.5496V35.7775Z" fill="white"/>
<path d="M12.2908 24.2285C12.2908 23.8565 12.574 23.5774 12.9517 23.5774H14.6513C15.029 23.5774 15.3123 23.8565 15.3123 24.2285V33.9945C15.3123 35.8547 16.6342 37.2499 18.9948 37.2499C21.0721 37.2499 22.6773 36.0408 22.6773 34.1806V24.2285C22.6773 23.8565 22.9606 23.5774 23.3383 23.5774H25.0379C25.4156 23.5774 25.6989 23.8565 25.6989 24.2285V39.2031C25.6989 39.5751 25.4156 39.8542 25.0379 39.8542H23.6215C23.4327 39.8542 23.2439 39.7612 23.1494 39.6682C22.9606 39.4821 22.6773 39.1101 22.2996 39.1101C21.3554 39.1101 21.1665 40.2262 18.7115 40.2262C14.9346 40.2262 12.3852 37.6219 12.3852 33.9945V24.2285H12.2908Z" fill="white"/>
<path d="M42.459 38.4652C42.459 38.8373 42.1757 39.1163 41.798 39.1163H40.0984C39.7207 39.1163 39.4374 38.8373 39.4374 38.4652V28.6992C39.4374 26.653 37.8323 25.4438 35.7549 25.4438C33.6776 25.4438 32.0724 26.653 32.0724 28.5132V38.4652C32.0724 38.8373 31.7892 39.1163 31.4115 39.1163H29.7119C29.3342 39.1163 29.0509 38.8373 29.0509 38.4652V23.4906C29.0509 23.1186 29.3342 22.8396 29.7119 22.8396H31.1282C31.317 22.8396 31.4115 22.9326 31.6003 23.0256C31.7892 23.2116 32.0724 23.5836 32.4501 23.5836C33.3944 23.5836 33.6776 22.4675 36.0382 22.4675C39.7207 22.4675 42.3646 24.7928 42.3646 28.6992V38.4652H42.459Z" fill="white"/>
<path d="M54.9356 23.5731C55.3194 23.5731 55.6072 23.2967 55.7991 23.0203C55.8951 22.9282 56.087 22.836 56.2788 22.836H57.4302C57.8139 22.836 58.1018 23.1124 58.1018 23.4809V39.9718C58.1018 43.1041 55.5113 45.7758 51.9614 45.7758C48.9871 45.7758 46.3007 44.3018 45.821 41.3537C45.7251 40.893 45.917 40.6167 46.3967 40.6167H48.0277C48.6993 40.6167 48.7953 40.893 48.8912 41.2616C49.3709 42.3671 50.2344 42.9198 51.9614 42.9198C53.6884 42.9198 55.1275 41.7222 55.1275 39.9718V39.2347C55.1275 38.5899 54.8397 38.4977 54.36 38.4977C53.6884 38.4977 52.8249 39.3269 51.1938 39.3269C47.6439 39.3269 45.0535 36.563 44.7656 33.1543C44.6697 31.8645 44.6697 29.9299 44.7656 28.6401C45.0535 25.2314 47.6439 22.4675 51.1938 22.4675C53.5924 22.5597 53.8803 23.5731 54.9356 23.5731ZM55.3194 28.6401C55.2235 26.8897 53.7843 25.4156 51.4817 25.4156C49.179 25.4156 47.7399 26.8897 47.6439 28.6401C47.548 29.9299 47.548 31.8645 47.6439 33.1543C47.7399 34.9047 49.179 36.3788 51.4817 36.3788C53.7843 36.3788 55.2235 34.9047 55.3194 33.1543C55.4154 31.8645 55.4154 30.022 55.3194 28.6401Z" fill="white"/>
<path d="M63.6004 32.7661C63.4126 32.7661 63.3186 32.8571 63.3186 33.13C63.3186 36.0413 64.8215 37.315 67.1697 37.315C68.8603 37.315 70.1753 36.4962 70.551 35.3135C70.645 34.8586 71.0207 34.7676 71.3025 34.7676H72.9931C73.3689 34.7676 73.6506 34.9496 73.5567 35.4044C73.181 38.1337 70.551 40.2262 67.1697 40.2262C63.2247 40.2262 60.6887 37.4969 60.4069 34.1308C60.313 32.8571 60.313 30.9466 60.4069 29.6729C60.6887 26.3068 63.2247 23.5774 67.1697 23.5774C71.1146 23.5774 73.7446 25.9428 73.7446 29.9458V32.1293C73.7446 32.4932 73.4628 32.7661 73.0871 32.7661H63.6004ZM63.4126 29.8548C63.4126 30.0368 63.5065 30.2188 63.7883 30.2188H70.645C70.8328 30.2188 70.9267 30.1278 70.9267 29.8548C70.9267 27.6714 69.2361 26.3977 67.1697 26.3977C64.9154 26.3977 63.4126 27.9443 63.4126 29.8548Z" fill="white"/>
<path d="M84.7612 19.6927C82.8989 19.6927 81.5268 21.3039 81.5268 22.8256V23.2731C81.5268 23.4521 81.6248 23.5416 81.8208 23.5416H85.3492C85.7413 23.5416 86.0353 23.8102 86.0353 24.1682V25.7794C86.0353 26.1374 85.7413 26.406 85.3492 26.406H81.8208C81.6248 26.406 81.5268 26.4955 81.5268 26.764V38.4897C81.5268 38.8478 81.2327 39.1163 80.8407 39.1163H79.0764C78.6844 39.1163 78.3904 38.8478 78.3904 38.4897V26.764C78.3904 26.585 78.2923 26.406 78.0963 26.406H75.548C75.1559 26.406 74.8619 26.1374 74.8619 25.7794V24.1682C74.8619 23.8102 75.1559 23.5416 75.548 23.5416H78.0963C78.2923 23.5416 78.3904 23.4521 78.3904 23.2731V22.8256C78.3904 19.5137 81.1347 16.9179 84.7612 16.9179H85.1532C85.5453 16.9179 85.8393 17.1865 85.8393 17.5445V19.0662C85.8393 19.4242 85.5453 19.6927 85.1532 19.6927H84.7612Z" fill="white"/>
<path d="M87.2218 28.9693C87.4982 25.3788 89.9863 22.4675 93.8567 22.4675C97.7271 22.4675 100.215 25.3788 100.492 28.9693C100.584 30.3279 100.584 32.3658 100.492 33.7244C100.215 37.315 97.7271 40.2262 93.8567 40.2262C89.9863 40.2262 87.4982 37.315 87.2218 33.7244C87.1296 32.3658 87.1296 30.3279 87.2218 28.9693ZM90.1706 33.7244C90.2628 35.5682 91.6451 37.1209 93.8567 37.1209C96.0684 37.1209 97.4506 35.5682 97.5428 33.7244C97.6349 32.3658 97.6349 30.3279 97.5428 28.9693C97.4506 27.1255 96.0684 25.5729 93.8567 25.5729C91.6451 25.5729 90.2628 27.1255 90.1706 28.9693C90.0785 30.425 90.0785 32.3658 90.1706 33.7244Z" fill="white"/>
<path d="M110.548 26.33C107.995 26.33 105.714 27.5731 105.714 31.0361V38.4947C105.714 38.8499 105.441 39.1163 105.076 39.1163H103.434C103.069 39.1163 102.795 38.8499 102.795 38.4947V24.199C102.795 23.8438 103.069 23.5774 103.434 23.5774H104.528C104.893 23.5774 105.076 23.755 105.167 24.199C105.258 24.643 105.258 25.2645 105.714 25.2645C106.444 25.2645 106.991 23.5774 110.457 23.5774H111.096C111.461 23.5774 111.734 23.8438 111.734 24.199V25.7085C111.734 26.0637 111.461 26.33 111.096 26.33H110.548Z" fill="white"/>
<path d="M116.209 32.7661C116.022 32.7661 115.834 32.8571 115.834 33.13C115.834 36.0413 117.337 37.315 119.685 37.315C121.375 37.315 122.69 36.4962 123.066 35.3135C123.16 34.8586 123.536 34.7676 123.818 34.7676H125.508C125.884 34.7676 126.166 34.9496 126.072 35.4044C125.696 38.1337 123.066 40.2262 119.685 40.2262C115.74 40.2262 113.204 37.4969 112.922 34.1308C112.828 32.8571 112.828 30.9466 112.922 29.6729C113.204 26.3068 115.74 23.5774 119.685 23.5774C123.63 23.5774 126.26 25.9428 126.26 29.9458V32.1293C126.26 32.4932 125.978 32.7661 125.602 32.7661H116.209ZM115.928 29.8548C115.928 30.0368 116.022 30.2188 116.303 30.2188H123.16C123.348 30.2188 123.536 30.1278 123.536 29.8548C123.536 27.6714 121.845 26.3977 119.779 26.3977C117.43 26.3977 115.928 27.9443 115.928 29.8548Z" fill="white"/>
<path d="M142.925 38.4652C142.925 38.8373 142.639 39.1163 142.259 39.1163H140.547C140.167 39.1163 139.882 38.8373 139.882 38.4652V28.6992C139.882 26.653 138.265 25.4438 136.173 25.4438C134.081 25.4438 132.464 26.653 132.464 28.5132V38.4652C132.464 38.8373 132.179 39.1163 131.799 39.1163H130.277C129.897 39.1163 129.612 38.8373 129.612 38.4652V23.4906C129.612 23.1186 129.897 22.8396 130.277 22.8396H131.704C131.894 22.8396 131.989 22.9326 132.179 23.0256C132.369 23.2116 132.655 23.5836 133.035 23.5836C133.986 23.5836 134.271 22.4675 136.649 22.4675C140.357 22.4675 143.02 24.7928 143.02 28.6992V38.4652H142.925Z" fill="white"/>
<path d="M149.724 19.6032C149.724 19.8718 149.538 20.1403 149.165 20.1403H146.93C146.651 20.1403 146.372 19.9613 146.372 19.6032V17.455C146.372 17.1865 146.558 16.9179 146.93 16.9179H149.165C149.444 16.9179 149.724 17.1865 149.724 17.455V19.6032ZM149.631 38.4897C149.631 38.8478 149.351 39.1163 148.979 39.1163H147.303C146.93 39.1163 146.651 38.8478 146.651 38.4897V24.0787C146.651 23.7207 146.93 23.4521 147.303 23.4521H148.979C149.351 23.4521 149.631 23.7207 149.631 24.0787V38.4897Z" fill="white"/>
<path d="M166.484 38.4652C166.484 38.8373 166.201 39.1163 165.823 39.1163H164.123C163.746 39.1163 163.462 38.8373 163.462 38.4652V28.6992C163.462 26.653 161.857 25.4438 159.78 25.4438C157.703 25.4438 156.097 26.653 156.097 28.5132V38.4652C156.097 38.8373 155.814 39.1163 155.436 39.1163H153.737C153.359 39.1163 153.076 38.8373 153.076 38.4652V23.4906C153.076 23.1186 153.359 22.8396 153.737 22.8396H155.153C155.342 22.8396 155.531 22.9326 155.625 23.0256C155.814 23.2116 156.097 23.5836 156.475 23.5836C157.419 23.5836 157.703 22.4675 160.063 22.4675C163.746 22.4675 166.39 24.7928 166.39 28.6992V38.4652H166.484Z" fill="white"/>
<path d="M178.961 23.5731C179.248 23.5731 179.632 23.2967 179.824 23.0203C179.92 22.9282 180.112 22.836 180.304 22.836H181.455C181.839 22.836 182.127 23.1124 182.127 23.4809V39.9718C182.127 43.1041 179.536 45.7758 175.986 45.7758C173.012 45.7758 170.326 44.3018 169.846 41.3537C169.75 40.893 169.942 40.6167 170.422 40.6167H172.053C172.724 40.6167 172.82 40.893 172.916 41.2616C173.396 42.3671 174.259 42.9198 175.986 42.9198C177.713 42.9198 179.152 41.7222 179.152 39.9718V39.2347C179.152 38.5899 178.865 38.4977 178.385 38.4977C177.713 38.4977 176.85 39.3269 175.219 39.3269C171.669 39.3269 169.078 36.563 168.791 33.1543C168.695 31.8645 168.695 29.9299 168.791 28.6401C169.078 25.2314 171.669 22.4675 175.219 22.4675C177.713 22.5597 178.001 23.5731 178.961 23.5731ZM179.44 28.6401C179.344 26.8897 177.905 25.4156 175.603 25.4156C173.3 25.4156 171.861 26.8897 171.765 28.6401C171.669 29.9299 171.669 31.8645 171.765 33.1543C171.861 34.9047 173.3 36.3788 175.603 36.3788C177.905 36.3788 179.344 34.9047 179.44 33.1543C179.536 31.8645 179.536 30.022 179.44 28.6401Z" fill="white"/>
<path d="M187.625 32.7661C187.438 32.7661 187.344 32.8571 187.344 33.13C187.344 36.0413 188.846 37.315 191.195 37.315C192.885 37.315 194.2 36.4962 194.576 35.3135C194.67 34.8586 195.046 34.7676 195.327 34.7676H197.018C197.394 34.7676 197.676 34.9496 197.582 35.4044C197.206 38.1337 194.576 40.2262 191.195 40.2262C187.25 40.2262 184.714 37.4969 184.432 34.1308C184.338 32.8571 184.338 30.9466 184.432 29.6729C184.714 26.3068 187.25 23.5774 191.195 23.5774C195.14 23.5774 197.77 25.9428 197.77 29.9458V32.1293C197.77 32.4932 197.488 32.7661 197.112 32.7661H187.625ZM187.344 29.8548C187.344 30.0368 187.438 30.2188 187.719 30.2188H194.576C194.764 30.2188 194.858 30.1278 194.858 29.8548C194.858 27.6714 193.167 26.3977 191.101 26.3977C188.846 26.3977 187.344 27.9443 187.344 29.8548Z" fill="white"/>
<path d="M213.412 38.4652C213.412 38.8373 213.129 39.1163 212.751 39.1163H211.052C210.674 39.1163 210.391 38.8373 210.391 38.4652V28.6992C210.391 26.653 208.786 25.4438 206.708 25.4438C204.631 25.4438 203.026 26.653 203.026 28.5132V38.4652C203.026 38.8373 202.742 39.1163 202.365 39.1163H200.665C200.287 39.1163 200.004 38.8373 200.004 38.4652V23.4906C200.004 23.1186 200.287 22.8396 200.665 22.8396H202.081C202.27 22.8396 202.365 22.9326 202.554 23.0256C202.742 23.2116 203.026 23.5836 203.403 23.5836C204.348 23.5836 204.631 22.4675 206.991 22.4675C210.674 22.4675 213.318 24.7928 213.318 28.6992V38.4652H213.412Z" fill="white"/>
<path d="M218.826 21.3933L218.728 21.2974L218.435 20.8183L218.337 20.5307C218.141 20.3391 218.141 20.1474 218.141 19.8599V19.5724C218.141 19.2849 218.141 18.9974 218.239 18.7099L218.337 18.1348C218.337 17.7515 218.533 17.3682 218.63 17.0806L218.728 16.889C218.826 16.6973 219.022 16.5056 219.119 16.314H218.63C218.337 16.314 218.044 16.4098 217.848 16.4098C217.652 16.4098 217.359 16.4098 217.163 16.5056C216.87 16.5056 216.479 16.5056 216.186 16.4098C215.892 16.314 215.599 16.2181 215.305 16.1223C214.914 15.9306 214.621 15.7389 214.425 15.3556C214.23 15.0681 214.132 14.6847 214.034 14.3972C213.838 13.918 213.643 13.4389 213.643 12.8638C213.643 12.6722 213.643 12.3847 213.741 12.193C213.838 12.0013 213.838 11.9055 214.034 11.7138V11.618L214.132 11.4263V11.3305C214.327 11.1388 214.621 10.9471 214.816 10.7554L215.208 10.4679L215.697 10.1804L215.99 10.0846L216.381 9.89292L216.088 9.60541C215.697 9.22207 215.501 8.74289 215.208 8.26371C215.11 8.07203 214.914 7.78453 214.816 7.49702C214.719 7.20951 214.621 6.922 214.621 6.63449C214.621 6.25114 214.719 5.77196 214.816 5.38862C214.914 5.10111 215.012 4.8136 215.208 4.62193L215.501 4.33442L215.99 3.85524C216.186 3.7594 216.381 3.66357 216.577 3.47189L217.066 3.28022C217.359 3.18438 217.652 3.18438 217.946 3.28022C218.239 3.37606 218.533 3.28022 218.728 3.37606C218.924 3.37606 219.119 3.47189 219.413 3.56773C219.706 3.66357 219.902 3.85524 220.195 3.95107V3.66356C220.195 3.28022 220.195 2.99271 220.195 2.60937C220.195 2.13018 220.391 1.74684 220.391 1.26766C220.391 0.98015 220.586 0.692641 220.782 0.405132C220.977 0.117623 221.271 -0.0740491 221.564 -0.265722L221.955 -0.55323C222.347 -0.649067 222.738 -0.840739 223.129 -0.936576C223.422 -1.03241 223.814 -0.936576 224.107 -0.744903L224.596 -0.457394L225.085 -0.169885C225.28 0.0217871 225.476 0.117623 225.672 0.309296C225.867 0.500969 226.063 0.692641 226.258 0.98015C226.356 1.17182 226.454 1.36349 226.552 1.651L226.747 1.93851L226.845 1.84268C227.041 1.651 227.139 1.36349 227.432 1.17182C227.628 0.98015 227.921 0.788477 228.214 0.692641L228.508 0.500968C228.703 0.405132 228.899 0.309296 229.192 0.21346C229.486 0.117623 229.779 0.0217871 230.17 0.0217871C230.561 0.0217871 230.953 0.117623 231.344 0.309296L231.833 0.596805C232.028 0.788477 232.224 0.98015 232.42 1.17182L232.517 1.26766L232.811 1.651V1.74684C233.006 1.93851 233.104 2.22602 233.202 2.51353C233.3 2.80104 233.3 3.08855 233.397 3.47189C233.397 3.7594 233.495 4.04691 233.495 4.43026C233.495 4.8136 233.397 5.10111 233.104 5.38862L232.908 5.67613C233.202 5.58029 233.495 5.58029 233.789 5.48445C234.18 5.38862 234.571 5.38862 235.06 5.38862C235.647 5.48445 236.234 5.67613 236.625 6.05947C236.918 6.34698 237.309 6.73033 237.505 7.20951L237.798 7.78453C237.896 8.16787 237.994 8.45538 238.092 8.83872C238.189 9.0304 238.189 9.31791 238.092 9.50958C237.994 9.79709 237.896 10.0846 237.7 10.3721C237.603 10.5638 237.407 10.7554 237.309 10.9471C237.016 11.3305 236.625 11.618 236.234 11.8096C235.842 12.0013 235.451 12.0972 235.158 12.2888L235.353 12.3847C235.647 12.6722 235.842 12.8638 236.136 13.1514C236.331 13.343 236.625 13.6305 236.82 13.8222L237.114 14.2056C237.211 14.3972 237.309 14.5889 237.407 14.7806L237.505 15.1639C237.505 15.4514 237.505 15.7389 237.505 16.0264L237.407 16.5056C237.309 16.7931 237.114 17.0806 237.016 17.3682C236.918 17.5598 236.722 17.8473 236.527 17.9432L236.136 18.1348C235.94 18.2307 235.745 18.4224 235.549 18.5182C235.256 18.7099 234.962 18.8057 234.669 18.9015C234.18 18.9974 233.691 18.9015 233.202 18.7099C233.006 18.7099 232.811 18.5182 232.615 18.5182L232.322 18.4224L232.42 18.614L232.517 18.8057C232.713 19.189 232.713 19.6682 232.615 20.0516C232.517 20.4349 232.419 20.8183 232.322 21.1058C232.126 21.4891 231.931 21.8725 231.539 22.16L231.148 22.4475C230.953 22.735 230.659 22.8308 230.268 22.9267C229.681 23.1183 229.192 23.2142 228.605 23.1183C228.214 23.0225 227.823 22.9267 227.53 22.735L227.139 22.4475L226.845 22.0641L226.65 21.7766L226.258 21.3933C225.965 21.2016 225.867 20.8183 225.769 20.5307L225.672 20.3391L225.378 20.6266C225.183 21.0099 224.889 21.2974 224.498 21.5849C224.009 21.8725 223.52 22.16 223.031 22.4475C222.64 22.6391 222.249 22.6391 221.858 22.6391L221.271 22.5433L220.684 22.3516L220.097 22.0641C219.413 21.7766 219.119 21.6808 218.826 21.3933ZM235.06 17.1765L235.451 16.7931L235.745 16.4098C235.94 16.1223 236.136 15.8348 236.234 15.4514C236.331 15.0681 236.331 14.6847 236.136 14.3014C235.94 13.7264 235.451 13.343 235.06 12.9597C234.669 12.6722 234.18 12.4805 233.691 12.2888C233.3 12.193 233.006 12.0972 232.615 11.9055C232.322 11.8096 231.931 11.7138 231.539 11.7138C231.148 11.7138 230.855 11.7138 230.464 11.8096C230.268 11.9055 229.975 11.8096 229.681 11.9055C229.388 12.0013 229.094 12.3847 229.29 12.6722L229.388 12.8638C229.388 13.2472 229.486 13.5347 229.681 13.918L229.779 14.3014C229.975 14.6847 230.268 15.0681 230.561 15.3556L230.953 15.8348C231.148 16.0264 231.344 16.2181 231.539 16.4098C231.735 16.6015 232.028 16.7931 232.322 16.9848L232.713 17.1765C233.104 17.2723 233.495 17.3682 233.886 17.464C234.18 17.5598 234.375 17.464 234.669 17.3682L235.06 17.1765ZM215.892 15.2598C216.088 15.3556 216.283 15.5473 216.479 15.6431C216.87 15.8348 217.359 15.8348 217.848 15.7389C218.044 15.7389 218.239 15.6431 218.435 15.6431C218.728 15.5473 218.924 15.4514 219.217 15.3556C219.608 15.2598 219.902 15.0681 220.293 14.9722L220.684 14.7806C220.977 14.5889 221.271 14.3014 221.564 14.0139L221.76 13.7264L222.053 13.4389C222.249 13.2472 222.444 12.9597 222.64 12.768C222.836 12.5763 222.836 12.2888 222.738 12.0972L222.347 11.7138C222.151 11.618 221.858 11.5221 221.662 11.3305C221.271 11.1388 220.782 10.9471 220.391 10.8513L220 10.7554C219.511 10.7554 219.119 10.6596 218.63 10.6596C218.239 10.6596 217.848 10.6596 217.457 10.7554C217.163 10.8513 216.87 10.9471 216.577 10.9471C216.186 11.043 215.794 11.2346 215.501 11.5221L215.208 12.0013C215.11 12.193 215.012 12.3847 215.012 12.5763L214.914 13.1514C214.914 13.343 214.914 13.5347 214.914 13.7264C215.012 14.0139 215.11 14.3014 215.305 14.5889C215.599 14.7806 215.697 15.0681 215.892 15.2598ZM221.662 6.15531C221.369 5.96364 221.173 5.67613 220.88 5.48445C220.586 5.29278 220.293 5.10111 220 4.90944C219.706 4.71776 219.315 4.62193 218.924 4.52609C218.533 4.43026 218.141 4.43026 217.848 4.43026C216.968 4.62193 216.381 5.19695 216.088 5.96364C215.99 6.25114 215.892 6.63449 215.892 6.922C215.892 7.11367 215.99 7.40118 216.088 7.59285C216.186 7.78453 216.381 7.9762 216.479 8.07203C216.674 8.35954 216.968 8.55122 217.261 8.74289C217.457 8.83872 217.652 8.93456 217.946 9.0304C218.337 9.12623 218.63 9.31791 219.022 9.41374C219.315 9.50958 219.608 9.50958 219.902 9.50958C220 9.50958 220.097 9.50958 220.293 9.50958C220.586 9.50958 220.88 9.50958 221.075 9.50958C221.173 9.50958 221.271 9.50958 221.369 9.50958C221.564 9.50958 221.76 9.50958 221.955 9.50958C222.249 9.41374 222.542 9.31791 222.836 9.22207C223.129 9.12623 223.325 8.93456 223.227 8.55122L223.129 8.16787L222.933 7.78453C222.738 7.49702 222.542 7.20951 222.347 6.922C222.151 6.82616 221.858 6.44282 221.662 6.15531ZM228.997 14.8764L228.703 14.6847L228.41 14.4931L227.921 14.2056C227.628 14.1097 227.334 14.2056 227.139 14.3014C226.943 14.4931 226.747 14.6847 226.65 14.9722L226.356 15.5473L226.258 15.9306C226.161 16.1223 226.063 16.314 226.063 16.5056C226.063 16.7931 225.965 16.9848 225.965 17.2723C225.965 17.5598 225.867 17.8473 225.867 18.039C225.867 18.3265 225.867 18.614 225.867 18.9015C225.867 19.189 225.965 19.4766 226.063 19.7641C226.161 20.0516 226.258 20.3391 226.356 20.6266C226.552 21.0099 226.845 21.2016 227.236 21.3933C227.432 21.4891 227.725 21.5849 228.019 21.5849C228.312 21.6808 228.606 21.6808 228.801 21.4891H228.899L229.29 21.3933C229.681 21.2016 230.072 20.9141 230.366 20.5307L230.561 20.1474C230.659 19.7641 230.659 19.3807 230.659 18.9974C230.659 18.4224 230.464 17.9432 230.366 17.3682L230.072 16.7931C229.975 16.6015 229.877 16.314 229.779 16.1223C229.583 15.8348 229.388 15.5473 229.192 15.2598L228.997 14.8764ZM220 20.3391C220.195 20.5307 220.391 20.7224 220.586 20.8183L221.075 21.0099C221.369 21.1058 221.662 21.1058 221.858 21.1058C222.151 21.1058 222.444 21.0099 222.64 20.8183C222.933 20.5307 223.325 20.2432 223.618 19.9557C223.814 19.7641 224.009 19.5724 224.107 19.3807C224.303 18.9974 224.498 18.5182 224.694 18.1348C224.889 17.7515 224.889 17.3682 224.987 17.0806C225.085 16.7931 224.987 16.5056 224.987 16.1223V15.5473C224.987 15.2598 224.987 14.9722 224.889 14.7806L224.694 14.3972C224.498 14.2056 224.205 14.2056 224.009 14.2056C223.618 14.3014 223.325 14.3972 223.031 14.4931C222.64 14.5889 222.249 14.7806 221.955 14.9722L221.76 15.0681C221.466 15.2598 221.271 15.4514 220.977 15.7389C220.782 15.9306 220.586 16.2181 220.391 16.4098L220.195 16.6973L219.902 17.1765C219.804 17.3682 219.706 17.5598 219.608 17.7515C219.511 18.039 219.511 18.4224 219.413 18.7099C219.315 18.9974 219.413 19.2849 219.511 19.4766C219.706 19.8599 219.902 20.0516 220 20.3391ZM225.28 1.07599L224.987 0.884314L224.498 0.596805C224.107 0.405132 223.716 0.21346 223.325 0.309296C222.836 0.405132 222.347 0.500968 221.955 0.884314L221.564 1.17182C221.369 1.36349 221.173 1.651 221.173 1.93851V2.51353C221.173 2.99271 221.271 3.47189 221.369 3.85524C221.466 4.04691 221.564 4.33442 221.662 4.52609C221.858 4.8136 222.053 5.19695 222.249 5.48445C222.444 5.8678 222.738 6.05947 222.933 6.34698C223.227 6.63449 223.52 6.82616 223.814 7.01783C224.205 7.30534 224.596 7.49702 224.987 7.59285H225.183C225.476 7.40118 225.672 7.20951 225.769 6.922C225.867 6.63449 225.965 6.44282 226.063 6.15531C226.161 5.96364 226.161 5.67613 226.258 5.48445C226.258 5.00527 226.258 4.62193 226.258 4.14275C226.258 3.85524 226.258 3.66357 226.258 3.37606C226.161 2.99271 226.161 2.60937 226.063 2.32186C225.965 2.13019 225.867 1.93851 225.867 1.74684C225.574 1.55517 225.476 1.26766 225.28 1.07599ZM224.596 9.60541L224.498 9.70125L224.4 9.79709C224.205 9.89292 224.107 10.1804 224.107 10.3721L224.009 10.7554C223.911 11.043 223.911 11.2346 224.009 11.5221C224.107 11.8096 224.205 12.0972 224.4 12.3847C224.596 12.5763 224.791 12.8638 224.987 13.0555C225.28 13.343 225.769 13.343 226.161 13.4389H226.356C226.552 13.343 226.845 13.2472 227.041 13.1514C227.236 12.9597 227.53 12.8638 227.725 12.5763C227.921 12.2888 228.117 12.0013 228.214 11.7138C228.312 11.4263 228.312 11.043 228.214 10.7554C228.117 10.3721 227.921 10.0846 227.628 9.79709C227.334 9.50958 227.139 9.31791 226.747 9.22207L226.258 9.12623C225.965 9.12623 225.769 9.22207 225.476 9.22207C225.183 9.31791 224.889 9.41374 224.596 9.60541ZM229.681 10.4679L229.877 10.6596C230.072 10.7554 230.268 10.8513 230.464 10.8513L230.953 11.043C231.246 11.1388 231.637 11.1388 231.931 11.1388C232.322 11.1388 232.713 11.2346 233.104 11.2346C233.495 11.2346 233.886 11.1388 234.278 11.043C234.571 10.9471 234.864 10.8513 235.06 10.7554C235.256 10.6596 235.451 10.4679 235.745 10.3721L236.136 9.98876L236.429 9.60541C236.625 9.41374 236.722 9.22207 236.722 8.93456C236.722 8.74289 236.722 8.45538 236.722 8.26371C236.722 7.88036 236.625 7.59285 236.429 7.30534L236.038 6.82616L235.745 6.53865C235.549 6.44282 235.256 6.25114 234.962 6.15531C234.669 6.05947 234.278 6.05947 233.984 6.15531L233.691 6.25114C233.202 6.25114 232.811 6.44282 232.42 6.63449C231.931 6.922 231.442 7.30534 231.05 7.68869C230.757 7.88036 230.561 8.16787 230.366 8.45538C230.072 8.74289 229.877 9.0304 229.681 9.41374L229.486 9.70125L229.29 10.1804L229.681 10.4679ZM230.561 6.82616C230.757 6.63449 230.953 6.44282 231.148 6.25114C231.344 5.96364 231.539 5.67613 231.735 5.38862C231.833 5.19695 232.028 5.00527 232.126 4.8136C232.322 4.52609 232.42 4.14275 232.42 3.7594V3.28022C232.42 2.89688 232.322 2.60937 232.126 2.22602C231.931 1.93851 231.735 1.651 231.442 1.45933C231.148 1.26766 230.855 1.17182 230.561 0.98015C230.268 0.884313 229.877 0.788477 229.583 0.884314C229.192 0.98015 228.899 1.26766 228.508 1.45933C228.214 1.74684 227.921 2.03435 227.725 2.41769C227.628 2.7052 227.432 2.99271 227.334 3.28022L227.139 3.85524C227.041 4.14275 227.041 4.43026 227.041 4.71776V5.00527C227.041 5.29278 227.041 5.48445 227.041 5.77196V6.15531C227.041 6.44282 227.139 6.73033 227.139 7.01783C227.236 7.20951 227.236 7.49702 227.432 7.68869L227.921 7.9762H228.019C228.214 7.88036 228.508 7.88036 228.703 7.78453C228.997 7.59285 229.388 7.40118 229.681 7.20951C229.877 7.20951 230.268 7.01784 230.561 6.82616Z" fill="white"/>
<path d="M225.769 11.5221L226.161 11.7138C226.356 11.7138 226.454 11.5221 226.552 11.3305V11.043L226.356 10.7554L226.161 10.6596L225.769 10.7554L225.574 11.043L225.769 11.5221Z" fill="white"/>
</svg>
