<?xml version="1.0" encoding="utf-8"?>
<!-- Generator: Adobe Illustrator 25.4.1, SVG Export Plug-In . SVG Version: 6.00 Build 0)  -->
<svg version="1.1" id="Layer_1" xmlns="http://www.w3.org/2000/svg" xmlns:xlink="http://www.w3.org/1999/xlink" x="0px" y="0px"
	 viewBox="0 0 252.5 49.8" style="enable-background:new 0 0 252.5 49.8;" xml:space="preserve">
<style type="text/css">
	.st0{fill:#FFFFFF;}
	.st1{opacity:0.7;fill:#FFFFFF;}
	.st2{opacity:0.3;fill:#FFFFFF;}
</style>
<g>
	<path class="st0" d="M3.3,38.8c0,0.2,0.1,0.4,0.3,0.4h7.9c0.4,0,0.7,0.3,0.7,0.7v1.9c0,0.4-0.3,0.7-0.7,0.7H0.7
		c-0.4,0-0.7-0.3-0.7-0.7V18.6c0-0.4,0.3-0.7,0.7-0.7h1.9c0.4,0,0.7,0.3,0.7,0.7V38.8z"/>
	<path class="st0" d="M13.5,25.6c0-0.4,0.3-0.7,0.7-0.7H16c0.4,0,0.7,0.3,0.7,0.7v10.5c0,2,1.4,3.5,3.9,3.5c2.2,0,3.9-1.3,3.9-3.3
		V25.6c0-0.4,0.3-0.7,0.7-0.7h1.8c0.4,0,0.7,0.3,0.7,0.7v16.1c0,0.4-0.3,0.7-0.7,0.7h-1.5c-0.2,0-0.4-0.1-0.5-0.2
		c-0.2-0.2-0.5-0.6-0.9-0.6c-1,0-1.2,1.2-3.8,1.2c-4,0-6.7-2.8-6.7-6.7V25.6z"/>
	<path class="st0" d="M45.1,41.7c0,0.4-0.3,0.7-0.7,0.7h-1.8c-0.4,0-0.7-0.3-0.7-0.7V31.2c0-2.2-1.7-3.5-3.9-3.5
		c-2.2,0-3.9,1.3-3.9,3.3v10.7c0,0.4-0.3,0.7-0.7,0.7h-1.8c-0.4,0-0.7-0.3-0.7-0.7V25.6c0-0.4,0.3-0.7,0.7-0.7h1.5
		c0.2,0,0.3,0.1,0.5,0.2c0.2,0.2,0.5,0.6,0.9,0.6c1,0,1.3-1.2,3.8-1.2c3.9,0,6.7,2.5,6.7,6.7V41.7z"/>
	<path class="st0" d="M58.6,25.7c0.4,0,0.7-0.3,0.9-0.6c0.1-0.1,0.3-0.2,0.5-0.2h1.2c0.4,0,0.7,0.3,0.7,0.7v17.9
		c0,3.4-2.7,6.3-6.4,6.3c-3.1,0-5.9-1.6-6.4-4.8c-0.1-0.5,0.1-0.8,0.6-0.8h1.7c0.7,0,0.8,0.3,0.9,0.7c0.5,1.2,1.4,1.8,3.2,1.8
		c1.8,0,3.3-1.3,3.3-3.2v-0.8c0-0.7-0.3-0.8-0.8-0.8c-0.7,0-1.6,0.9-3.3,0.9c-3.7,0-6.4-3-6.7-6.7c-0.1-1.4-0.1-3.5,0-4.9
		c0.3-3.7,3-6.7,6.7-6.7C57.2,24.6,57.5,25.7,58.6,25.7 M59,31.2c-0.1-1.9-1.6-3.5-4-3.5c-2.4,0-3.9,1.6-4,3.5
		c-0.1,1.4-0.1,3.5,0,4.9c0.1,1.9,1.6,3.5,4,3.5c2.4,0,3.9-1.6,4-3.5C59.1,34.7,59.1,32.7,59,31.2"/>
	<path class="st0" d="M68.3,34.7c-0.2,0-0.3,0.1-0.3,0.4c0,3.2,1.6,4.6,4.1,4.6c1.8,0,3.2-0.9,3.6-2.2c0.1-0.5,0.5-0.6,0.8-0.6h1.8
		c0.4,0,0.7,0.2,0.6,0.7c-0.4,3-3.2,5.3-6.8,5.3c-4.2,0-6.9-3-7.2-6.7c-0.1-1.4-0.1-3.5,0-4.9c0.3-3.7,3-6.7,7.2-6.7
		c4.2,0,7,2.6,7,7V34c0,0.4-0.3,0.7-0.7,0.7H68.3z M68.1,31.5c0,0.2,0.1,0.4,0.4,0.4h7.3c0.2,0,0.3-0.1,0.3-0.4c0-2.4-1.8-3.8-4-3.8
		C69.7,27.7,68.1,29.4,68.1,31.5"/>
	<path class="st0" d="M90.2,20.7c-1.9,0-3.3,1.8-3.3,3.5v0.5c0,0.2,0.1,0.3,0.3,0.3h3.6c0.4,0,0.7,0.3,0.7,0.7v1.8
		c0,0.4-0.3,0.7-0.7,0.7h-3.6c-0.2,0-0.3,0.1-0.3,0.4v13.1c0,0.4-0.3,0.7-0.7,0.7h-1.8c-0.4,0-0.7-0.3-0.7-0.7V28.6
		c0-0.2-0.1-0.4-0.3-0.4h-2.6c-0.4,0-0.7-0.3-0.7-0.7v-1.8c0-0.4,0.3-0.7,0.7-0.7h2.6c0.2,0,0.3-0.1,0.3-0.3v-0.5
		c0-3.7,2.8-6.6,6.5-6.6h0.4c0.4,0,0.7,0.3,0.7,0.7V20c0,0.4-0.3,0.7-0.7,0.7H90.2z"/>
	<path class="st0" d="M92.5,31.2c0.3-3.7,3-6.7,7.2-6.7s6.9,3,7.2,6.7c0.1,1.4,0.1,3.5,0,4.9c-0.3,3.7-3,6.7-7.2,6.7s-6.9-3-7.2-6.7
		C92.4,34.7,92.4,32.6,92.5,31.2 M95.7,36.1c0.1,1.9,1.6,3.5,4,3.5s3.9-1.6,4-3.5c0.1-1.4,0.1-3.5,0-4.9c-0.1-1.9-1.6-3.5-4-3.5
		s-3.9,1.6-4,3.5C95.6,32.7,95.6,34.7,95.7,36.1"/>
	<path class="st0" d="M118.3,28c-2.8,0-5.3,1.4-5.3,5.3v8.4c0,0.4-0.3,0.7-0.7,0.7h-1.8c-0.4,0-0.7-0.3-0.7-0.7V25.6
		c0-0.4,0.3-0.7,0.7-0.7h1.2c0.4,0,0.6,0.2,0.7,0.7c0.1,0.5,0.1,1.2,0.6,1.2c0.8,0,1.4-1.9,5.2-1.9h0.7c0.4,0,0.7,0.3,0.7,0.7v1.7
		c0,0.4-0.3,0.7-0.7,0.7H118.3z"/>
	<path class="st0" d="M124,34.7c-0.2,0-0.4,0.1-0.4,0.4c0,3.2,1.6,4.6,4.1,4.6c1.8,0,3.2-0.9,3.6-2.2c0.1-0.5,0.5-0.6,0.8-0.6h1.8
		c0.4,0,0.7,0.2,0.6,0.7c-0.4,3-3.2,5.3-6.8,5.3c-4.2,0-6.9-3-7.2-6.7c-0.1-1.4-0.1-3.5,0-4.9c0.3-3.7,3-6.7,7.2-6.7
		c4.2,0,7,2.6,7,7V34c0,0.4-0.3,0.7-0.7,0.7H124z M123.7,31.5c0,0.2,0.1,0.4,0.4,0.4h7.3c0.2,0,0.4-0.1,0.4-0.4c0-2.4-1.8-3.8-4-3.8
		C125.3,27.7,123.7,29.4,123.7,31.5"/>
	<path class="st0" d="M152.3,41.7c0,0.4-0.3,0.7-0.7,0.7h-1.8c-0.4,0-0.7-0.3-0.7-0.7V31.2c0-2.2-1.7-3.5-3.9-3.5
		c-2.2,0-3.9,1.3-3.9,3.3v10.7c0,0.4-0.3,0.7-0.7,0.7H139c-0.4,0-0.7-0.3-0.7-0.7V25.6c0-0.4,0.3-0.7,0.7-0.7h1.5
		c0.2,0,0.3,0.1,0.5,0.2c0.2,0.2,0.5,0.6,0.9,0.6c1,0,1.3-1.2,3.8-1.2c3.9,0,6.7,2.5,6.7,6.7V41.7z"/>
	<path class="st0" d="M159.4,20.6c0,0.3-0.2,0.6-0.6,0.6h-2.4c-0.3,0-0.6-0.2-0.6-0.6v-2.4c0-0.3,0.2-0.6,0.6-0.6h2.4
		c0.3,0,0.6,0.3,0.6,0.6V20.6z M159.3,41.7c0,0.4-0.3,0.7-0.7,0.7h-1.8c-0.4,0-0.7-0.3-0.7-0.7V25.6c0-0.4,0.3-0.7,0.7-0.7h1.8
		c0.4,0,0.7,0.3,0.7,0.7V41.7z"/>
	<path class="st0" d="M176.9,41.7c0,0.4-0.3,0.7-0.7,0.7h-1.8c-0.4,0-0.7-0.3-0.7-0.7V31.2c0-2.2-1.7-3.5-3.9-3.5
		c-2.2,0-3.9,1.3-3.9,3.3v10.7c0,0.4-0.3,0.7-0.7,0.7h-1.8c-0.4,0-0.7-0.3-0.7-0.7V25.6c0-0.4,0.3-0.7,0.7-0.7h1.5
		c0.2,0,0.4,0.1,0.5,0.2c0.2,0.2,0.5,0.6,0.9,0.6c1,0,1.3-1.2,3.8-1.2c3.9,0,6.7,2.5,6.7,6.7V41.7z"/>
	<path class="st0" d="M190.3,25.7c0.3,0,0.7-0.3,0.9-0.6c0.1-0.1,0.3-0.2,0.5-0.2h1.2c0.4,0,0.7,0.3,0.7,0.7v17.9
		c0,3.4-2.7,6.3-6.4,6.3c-3.1,0-5.9-1.6-6.4-4.8c-0.1-0.5,0.1-0.8,0.6-0.8h1.7c0.7,0,0.8,0.3,0.9,0.7c0.5,1.2,1.4,1.8,3.2,1.8
		c1.8,0,3.3-1.3,3.3-3.2v-0.8c0-0.7-0.3-0.8-0.8-0.8c-0.7,0-1.6,0.9-3.3,0.9c-3.7,0-6.4-3-6.7-6.7c-0.1-1.4-0.1-3.5,0-4.9
		c0.3-3.7,3-6.7,6.7-6.7C189,24.6,189.3,25.7,190.3,25.7 M190.8,31.2c-0.1-1.9-1.6-3.5-4-3.5s-3.9,1.6-4,3.5c-0.1,1.4-0.1,3.5,0,4.9
		c0.1,1.9,1.6,3.5,4,3.5s3.9-1.6,4-3.5C190.9,34.7,190.9,32.7,190.8,31.2"/>
	<path class="st0" d="M200.1,34.7c-0.2,0-0.3,0.1-0.3,0.4c0,3.2,1.6,4.6,4.1,4.6c1.8,0,3.2-0.9,3.6-2.2c0.1-0.5,0.5-0.6,0.8-0.6h1.8
		c0.4,0,0.7,0.2,0.6,0.7c-0.4,3-3.2,5.3-6.8,5.3c-4.2,0-6.9-3-7.2-6.7c-0.1-1.4-0.1-3.5,0-4.9c0.3-3.7,3-6.7,7.2-6.7
		c4.2,0,7,2.6,7,7V34c0,0.4-0.3,0.7-0.7,0.7H200.1z M199.8,31.5c0,0.2,0.1,0.4,0.4,0.4h7.3c0.2,0,0.3-0.1,0.3-0.4
		c0-2.4-1.8-3.8-4-3.8C201.4,27.7,199.8,29.4,199.8,31.5"/>
	<path class="st0" d="M227.8,41.7c0,0.4-0.3,0.7-0.7,0.7h-1.8c-0.4,0-0.7-0.3-0.7-0.7V31.2c0-2.2-1.7-3.5-3.9-3.5
		c-2.2,0-3.9,1.3-3.9,3.3v10.7c0,0.4-0.3,0.7-0.7,0.7h-1.8c-0.4,0-0.7-0.3-0.7-0.7V25.6c0-0.4,0.3-0.7,0.7-0.7h1.5
		c0.2,0,0.3,0.1,0.5,0.2c0.2,0.2,0.5,0.6,0.9,0.6c1,0,1.3-1.2,3.8-1.2c3.9,0,6.7,2.5,6.7,6.7V41.7z"/>
	<path class="st0" d="M232.9,23.2L232.9,23.2l-0.1-0.1l-0.3-0.5l-0.1-0.3c-0.2-0.2-0.2-0.4-0.2-0.7l0-0.3c0-0.3,0-0.6,0.1-0.9
		l0.1-0.6c0-0.4,0.2-0.8,0.3-1.1l0.1-0.2c0.1-0.2,0.3-0.4,0.4-0.6l-0.5,0c-0.3,0-0.6,0.1-0.8,0.1c-0.2,0-0.5,0-0.7,0.1
		c-0.3,0-0.7,0-1-0.1c-0.3-0.1-0.6-0.2-0.9-0.3c-0.4-0.2-0.7-0.4-0.9-0.8c-0.2-0.3-0.3-0.7-0.4-1c-0.2-0.5-0.4-1-0.4-1.6
		c0-0.2,0-0.5,0.1-0.7c0.1-0.2,0.1-0.3,0.3-0.5L228,13l0.1-0.2l0-0.1c0.2-0.2,0.5-0.4,0.7-0.6l0.4-0.3l0.5-0.3l0.3-0.1l0.4-0.2
		l-0.3-0.3c-0.4-0.4-0.6-0.9-0.9-1.4c-0.1-0.2-0.3-0.5-0.4-0.8c-0.1-0.3-0.2-0.6-0.2-0.9c0-0.4,0.1-0.9,0.2-1.3
		c0.1-0.3,0.2-0.6,0.4-0.8l0.3-0.3l0.5-0.5c0.2-0.1,0.4-0.2,0.6-0.4l0.5-0.2c0.3-0.1,0.6-0.1,0.9,0c0.3,0.1,0.6,0,0.8,0.1
		c0.2,0,0.4,0.1,0.7,0.2c0.3,0.1,0.5,0.3,0.8,0.4l0-0.3c0-0.4,0-0.7,0-1.1c0-0.5,0.2-0.9,0.2-1.4c0-0.3,0.2-0.6,0.4-0.9
		c0.2-0.3,0.5-0.5,0.8-0.7l0.4-0.3c0.4-0.1,0.8-0.3,1.2-0.4c0.3-0.1,0.7,0,1,0.2l0.5,0.3l0.5,0.3c0.2,0.2,0.4,0.3,0.6,0.5
		c0.2,0.2,0.4,0.4,0.6,0.7c0.1,0.2,0.2,0.4,0.3,0.7l0.2,0.3l0.1-0.1c0.2-0.2,0.3-0.5,0.6-0.7c0.2-0.2,0.5-0.4,0.8-0.5l0.3-0.2
		c0.2-0.1,0.4-0.2,0.7-0.3c0.3-0.1,0.6-0.2,1-0.2c0.4,0,0.8,0.1,1.2,0.3l0.5,0.3c0.2,0.2,0.4,0.4,0.6,0.6l0.1,0.1l0.3,0.4l0,0.1
		c0.2,0.2,0.3,0.5,0.4,0.8c0.1,0.3,0.1,0.6,0.2,1c0,0.3,0.1,0.6,0.1,1c0,0.4-0.1,0.7-0.4,1l-0.2,0.3c0.3-0.1,0.6-0.1,0.9-0.2
		c0.4-0.1,0.8-0.1,1.3-0.1c0.6,0.1,1.2,0.3,1.6,0.7c0.3,0.3,0.7,0.7,0.9,1.2l0.3,0.6c0.1,0.4,0.2,0.7,0.3,1.1c0.1,0.2,0.1,0.5,0,0.7
		c-0.1,0.3-0.2,0.6-0.4,0.9c-0.1,0.2-0.3,0.4-0.4,0.6c-0.3,0.4-0.7,0.7-1.1,0.9c-0.4,0.2-0.8,0.3-1.1,0.5l0.2,0.1
		c0.3,0.3,0.5,0.5,0.8,0.8c0.2,0.2,0.5,0.5,0.7,0.7l0.3,0.4c0.1,0.2,0.2,0.4,0.3,0.6l0.1,0.4c0,0.3,0,0.6,0,0.9l-0.1,0.5
		c-0.1,0.3-0.3,0.6-0.4,0.9c-0.1,0.2-0.3,0.5-0.5,0.6l-0.4,0.2c-0.2,0.1-0.4,0.3-0.6,0.4c-0.3,0.2-0.6,0.3-0.9,0.4
		c-0.5,0.1-1,0-1.5-0.2c-0.2,0-0.4-0.2-0.6-0.2l-0.3-0.1l0.1,0.2l0.1,0.2c0.2,0.4,0.2,0.9,0.1,1.3c-0.1,0.4-0.2,0.8-0.3,1.1
		c-0.2,0.4-0.4,0.8-0.8,1.1l-0.4,0.3c-0.2,0.3-0.5,0.4-0.9,0.5c-0.6,0.2-1.1,0.3-1.7,0.2c-0.4-0.1-0.8-0.2-1.1-0.4l-0.4-0.3
		l-0.3-0.4l-0.2-0.3l-0.4-0.4c-0.3-0.2-0.4-0.6-0.5-0.9l-0.1-0.2l-0.3,0.3c-0.2,0.4-0.5,0.7-0.9,1c-0.5,0.3-1,0.6-1.5,0.9
		c-0.4,0.2-0.8,0.2-1.2,0.2l-0.6-0.1l-0.6-0.2l-0.6-0.3C233.5,23.6,233.2,23.5,232.9,23.2L232.9,23.2 M249.5,18.8l0.4-0.4l0.3-0.4
		c0.2-0.3,0.4-0.6,0.5-1c0.1-0.4,0.1-0.8-0.1-1.2c-0.2-0.6-0.7-1-1.1-1.4c-0.4-0.3-0.9-0.5-1.4-0.7c-0.4-0.1-0.7-0.2-1.1-0.4
		c-0.3-0.1-0.7-0.2-1.1-0.2c-0.4,0-0.7,0-1.1,0.1c-0.2,0.1-0.5,0-0.8,0.1c-0.3,0.1-0.6,0.5-0.4,0.8l0.1,0.2c0,0.4,0.1,0.7,0.3,1.1
		l0.1,0.4c0.2,0.4,0.5,0.8,0.8,1.1l0.4,0.5c0.2,0.2,0.4,0.4,0.6,0.6c0.2,0.2,0.5,0.4,0.8,0.6l0.4,0.2c0.4,0.1,0.8,0.2,1.2,0.3
		c0.3,0.1,0.5,0,0.8-0.1L249.5,18.8 M229.9,16.8c0.2,0.1,0.4,0.3,0.6,0.4c0.4,0.2,0.9,0.2,1.4,0.1c0.2,0,0.4-0.1,0.6-0.1
		c0.3-0.1,0.5-0.2,0.8-0.3c0.4-0.1,0.7-0.3,1.1-0.4l0.4-0.2c0.3-0.2,0.6-0.5,0.9-0.8l0.2-0.3l0.3-0.3c0.2-0.2,0.4-0.5,0.6-0.7
		c0.2-0.2,0.2-0.5,0.1-0.7l-0.4-0.4c-0.2-0.1-0.5-0.2-0.7-0.4c-0.4-0.2-0.9-0.4-1.3-0.5l-0.4-0.1c-0.5,0-0.9-0.1-1.4-0.1
		c-0.4,0-0.8,0-1.2,0.1c-0.3,0.1-0.6,0.2-0.9,0.2c-0.4,0.1-0.8,0.3-1.1,0.6l-0.3,0.5c-0.1,0.2-0.2,0.4-0.2,0.6l-0.1,0.6
		c0,0.2,0,0.4,0,0.6c0.1,0.3,0.2,0.6,0.4,0.9C229.6,16.3,229.7,16.6,229.9,16.8 M235.8,7.3c-0.3-0.2-0.5-0.5-0.8-0.7
		c-0.3-0.2-0.6-0.4-0.9-0.6c-0.3-0.2-0.7-0.3-1.1-0.4c-0.4-0.1-0.8-0.1-1.1-0.1c-0.9,0.2-1.5,0.8-1.8,1.6c-0.1,0.3-0.2,0.7-0.2,1
		c0,0.2,0.1,0.5,0.2,0.7c0.1,0.2,0.3,0.4,0.4,0.5c0.2,0.3,0.5,0.5,0.8,0.7c0.2,0.1,0.4,0.2,0.7,0.3c0.4,0.1,0.7,0.3,1.1,0.4
		c0.3,0.1,0.6,0.1,0.9,0.1c0.1,0,0.2,0,0.4,0c0.3,0,0.6,0,0.8,0c0.1,0,0.2,0,0.3,0c0.2,0,0.4,0,0.6,0c0.3-0.1,0.6-0.2,0.9-0.3
		c0.3-0.1,0.5-0.3,0.4-0.7l-0.1-0.4l-0.2-0.4c-0.2-0.3-0.4-0.6-0.6-0.9C236.3,8,236,7.6,235.8,7.3 M243.3,16.4l-0.3-0.2l-0.3-0.2
		l-0.5-0.3c-0.3-0.1-0.6,0-0.8,0.1c-0.2,0.2-0.4,0.4-0.5,0.7l-0.3,0.6l-0.1,0.4c-0.1,0.2-0.2,0.4-0.2,0.6c0,0.3-0.1,0.5-0.1,0.8
		c0,0.3-0.1,0.6-0.1,0.8c0,0.3,0,0.6,0,0.9c0,0.3,0.1,0.6,0.2,0.9c0.1,0.3,0.2,0.6,0.3,0.9c0.2,0.4,0.5,0.6,0.9,0.8
		c0.2,0.1,0.5,0.2,0.8,0.2c0.3,0.1,0.6,0.1,0.8-0.1l0.1,0l0.4-0.1c0.4-0.2,0.8-0.5,1.1-0.9l0.2-0.4c0.1-0.4,0.1-0.8,0.1-1.2
		c0-0.6-0.2-1.1-0.3-1.7l-0.3-0.6c-0.1-0.2-0.2-0.5-0.3-0.7c-0.2-0.3-0.4-0.6-0.6-0.9L243.3,16.4 M234.1,22.1
		c0.2,0.2,0.4,0.4,0.6,0.5l0.5,0.2c0.3,0.1,0.6,0.1,0.8,0.1c0.3,0,0.6-0.1,0.8-0.3c0.3-0.3,0.7-0.6,1-0.9c0.2-0.2,0.4-0.4,0.5-0.6
		c0.2-0.4,0.4-0.9,0.6-1.3c0.2-0.4,0.2-0.8,0.3-1.1c0.1-0.3,0-0.6,0-1l0-0.6c0-0.3,0-0.6-0.1-0.8l-0.2-0.4c-0.2-0.2-0.5-0.2-0.7-0.2
		c-0.4,0.1-0.7,0.2-1,0.3c-0.4,0.1-0.8,0.3-1.1,0.5l-0.2,0.1c-0.3,0.2-0.5,0.4-0.8,0.7c-0.2,0.2-0.4,0.5-0.6,0.7l-0.2,0.3l-0.3,0.5
		c-0.1,0.2-0.2,0.4-0.3,0.6c-0.1,0.3-0.1,0.7-0.2,1c-0.1,0.3,0,0.6,0.1,0.8C233.8,21.6,234,21.8,234.1,22.1 M239.5,2l-0.3-0.2
		l-0.5-0.3c-0.4-0.2-0.8-0.4-1.2-0.3c-0.5,0.1-1,0.2-1.4,0.6l-0.4,0.3c-0.2,0.2-0.4,0.5-0.4,0.8l0,0.6c0,0.5,0.1,1,0.2,1.4
		c0.1,0.2,0.2,0.5,0.3,0.7c0.2,0.3,0.4,0.7,0.6,1c0.2,0.4,0.5,0.6,0.7,0.9c0.3,0.3,0.6,0.5,0.9,0.7c0.4,0.3,0.8,0.5,1.2,0.6l0.2,0
		c0.3-0.2,0.5-0.4,0.6-0.7c0.1-0.3,0.2-0.5,0.3-0.8c0.1-0.2,0.1-0.5,0.2-0.7c0-0.5,0-0.9,0-1.4c0-0.3,0-0.5,0-0.8
		c-0.1-0.4-0.1-0.8-0.2-1.1c-0.1-0.2-0.2-0.4-0.2-0.6C239.8,2.5,239.7,2.2,239.5,2 M238.8,10.9l-0.1,0.1l-0.1,0.1
		c-0.2,0.1-0.3,0.4-0.3,0.6l-0.1,0.4c-0.1,0.3-0.1,0.5,0,0.8c0.1,0.3,0.2,0.6,0.4,0.9c0.2,0.2,0.4,0.5,0.6,0.7
		c0.3,0.3,0.8,0.3,1.2,0.4l0.2,0c0.2-0.1,0.5-0.2,0.7-0.3c0.2-0.2,0.5-0.3,0.7-0.6c0.2-0.3,0.4-0.6,0.5-0.9c0.1-0.3,0.1-0.7,0-1
		c-0.1-0.4-0.3-0.7-0.6-1c-0.3-0.3-0.5-0.5-0.9-0.6l-0.5-0.1c-0.3,0-0.5,0.1-0.8,0.1C239.4,10.6,239.1,10.7,238.8,10.9L238.8,10.9
		 M244,11.8l0.2,0.2c0.2,0.1,0.4,0.2,0.6,0.2l0.5,0.2c0.3,0.1,0.7,0.1,1,0.1c0.4,0,0.8,0.1,1.2,0.1c0.4,0,0.8-0.1,1.2-0.2
		c0.3-0.1,0.6-0.2,0.8-0.3c0.2-0.1,0.4-0.3,0.7-0.4l0.4-0.4l0.3-0.4c0.2-0.2,0.3-0.4,0.3-0.7c0-0.2,0-0.5,0-0.7c0-0.4-0.1-0.7-0.3-1
		l-0.4-0.5l-0.3-0.3c-0.2-0.1-0.5-0.3-0.8-0.4c-0.3-0.1-0.7-0.1-1,0l-0.3,0.1c-0.5,0-0.9,0.2-1.3,0.4c-0.5,0.3-1,0.7-1.4,1.1
		c-0.3,0.2-0.5,0.5-0.7,0.8c-0.3,0.3-0.5,0.6-0.7,1l-0.2,0.3l-0.2,0.5L244,11.8 M244.9,8L244.9,8c0.2-0.2,0.4-0.4,0.6-0.6
		c0.2-0.3,0.4-0.6,0.6-0.9c0.1-0.2,0.3-0.4,0.4-0.6c0.2-0.3,0.3-0.7,0.3-1.1l0-0.5c0-0.4-0.1-0.7-0.3-1.1c-0.2-0.3-0.4-0.6-0.7-0.8
		c-0.3-0.2-0.6-0.3-0.9-0.5c-0.3-0.1-0.7-0.2-1-0.1c-0.4,0.1-0.7,0.4-1.1,0.6c-0.3,0.3-0.6,0.6-0.8,1c-0.1,0.3-0.3,0.6-0.4,0.9
		l-0.2,0.6c-0.1,0.3-0.1,0.6-0.1,0.9l0,0.3c0,0.3,0,0.5,0,0.8l0,0.4c0,0.3,0.1,0.6,0.1,0.9c0.1,0.2,0.1,0.5,0.3,0.7l0.5,0.3l0.1,0
		c0.2-0.1,0.5-0.1,0.7-0.2c0.3-0.2,0.7-0.4,1-0.6C244.2,8.4,244.6,8.2,244.9,8"/>
	<path class="st0" d="M240,12.9l0.4,0.2c0.2,0,0.3-0.2,0.4-0.4l0-0.3l-0.2-0.3l-0.2-0.1l-0.4,0.1l-0.2,0.3L240,12.9"/>
</g>
<path class="st1" d="M249.5,18.8l0.4-0.4l0.3-0.4c0.2-0.3,0.4-0.6,0.5-1c0.1-0.4,0.1-0.8-0.1-1.2c-0.2-0.6-0.7-1-1.1-1.4
	c-0.4-0.3-0.9-0.5-1.4-0.7c-0.4-0.1-0.7-0.2-1.1-0.4c-0.3-0.1-0.7-0.2-1.1-0.2c-0.4,0-0.7,0-1.1,0.1c-0.2,0.1-0.5,0-0.8,0.1
	c-0.3,0.1-0.6,0.5-0.4,0.8l0.1,0.2c0,0.4,0.1,0.7,0.3,1.1l0.1,0.4c0.2,0.4,0.5,0.8,0.8,1.1l0.4,0.5c0.2,0.2,0.4,0.4,0.6,0.6
	c0.2,0.2,0.5,0.4,0.8,0.6l0.4,0.2c0.4,0.1,0.8,0.2,1.2,0.3c0.3,0.1,0.5,0,0.8-0.1L249.5,18.8"/>
<path class="st1" d="M229.9,16.8c0.2,0.1,0.4,0.3,0.6,0.4c0.4,0.2,0.9,0.2,1.4,0.1c0.2,0,0.4-0.1,0.6-0.1c0.3-0.1,0.5-0.2,0.8-0.3
	c0.4-0.1,0.7-0.3,1.1-0.4l0.4-0.2c0.3-0.2,0.6-0.5,0.9-0.8l0.2-0.3l0.3-0.3c0.2-0.2,0.4-0.5,0.6-0.7c0.2-0.2,0.2-0.5,0.1-0.7
	l-0.4-0.4c-0.2-0.1-0.5-0.2-0.7-0.4c-0.4-0.2-0.9-0.4-1.3-0.5l-0.4-0.1c-0.5,0-0.9-0.1-1.4-0.1c-0.4,0-0.8,0-1.2,0.1
	c-0.3,0.1-0.6,0.2-0.9,0.2c-0.4,0.1-0.8,0.3-1.1,0.6l-0.3,0.5c-0.1,0.2-0.2,0.4-0.2,0.6l-0.1,0.6c0,0.2,0,0.4,0,0.6
	c0.1,0.3,0.2,0.6,0.4,0.9C229.6,16.3,229.7,16.6,229.9,16.8"/>
<path class="st1" d="M235.8,7.3c-0.3-0.2-0.5-0.5-0.8-0.7c-0.3-0.2-0.6-0.4-0.9-0.6c-0.3-0.2-0.7-0.3-1.1-0.4
	c-0.4-0.1-0.8-0.1-1.1-0.1c-0.9,0.2-1.5,0.8-1.8,1.6c-0.1,0.3-0.2,0.7-0.2,1c0,0.2,0.1,0.5,0.2,0.7c0.1,0.2,0.3,0.4,0.4,0.5
	c0.2,0.3,0.5,0.5,0.8,0.7c0.2,0.1,0.4,0.2,0.7,0.3c0.4,0.1,0.7,0.3,1.1,0.4c0.3,0.1,0.6,0.1,0.9,0.1c0.1,0,0.2,0,0.4,0
	c0.3,0,0.6,0,0.8,0c0.1,0,0.2,0,0.3,0c0.2,0,0.4,0,0.6,0c0.3-0.1,0.6-0.2,0.9-0.3c0.3-0.1,0.5-0.3,0.4-0.7l-0.1-0.4l-0.2-0.4
	c-0.2-0.3-0.4-0.6-0.6-0.9C236.3,8,236,7.6,235.8,7.3"/>
<path class="st1" d="M243.3,16.4l-0.3-0.2l-0.3-0.2l-0.5-0.3c-0.3-0.1-0.6,0-0.8,0.1c-0.2,0.2-0.4,0.4-0.5,0.7l-0.3,0.6l-0.1,0.4
	c-0.1,0.2-0.2,0.4-0.2,0.6c0,0.3-0.1,0.5-0.1,0.8c0,0.3-0.1,0.6-0.1,0.8c0,0.3,0,0.6,0,0.9c0,0.3,0.1,0.6,0.2,0.9
	c0.1,0.3,0.2,0.6,0.3,0.9c0.2,0.4,0.5,0.6,0.9,0.8c0.2,0.1,0.5,0.2,0.8,0.2c0.3,0.1,0.6,0.1,0.8-0.1l0.1,0l0.4-0.1
	c0.4-0.2,0.8-0.5,1.1-0.9l0.2-0.4c0.1-0.4,0.1-0.8,0.1-1.2c0-0.6-0.2-1.1-0.3-1.7l-0.3-0.6c-0.1-0.2-0.2-0.5-0.3-0.7
	c-0.2-0.3-0.4-0.6-0.6-0.9L243.3,16.4"/>
<path class="st1" d="M234.1,22.1c0.2,0.2,0.4,0.4,0.6,0.5l0.5,0.2c0.3,0.1,0.6,0.1,0.8,0.1c0.3,0,0.6-0.1,0.8-0.3
	c0.3-0.3,0.7-0.6,1-0.9c0.2-0.2,0.4-0.4,0.5-0.6c0.2-0.4,0.4-0.9,0.6-1.3c0.2-0.4,0.2-0.8,0.3-1.1c0.1-0.3,0-0.6,0-1l0-0.6
	c0-0.3,0-0.6-0.1-0.8l-0.2-0.4c-0.2-0.2-0.5-0.2-0.7-0.2c-0.4,0.1-0.7,0.2-1,0.3c-0.4,0.1-0.8,0.3-1.1,0.5l-0.2,0.1
	c-0.3,0.2-0.5,0.4-0.8,0.7c-0.2,0.2-0.4,0.5-0.6,0.7l-0.2,0.3l-0.3,0.5c-0.1,0.2-0.2,0.4-0.3,0.6c-0.1,0.3-0.1,0.7-0.2,1
	c-0.1,0.3,0,0.6,0.1,0.8C233.8,21.6,234,21.8,234.1,22.1"/>
<path class="st1" d="M239.5,2l-0.3-0.2l-0.5-0.3c-0.4-0.2-0.8-0.4-1.2-0.3c-0.5,0.1-1,0.2-1.4,0.6l-0.4,0.3
	c-0.2,0.2-0.4,0.5-0.4,0.8l0,0.6c0,0.5,0.1,1,0.2,1.4c0.1,0.2,0.2,0.5,0.3,0.7c0.2,0.3,0.4,0.7,0.6,1c0.2,0.4,0.5,0.6,0.7,0.9
	c0.3,0.3,0.6,0.5,0.9,0.7c0.4,0.3,0.8,0.5,1.2,0.6l0.2,0c0.3-0.2,0.5-0.4,0.6-0.7c0.1-0.3,0.2-0.5,0.3-0.8c0.1-0.2,0.1-0.5,0.2-0.7
	c0-0.5,0-0.9,0-1.4c0-0.3,0-0.5,0-0.8c-0.1-0.4-0.1-0.8-0.2-1.1c-0.1-0.2-0.2-0.4-0.2-0.6C239.8,2.5,239.7,2.2,239.5,2"/>
<path class="st2" d="M244,11.8l0.2,0.2c0.2,0.1,0.4,0.2,0.6,0.2l0.5,0.2c0.3,0.1,0.7,0.1,1,0.1c0.4,0,0.8,0.1,1.2,0.1
	c0.4,0,0.8-0.1,1.2-0.2c0.3-0.1,0.6-0.2,0.8-0.3c0.2-0.1,0.4-0.3,0.7-0.4l0.4-0.4l0.3-0.4c0.2-0.2,0.3-0.4,0.3-0.7
	c0-0.2,0-0.5,0-0.7c0-0.4-0.1-0.7-0.3-1l-0.4-0.5l-0.3-0.3c-0.2-0.1-0.5-0.3-0.8-0.4c-0.3-0.1-0.7-0.1-1,0l-0.3,0.1
	c-0.5,0-0.9,0.2-1.3,0.4c-0.5,0.3-1,0.7-1.4,1.1c-0.3,0.2-0.5,0.5-0.7,0.8c-0.3,0.3-0.5,0.6-0.7,1l-0.2,0.3l-0.2,0.5L244,11.8"/>
<path class="st2" d="M244.9,8L244.9,8c0.2-0.2,0.4-0.4,0.6-0.6c0.2-0.3,0.4-0.6,0.6-0.9c0.1-0.2,0.3-0.4,0.4-0.6
	c0.2-0.3,0.3-0.7,0.3-1.1l0-0.5c0-0.4-0.1-0.7-0.3-1.1c-0.2-0.3-0.4-0.6-0.7-0.8c-0.3-0.2-0.6-0.3-0.9-0.5c-0.3-0.1-0.7-0.2-1-0.1
	c-0.4,0.1-0.7,0.4-1.1,0.6c-0.3,0.3-0.6,0.6-0.8,1c-0.1,0.3-0.3,0.6-0.4,0.9l-0.2,0.6c-0.1,0.3-0.1,0.6-0.1,0.9l0,0.3
	c0,0.3,0,0.5,0,0.8l0,0.4c0,0.3,0.1,0.6,0.1,0.9c0.1,0.2,0.1,0.5,0.3,0.7l0.5,0.3l0.1,0c0.2-0.1,0.5-0.1,0.7-0.2
	c0.3-0.2,0.7-0.4,1-0.6C244.2,8.4,244.6,8.2,244.9,8"/>
<path class="st1" d="M238.8,10.9l-0.1,0.1l-0.1,0.1c-0.2,0.1-0.3,0.4-0.3,0.6l-0.1,0.4c-0.1,0.3-0.1,0.5,0,0.8
	c0.1,0.3,0.2,0.6,0.4,0.9c0.2,0.2,0.4,0.5,0.6,0.7c0.3,0.3,0.8,0.3,1.2,0.4l0.2,0c0.2-0.1,0.5-0.2,0.7-0.3c0.2-0.2,0.5-0.3,0.7-0.6
	c0.2-0.3,0.4-0.6,0.5-0.9c0.1-0.3,0.1-0.7,0-1c-0.1-0.4-0.3-0.7-0.6-1c-0.3-0.3-0.5-0.5-0.9-0.6l-0.5-0.1c-0.3,0-0.5,0.1-0.8,0.1
	C239.4,10.6,239.1,10.7,238.8,10.9L238.8,10.9"/>
</svg>
