<svg width="238" height="34" viewBox="0 0 238 34" fill="none" xmlns="http://www.w3.org/2000/svg">
<g clip-path="url(#clip0_10_2)">
<path d="M56.9186 14.2896C54.4893 13.6906 52.3912 13.172 52.3912 11.8168C52.3912 10.4616 53.5657 9.58824 55.5266 9.58824C58.0931 9.58824 60.5693 10.0734 62.3227 11.7699L62.5134 11.954L65.622 8.07911L65.4681 7.92854C63.0321 5.58621 59.8432 4.38159 55.9951 4.38159C50.6044 4.38159 46.6927 7.68092 46.6927 12.2284C46.6927 18.0139 51.6852 19.2319 55.6973 20.2123C58.2504 20.8347 60.4555 21.3701 60.4555 22.9361C60.4555 24.1039 59.4282 25.4658 56.5305 25.4658C55.1275 25.4558 53.7422 25.153 52.463 24.5768C51.1838 24.0006 50.0391 23.1637 49.1019 22.1197L48.9045 21.9055L45.8428 26.4831L45.98 26.627C48.5465 29.3039 52.0265 30.6691 56.323 30.6691C62.3695 30.6691 66.1239 27.5037 66.1239 22.4108C66.1239 16.5684 60.8102 15.25 56.9253 14.2896" fill="white"/>
<path d="M234.62 6.42609H235.236C235.405 6.43618 235.572 6.38378 235.705 6.27886C235.761 6.2281 235.805 6.1654 235.834 6.09535C235.863 6.0253 235.876 5.94966 235.872 5.87397C235.877 5.80014 235.864 5.72616 235.835 5.65811C235.806 5.59006 235.761 5.52987 235.705 5.48247C235.569 5.38498 235.403 5.33768 235.236 5.34862H234.617L234.62 6.42609ZM236.23 6.42609C236.128 6.57626 235.983 6.69272 235.815 6.76071L236.434 7.68091H235.832L235.34 6.86109H234.62V7.68091H234.092V4.91362H235.236C235.536 4.89499 235.834 4.98265 236.076 5.16124C236.176 5.24822 236.256 5.35713 236.307 5.47955C236.359 5.60198 236.382 5.73464 236.374 5.86728C236.38 6.06282 236.329 6.25589 236.227 6.42274M236.327 8.36352C236.675 8.16175 236.964 7.87178 237.164 7.52282C237.364 7.17386 237.469 6.77826 237.468 6.3759C237.472 5.975 237.366 5.58064 237.163 5.23485C236.963 4.8901 236.676 4.60396 236.33 4.405C235.979 4.19719 235.577 4.08956 235.169 4.09381C234.762 4.09237 234.363 4.19837 234.01 4.40109C233.658 4.6038 233.365 4.89604 233.161 5.24824C232.963 5.59643 232.859 5.99024 232.859 6.39095C232.859 6.79167 232.963 7.18548 233.161 7.53367C233.364 7.88533 233.657 8.17632 234.01 8.37639C234.363 8.57646 234.763 8.67832 235.169 8.67137C235.581 8.67505 235.987 8.56878 236.344 8.36352M236.611 3.92315C237.038 4.17195 237.391 4.52856 237.635 4.95712C237.883 5.3883 238.013 5.87692 238.013 6.37422C238.013 6.87153 237.883 7.36014 237.635 7.79133C237.386 8.2252 237.027 8.58625 236.595 8.83868C236.159 9.09673 235.662 9.23095 235.156 9.22684C234.654 9.23107 234.161 9.09676 233.73 8.83868C233.091 8.45428 232.628 7.83469 232.44 7.1128C232.253 6.39091 232.355 5.62423 232.726 4.9772C232.971 4.54571 233.324 4.18576 233.75 3.93319C234.183 3.67283 234.681 3.53841 235.186 3.54503C235.687 3.53913 236.179 3.66986 236.611 3.92315" fill="white"/>
<path d="M199.171 23.9467C197.82 24.6129 196.326 24.9358 194.821 24.887C193.953 24.8965 193.092 24.7225 192.296 24.3766C191.5 24.0306 190.785 23.5204 190.2 22.8793C188.908 21.5408 188.256 19.7472 188.256 17.5254C188.256 15.3035 188.925 13.4832 190.283 12.1314C190.932 11.4684 191.71 10.9455 192.568 10.595C193.427 10.2445 194.349 10.0738 195.276 10.0935C196.254 10.0841 197.225 10.2613 198.137 10.6155C199.216 11.0944 200.207 11.7517 201.068 12.5597L201.403 12.8575L204.716 8.01556L204.451 7.77129C201.872 5.40398 198.486 4.11024 194.985 4.15408C193.252 4.12881 191.533 4.45434 189.93 5.11106C188.326 5.76777 186.873 6.74211 185.656 7.97541C183.089 10.5118 181.784 13.7141 181.784 17.5053C181.784 21.2965 183.062 24.4854 185.585 26.9783C188.108 29.4712 191.274 30.7294 194.955 30.7294C199.372 30.7294 202.885 29.2939 205.391 26.463L205.495 26.3426V16.9365H199.171V23.9467Z" fill="white"/>
<path d="M168.058 20.1655H179.074V14.6711H168.058V10.408H180.309V4.69946H161.757V30.1404H180.693V24.4687H168.058V20.1655Z" fill="white"/>
<path d="M83.4804 4.72961V18.8371C83.4804 20.721 83.0521 22.2201 82.2122 23.2875C81.7982 23.7783 81.282 24.1729 80.6997 24.4435C80.1174 24.7141 79.483 24.8544 78.8409 24.8544C78.1988 24.8544 77.5644 24.7141 76.9821 24.4435C76.3998 24.1729 75.8836 23.7783 75.4696 23.2875C74.6197 22.2234 74.1881 20.7277 74.1881 18.8438V4.72961H67.8872V19.0144C67.8872 22.6952 68.9279 25.5662 70.9824 27.5739C73.037 29.5817 75.6838 30.5855 78.8493 30.5855C82.0148 30.5855 84.6616 29.5817 86.6994 27.5739C88.7372 25.5662 89.7812 22.6885 89.7812 18.9944V4.72961H83.4804Z" fill="white"/>
<path d="M105.582 16.7558C105.01 17.4016 103.855 17.7296 102.152 17.7296H98.8629V10.2575H101.59C103.303 10.2575 104.571 10.5386 105.354 11.084C106.137 11.6295 106.465 12.4894 106.465 13.7844C106.465 15.0794 106.168 16.0933 105.582 16.7558M110.18 7.02514C108.386 5.50263 105.518 4.72632 101.66 4.72632H92.562V30.1572H98.8629V23.2976H101.724C105.438 23.2976 108.252 22.5547 110.089 21.0925C111.926 19.6302 112.9 17.2577 112.9 14.1023C112.9 10.9469 111.983 8.56773 110.173 7.02514" fill="white"/>
<path d="M121.135 20.1957H132.15V14.7013H121.135V10.4349H133.385V4.72632H114.834V30.1673H133.77V24.4922H121.135V20.1957Z" fill="white"/>
<path d="M150.631 13.326C150.631 14.5273 150.334 15.404 149.745 15.9327C149.156 16.4614 147.944 16.7458 146.178 16.7458H142.57V10.2609H146.285C147.958 10.2609 149.119 10.4851 149.748 10.9301C150.377 11.3752 150.631 12.1481 150.631 13.3293M157.039 13.3093C157.039 10.3278 156.163 8.12269 154.439 6.75745C152.716 5.39221 149.909 4.72632 146.004 4.72632H136.27V30.1572H142.57V22.3105H145.756L151.214 30.1673H158.963L152.585 21.136C155.547 19.8443 157.046 17.2142 157.046 13.3059" fill="white"/>
<path d="M220.419 3.9834C217.79 3.98671 215.221 4.76942 213.036 6.2326C210.851 7.69578 209.15 9.77375 208.146 12.2039C207.142 14.634 206.881 17.3072 207.396 19.8856C207.911 22.464 209.179 24.8318 211.039 26.6899C212.899 28.5479 215.269 29.8128 217.848 30.3245C220.427 30.8362 223.1 30.5719 225.529 29.565C227.957 28.558 230.033 26.8536 231.494 24.6672C232.954 22.4807 233.734 19.9104 233.734 17.2811C233.733 15.5337 233.388 13.8035 232.718 12.1895C232.048 10.5754 231.067 9.1091 229.831 7.87425C228.594 6.6394 227.127 5.66022 225.512 4.99262C223.897 4.32502 222.167 3.98208 220.419 3.9834M220.419 10.1738C221.825 10.1751 223.198 10.5931 224.366 11.3749C225.534 12.1566 226.444 13.2671 226.981 14.5659C227.518 15.8647 227.657 17.2935 227.382 18.6718C227.107 20.05 226.43 21.3158 225.436 22.3091C224.441 23.3024 223.175 23.9786 221.797 24.2523C220.418 24.526 218.989 24.3848 217.691 23.8467C216.393 23.3086 215.283 22.3976 214.503 21.229C213.722 20.0604 213.305 18.6865 213.305 17.2811C213.309 15.3964 214.06 13.59 215.393 12.2582C216.727 10.9265 218.534 10.1781 220.419 10.1772" fill="white"/>
<path d="M16.8714 0.138685C13.8436 0.140665 10.8721 0.957271 8.26845 2.50287C5.66483 4.04848 3.52503 6.26613 2.07342 8.92331C0.621818 11.5805 -0.0881136 14.5793 0.0180713 17.6052C0.124256 20.6312 1.04265 23.5728 2.67694 26.1217L0 33.8815L7.77316 31.2046C9.97961 32.6221 12.4861 33.5057 15.0937 33.7853C17.7014 34.0649 20.3382 33.7328 22.7951 32.8153C25.2519 31.8977 27.461 30.4201 29.247 28.4996C31.0329 26.5792 32.3466 24.2689 33.0837 21.752C33.8208 19.2352 33.9611 16.5812 33.4933 14.0007C33.0255 11.4202 31.9625 8.98424 30.3889 6.8863C28.8152 4.78837 26.7741 3.08618 24.4276 1.91488C22.0812 0.743575 19.494 0.135417 16.8714 0.138685M26.1202 26.2589L21.9041 24.8067C19.9804 26.048 17.6657 26.534 15.4052 26.1713C13.1448 25.8086 11.0983 24.6227 9.65962 22.8419C8.22092 21.0611 7.49163 18.8111 7.61207 16.5249C7.73251 14.2387 8.69417 12.0778 10.312 10.458C11.9299 8.83819 14.0896 7.87392 16.3757 7.75072C18.6617 7.62752 20.9126 8.3541 22.6951 9.79064C24.4777 11.2272 25.666 13.2722 26.0315 15.5322C26.3969 17.7922 25.9137 20.1076 24.6747 22.0327L26.1202 26.2589Z" fill="white"/>
</g>
<defs>
<clipPath id="clip0_10_2">
<rect width="238" height="33.7428" fill="white" transform="translate(0 0.138672)"/>
</clipPath>
</defs>
</svg>
