<svg width="238" height="34" viewBox="0 0 238 34" fill="none" xmlns="http://www.w3.org/2000/svg">
<g clip-path="url(#clip0_640_987)">
<path d="M56.9184 14.2896C54.489 13.6906 52.391 13.172 52.391 11.8168C52.391 10.4616 53.5655 9.58824 55.5264 9.58824C58.0929 9.58824 60.569 10.0734 62.3224 11.7699L62.5132 11.954L65.6218 8.07911L65.4678 7.92854C63.0318 5.58621 59.8429 4.38159 55.9948 4.38159C50.6041 4.38159 46.6925 7.68092 46.6925 12.2284C46.6925 18.0139 51.6849 19.2319 55.697 20.2123C58.2501 20.8347 60.4553 21.3701 60.4553 22.9361C60.4553 24.1039 59.428 25.4658 56.5302 25.4658C55.1273 25.4558 53.7419 25.153 52.4628 24.5768C51.1836 24.0006 50.0388 23.1637 49.1017 22.1197L48.9043 21.9055L45.8425 26.4831L45.9797 26.627C48.5462 29.3039 52.0263 30.6691 56.3227 30.6691C62.3693 30.6691 66.1237 27.5037 66.1237 22.4108C66.1237 16.5684 60.81 15.25 56.9251 14.2896" fill="#231F20"/>
<path d="M234.62 6.42621H235.236C235.405 6.43631 235.572 6.3839 235.705 6.27898C235.761 6.22822 235.805 6.16553 235.834 6.09547C235.863 6.02542 235.876 5.94978 235.872 5.87409C235.877 5.80026 235.864 5.72629 235.835 5.65824C235.806 5.59019 235.761 5.52999 235.705 5.48259C235.569 5.3851 235.403 5.3378 235.236 5.34874H234.617L234.62 6.42621ZM236.23 6.42621C236.128 6.57638 235.983 6.69284 235.815 6.76083L236.434 7.68103H235.832L235.34 6.86121H234.62V7.68103H234.092V4.91374H235.236C235.536 4.89511 235.834 4.98277 236.076 5.16136C236.176 5.24834 236.256 5.35725 236.307 5.47968C236.359 5.6021 236.382 5.73476 236.374 5.8674C236.38 6.06295 236.329 6.25601 236.227 6.42287M236.327 8.36365C236.675 8.16188 236.964 7.8719 237.164 7.52294C237.364 7.17399 237.469 6.77839 237.468 6.37602C237.472 5.97512 237.366 5.58076 237.163 5.23497C236.963 4.89022 236.676 4.60408 236.33 4.40512C235.979 4.19731 235.577 4.08969 235.169 4.09393C234.762 4.09249 234.363 4.19849 234.01 4.40121C233.658 4.60392 233.365 4.89616 233.161 5.24836C232.963 5.59655 232.859 5.99036 232.859 6.39108C232.859 6.79179 232.963 7.1856 233.161 7.5338C233.364 7.88545 233.657 8.17644 234.01 8.37651C234.363 8.57658 234.763 8.67844 235.169 8.67149C235.581 8.67518 235.987 8.56891 236.344 8.36365M236.611 3.92327C237.038 4.17207 237.391 4.52868 237.635 4.95724C237.883 5.38843 238.013 5.87704 238.013 6.37435C238.013 6.87165 237.883 7.36027 237.635 7.79145C237.386 8.22532 237.027 8.58638 236.595 8.8388C236.159 9.09686 235.662 9.23107 235.156 9.22696C234.654 9.23119 234.161 9.09688 233.73 8.8388C233.091 8.45441 232.628 7.83481 232.44 7.11292C232.253 6.39104 232.355 5.62435 232.726 4.97732C232.971 4.54584 233.324 4.18588 233.75 3.93331C234.183 3.67295 234.681 3.53853 235.186 3.54516C235.687 3.53926 236.179 3.66998 236.611 3.92327Z" fill="#231F20"/>
<path d="M199.171 23.9468C197.82 24.613 196.326 24.936 194.821 24.8871C193.953 24.8966 193.092 24.7227 192.296 24.3767C191.5 24.0307 190.785 23.5205 190.2 22.8794C188.908 21.5409 188.256 19.7474 188.256 17.5255C188.256 15.3037 188.925 13.4833 190.284 12.1315C190.932 11.4685 191.71 10.9456 192.569 10.5951C193.427 10.2446 194.349 10.0739 195.276 10.0937C196.254 10.0843 197.225 10.2614 198.137 10.6157C199.216 11.0946 200.207 11.7518 201.068 12.5598L201.403 12.8576L204.716 8.01568L204.451 7.77141C201.872 5.4041 198.486 4.11036 194.985 4.1542C193.253 4.12893 191.533 4.45446 189.93 5.11118C188.326 5.7679 186.873 6.74223 185.656 7.97553C183.089 10.5119 181.784 13.7142 181.784 17.5054C181.784 21.2966 183.063 24.4856 185.586 26.9785C188.109 29.4714 191.274 30.7295 194.955 30.7295C199.372 30.7295 202.885 29.294 205.392 26.4631L205.495 26.3427V16.9366H199.171V23.9468Z" fill="#231F20"/>
<path d="M168.058 20.1655H179.074V14.6711H168.058V10.408H180.309V4.69946H161.757V30.1404H180.693V24.4687H168.058V20.1655Z" fill="#231F20"/>
<path d="M83.4804 4.72974V18.8372C83.4804 20.7211 83.0521 22.2202 82.2122 23.2876C81.7982 23.7785 81.282 24.173 80.6997 24.4436C80.1174 24.7143 79.483 24.8545 78.8409 24.8545C78.1988 24.8545 77.5644 24.7143 76.9821 24.4436C76.3998 24.173 75.8836 23.7785 75.4696 23.2876C74.6197 22.2235 74.1881 20.7278 74.1881 18.8439V4.72974H67.8872V19.0146C67.8872 22.6953 68.9279 25.5664 70.9824 27.5741C73.037 29.5818 75.6838 30.5856 78.8493 30.5856C82.0148 30.5856 84.6616 29.5818 86.6994 27.5741C88.7372 25.5664 89.7812 22.6887 89.7812 18.9945V4.72974H83.4804Z" fill="#231F20"/>
<path d="M105.582 16.7558C105.01 17.4016 103.855 17.7296 102.152 17.7296H98.8627V10.2575H101.59C103.303 10.2575 104.571 10.5386 105.354 11.084C106.137 11.6295 106.465 12.4894 106.465 13.7844C106.465 15.0794 106.167 16.0933 105.582 16.7558ZM110.179 7.02514C108.386 5.50263 105.518 4.72632 101.66 4.72632H92.5619V30.1572H98.8627V23.2976H101.724C105.438 23.2976 108.252 22.5547 110.089 21.0925C111.926 19.6302 112.9 17.2577 112.9 14.1023C112.9 10.9469 111.983 8.56773 110.173 7.02514" fill="#231F20"/>
<path d="M121.135 20.1957H132.15V14.7013H121.135V10.4349H133.385V4.72632H114.834V30.1673H133.77V24.4922H121.135V20.1957Z" fill="#231F20"/>
<path d="M150.631 13.326C150.631 14.5273 150.334 15.404 149.745 15.9327C149.156 16.4614 147.944 16.7458 146.178 16.7458H142.571V10.2609H146.285C147.958 10.2609 149.119 10.4851 149.748 10.9301C150.377 11.3752 150.631 12.1481 150.631 13.3293M157.039 13.3093C157.039 10.3278 156.163 8.12269 154.439 6.75745C152.716 5.39221 149.909 4.72632 146.004 4.72632H136.27V30.1572H142.571V22.3105H145.756L151.214 30.1673H158.963L152.586 21.136C155.547 19.8443 157.046 17.2142 157.046 13.3059" fill="#231F20"/>
<path d="M220.419 3.9834C217.79 3.98671 215.221 4.76942 213.036 6.2326C210.851 7.69578 209.15 9.77375 208.146 12.2039C207.142 14.634 206.881 17.3072 207.396 19.8856C207.911 22.464 209.179 24.8318 211.039 26.6899C212.899 28.5479 215.269 29.8128 217.848 30.3245C220.427 30.8362 223.1 30.5719 225.529 29.565C227.957 28.558 230.033 26.8536 231.494 24.6672C232.954 22.4807 233.734 19.9104 233.734 17.2811C233.733 15.5337 233.388 13.8035 232.718 12.1895C232.048 10.5754 231.067 9.1091 229.831 7.87425C228.594 6.6394 227.127 5.66022 225.512 4.99262C223.897 4.32502 222.167 3.98208 220.419 3.9834ZM220.419 10.1738C221.825 10.1751 223.198 10.5931 224.366 11.3749C225.534 12.1566 226.444 13.2671 226.981 14.5659C227.518 15.8647 227.657 17.2935 227.382 18.6718C227.107 20.05 226.43 21.3158 225.436 22.3091C224.441 23.3024 223.175 23.9786 221.797 24.2523C220.418 24.526 218.989 24.3848 217.691 23.8467C216.393 23.3086 215.283 22.3976 214.503 21.229C213.722 20.0604 213.305 18.6865 213.305 17.2811C213.309 15.3964 214.06 13.59 215.393 12.2582C216.727 10.9265 218.534 10.1781 220.419 10.1772" fill="#231F20"/>
<path d="M16.8714 0.138685C13.8436 0.140665 10.8721 0.957271 8.26845 2.50287C5.66483 4.04848 3.52503 6.26613 2.07342 8.92331C0.621818 11.5805 -0.0881136 14.5793 0.0180713 17.6052C0.124256 20.6312 1.04265 23.5728 2.67694 26.1217L0 33.8815L7.77316 31.2046C9.97961 32.6221 12.4861 33.5057 15.0937 33.7853C17.7014 34.0649 20.3382 33.7328 22.7951 32.8153C25.2519 31.8977 27.461 30.4201 29.247 28.4996C31.0329 26.5792 32.3466 24.2689 33.0837 21.752C33.8208 19.2352 33.9611 16.5812 33.4933 14.0007C33.0255 11.4202 31.9625 8.98424 30.3889 6.8863C28.8152 4.78837 26.7741 3.08618 24.4276 1.91488C22.0812 0.743575 19.494 0.135417 16.8714 0.138685ZM26.1202 26.2589L21.9041 24.8067C19.9804 26.048 17.6657 26.534 15.4052 26.1713C13.1448 25.8086 11.0983 24.6227 9.65962 22.8419C8.22092 21.0611 7.49163 18.8111 7.61207 16.5249C7.73251 14.2387 8.69417 12.0778 10.312 10.458C11.9299 8.83819 14.0896 7.87392 16.3757 7.75072C18.6617 7.62752 20.9126 8.3541 22.6951 9.79064C24.4777 11.2272 25.666 13.2722 26.0315 15.5322C26.3969 17.7922 25.9137 20.1076 24.6747 22.0327L26.1202 26.2589Z" fill="#231F20"/>
</g>
<defs>
<clipPath id="clip0_640_987">
<rect width="238" height="33.7428" fill="white" transform="translate(0 0.138672)"/>
</clipPath>
</defs>
</svg>
